<?xml version="1.0" encoding="iso-8859-1"?>
<!-- Generator: Adobe Illustrator 19.0.0, SVG Export Plug-In . SVG Version: 6.00 Build 0)  -->
<svg version="1.1" id="Layer_1" xmlns="http://www.w3.org/2000/svg" xmlns:xlink="http://www.w3.org/1999/xlink" x="0px" y="0px"
	 viewBox="0 0 512 512" style="enable-background:new 0 0 512 512;" xml:space="preserve">
<circle style="fill:#FC6F58;" cx="256" cy="256" r="256"/>
<path style="fill:#F1543F;" d="M256,512c123.683,0,226.882-87.714,250.782-204.329L312.889,113.778l-43.815,28.877l-0.629-0.629
	l-69.334,28.641l47.407,47.407H138.774l-12.46,12.46v51.286l-40.981,2.624l51.783,51.784l-51.783,5.104L256,512z"/>
<path style="fill:#324A5E;" d="M361.088,211.609h-99.916v-63.354h-10.343v63.354h-99.914c-15.725,0-28.517,12.791-28.517,28.515
	v83.539h10.343v-83.539c0-10.021,8.152-18.172,18.173-18.172h99.914v96.97h10.343v-96.97h99.916
	c10.021,0,18.172,8.152,18.172,18.172v83.539h10.343v-83.539C389.603,224.401,376.811,211.609,361.088,211.609z"/>
<path style="fill:#2B3B4E;" d="M361.088,211.609h-99.916v-63.354h-5.746v170.667h5.746v-96.97h99.916
	c10.021,0,18.172,8.152,18.172,18.172v83.539h10.343v-83.539C389.603,224.401,376.811,211.609,361.088,211.609z"/>
<rect x="199.111" y="113.778" style="fill:#FFD300;" width="113.778" height="56.889"/>
<g>
	<rect x="85.333" y="312.889" style="fill:#734B46;" width="85.333" height="28.444"/>
	<rect x="213.333" y="312.889" style="fill:#734B46;" width="85.333" height="28.444"/>
</g>
<rect x="341.333" y="312.889" style="fill:#57442F;" width="85.333" height="28.444"/>
<g>
	<rect x="85.333" y="256" style="fill:#734B46;" width="85.333" height="28.444"/>
	<rect x="213.333" y="256" style="fill:#734B46;" width="85.333" height="28.444"/>
</g>
<rect x="255.431" y="113.778" style="fill:#F9B54C;" width="57.458" height="56.889"/>
<g>
	<rect x="255.431" y="312.889" style="fill:#57442F;" width="43.236" height="28.444"/>
	<rect x="255.431" y="256" style="fill:#57442F;" width="43.236" height="28.444"/>
	<rect x="341.333" y="256" style="fill:#57442F;" width="85.333" height="28.444"/>
</g>
<g>
</g>
<g>
</g>
<g>
</g>
<g>
</g>
<g>
</g>
<g>
</g>
<g>
</g>
<g>
</g>
<g>
</g>
<g>
</g>
<g>
</g>
<g>
</g>
<g>
</g>
<g>
</g>
<g>
</g>
</svg>
