<?xml version="1.0" encoding="iso-8859-1"?>
<!-- Generator: Adobe Illustrator 19.0.0, SVG Export Plug-In . SVG Version: 6.00 Build 0)  -->
<svg version="1.1" id="Layer_1" xmlns="http://www.w3.org/2000/svg" xmlns:xlink="http://www.w3.org/1999/xlink" x="0px" y="0px"
	 viewBox="0 0 512 512" style="enable-background:new 0 0 512 512;" xml:space="preserve">
<circle style="fill:#324A5E;" cx="256" cy="256" r="256"/>
<path style="fill:#2B3B4E;" d="M503.684,320.926L292.202,109.444l-26.146,18.699l-43.844,50.16l33.787,33.787v18.625H141.074
	l-6.609,6.609v101.061l-27.672,12.645l76.671,76.143l-12.797,2.079l82.715,82.715c0.874,0.009,1.743,0.033,2.619,0.033
	C374.951,512,474.943,430.87,503.684,320.926z"/>
<path style="fill:#31BAFD;" d="M355.445,224.108h-94.273v-63.354h-10.343v63.354h-94.273c-15.031,0-27.262,12.791-27.262,28.515
	v83.539h10.343v-83.539c0-10.019,7.589-18.172,16.918-18.172h94.273v96.97h10.343v-96.97h94.273c9.33,0,16.918,8.152,16.918,18.172
	v83.539h10.343v-83.539C382.707,236.899,370.476,224.108,355.445,224.108z"/>
<path style="fill:#2B9ED8;" d="M355.445,224.108h-94.273v-63.354h-5.746v170.667h5.746v-96.97h94.273
	c9.33,0,16.918,8.152,16.918,18.172v83.539h10.343v-83.539C382.707,236.899,370.476,224.108,355.445,224.108z"/>
<circle style="fill:#EAA22F;" cx="256" cy="142.653" r="49.131"/>
<path style="fill:#E09112;" d="M256,93.522c-0.193,0-0.383,0.012-0.574,0.014v98.233c0.191,0.002,0.381,0.014,0.574,0.014
	c27.134,0,49.131-21.997,49.131-49.131S283.134,93.522,256,93.522z"/>
<circle style="fill:#FEE187;" cx="256" cy="142.653" r="31.03"/>
<path style="fill:#FFC61B;" d="M256,111.623c-0.193,0-0.381,0.026-0.574,0.029v62.002c0.193,0.003,0.381,0.029,0.574,0.029
	c17.137,0,31.03-13.893,31.03-31.03S273.137,111.623,256,111.623z"/>
<circle style="fill:#FFFFFF;" cx="132.31" cy="325.387" r="36.202"/>
<path style="fill:#D0D1D3;" d="M132.31,289.185c19.994,0,36.202,16.208,36.202,36.202c0,19.994-16.208,36.202-36.202,36.202V289.185
	z"/>
<circle style="fill:#FFFFFF;" cx="256" cy="325.387" r="36.202"/>
<path style="fill:#D0D1D3;" d="M256,289.185c-0.193,0-0.381,0.026-0.574,0.029v72.345c0.193,0.003,0.381,0.029,0.574,0.029
	c19.994,0,36.202-16.208,36.202-36.202C292.202,305.393,275.994,289.185,256,289.185z"/>
<circle style="fill:#FFFFFF;" cx="379.69" cy="325.387" r="36.202"/>
<path style="fill:#D0D1D3;" d="M379.69,289.185c19.994,0,36.202,16.208,36.202,36.202c0,19.994-16.208,36.202-36.202,36.202V289.185
	z"/>
<circle style="fill:#FFC61B;" cx="379.69" cy="325.387" r="25.859"/>
<path style="fill:#EAA22F;" d="M379.69,299.529c14.281,0,25.859,11.578,25.859,25.859c0,14.281-11.578,25.859-25.859,25.859V299.529
	z"/>
<circle style="fill:#FFC61B;" cx="256" cy="325.387" r="25.859"/>
<path style="fill:#EAA22F;" d="M256,299.529c-0.193,0-0.381,0.024-0.574,0.029v51.659c0.193,0.003,0.381,0.029,0.574,0.029
	c14.281,0,25.859-11.578,25.859-25.859C281.859,311.106,270.281,299.529,256,299.529z"/>
<circle style="fill:#FFC61B;" cx="132.31" cy="325.387" r="25.859"/>
<path style="fill:#EAA22F;" d="M132.31,299.529c14.281,0,25.859,11.578,25.859,25.859c0,14.281-11.578,25.859-25.859,25.859V299.529
	z"/>
<g>
	<rect x="170.667" y="395.636" style="fill:#FFFFFF;" width="170.667" height="5.172"/>
	<rect x="170.667" y="424.081" style="fill:#FFFFFF;" width="170.667" height="5.172"/>
</g>
<g>
	<rect x="255.431" y="395.636" style="fill:#D0D1D3;" width="85.907" height="5.172"/>
	<rect x="255.431" y="424.081" style="fill:#D0D1D3;" width="85.907" height="5.172"/>
</g>
<g>
</g>
<g>
</g>
<g>
</g>
<g>
</g>
<g>
</g>
<g>
</g>
<g>
</g>
<g>
</g>
<g>
</g>
<g>
</g>
<g>
</g>
<g>
</g>
<g>
</g>
<g>
</g>
<g>
</g>
</svg>
