<?xml version="1.0" encoding="iso-8859-1"?>
<!-- Generator: Adobe Illustrator 19.0.0, SVG Export Plug-In . SVG Version: 6.00 Build 0)  -->
<svg version="1.1" id="Layer_1" xmlns="http://www.w3.org/2000/svg" xmlns:xlink="http://www.w3.org/1999/xlink" x="0px" y="0px"
	 viewBox="0 0 512 512" style="enable-background:new 0 0 512 512;" xml:space="preserve">
<circle style="fill:#00A49A;" cx="256" cy="256" r="256"/>
<path style="fill:#2C9984;" d="M269.293,511.659c116.257-5.948,212.013-89.457,236.575-199.792L370.874,176.873l-100.268,139.13
	l-116.003,80.967L269.293,511.659z"/>
<polygon style="fill:#E9EFF4;" points="320.631,126.629 154.603,126.629 154.603,396.969 370.874,396.969 370.874,176.873 "/>
<polygon style="fill:#CFDBE6;" points="370.874,176.873 320.631,126.629 251.404,126.629 251.404,396.969 370.874,396.969 "/>
<polygon style="fill:#B8C9D9;" points="320.631,176.873 370.874,176.873 320.631,126.629 "/>
<g>
	<path style="fill:#D35933;" d="M256,221.867V204.8h-9.609c-0.807-3.131-2.051-6.085-3.656-8.801l6.803-6.803L237.47,177.13
		l-6.803,6.803c-2.715-1.605-5.67-2.85-8.801-3.656v-9.609H204.8v9.609c-3.131,0.807-6.085,2.051-8.801,3.656l-6.803-6.803
		l-12.067,12.067l6.803,6.803c-1.605,2.715-2.85,5.67-3.656,8.801h-9.609v17.067h9.609c0.807,3.131,2.051,6.085,3.656,8.801
		l-6.803,6.803l12.067,12.067l6.803-6.803c2.715,1.605,5.67,2.85,8.801,3.656V256h17.067v-9.609
		c3.131-0.807,6.085-2.051,8.801-3.656l6.803,6.803l12.067-12.067l-6.803-6.803c1.605-2.715,2.85-5.67,3.656-8.801H256z
		 M213.333,230.4c-9.426,0-17.067-7.64-17.067-17.067s7.64-17.067,17.067-17.067s17.067,7.64,17.067,17.067
		C230.4,222.76,222.76,230.4,213.333,230.4z"/>
	<path style="fill:#D35933;" d="M347.367,317.026V294.96h-12.424c-1.041-4.049-2.653-7.866-4.727-11.378l8.795-8.794l-15.603-15.603
		l-8.795,8.794c-3.512-2.074-7.33-3.686-11.378-4.727v-12.424h-22.066v12.424c-4.049,1.041-7.868,2.653-11.378,4.727l-8.794-8.794
		l-15.603,15.603l8.794,8.794c-2.076,3.512-3.686,7.33-4.727,11.378h-12.424v22.066h12.424c1.041,4.049,2.653,7.866,4.727,11.378
		l-8.795,8.794l15.603,15.603l8.795-8.794c3.512,2.076,7.33,3.686,11.378,4.727v12.424h22.066v-12.424
		c4.049-1.041,7.868-2.651,11.378-4.727l8.794,8.794l15.603-15.603l-8.794-8.794c2.076-3.512,3.686-7.33,4.727-11.378H347.367z
		 M292.202,328.059c-12.186,0-22.066-9.88-22.066-22.066s9.88-22.066,22.066-22.066c12.186,0,22.066,9.88,22.066,22.066
		S304.388,328.059,292.202,328.059z"/>
</g>
<g>
	<path style="fill:#B54324;" d="M256,221.867V204.8h-9.609c-0.805-3.132-2.051-6.085-3.656-8.801l6.803-6.803L237.47,177.13
		l-6.803,6.803c-2.715-1.605-5.67-2.85-8.801-3.656v-9.609h-8.964v25.622c0.145-0.003,0.286-0.022,0.431-0.022
		c9.426,0,17.067,7.64,17.067,17.067s-7.64,17.067-17.067,17.067c-0.145,0-0.286-0.019-0.431-0.022V256h8.964v-9.609
		c3.131-0.807,6.085-2.051,8.801-3.656l6.803,6.803l12.067-12.067l-6.803-6.803c1.605-2.715,2.85-5.67,3.656-8.801H256z"/>
	<path style="fill:#B54324;" d="M347.367,317.026V294.96h-12.424c-1.041-4.049-2.653-7.866-4.727-11.378l8.795-8.795l-15.603-15.603
		l-8.795,8.794c-3.512-2.074-7.33-3.684-11.378-4.727v-12.422h-11.607v33.128c0.193-0.005,0.381-0.029,0.574-0.029
		c12.186,0,22.066,9.88,22.066,22.066s-9.88,22.066-22.066,22.066c-0.193,0-0.381-0.024-0.574-0.029v33.128h11.607v-12.424
		c4.049-1.041,7.868-2.653,11.378-4.727l8.794,8.795l15.603-15.603l-8.795-8.794c2.076-3.512,3.686-7.33,4.727-11.379
		L347.367,317.026L347.367,317.026z"/>
</g>
<g>
</g>
<g>
</g>
<g>
</g>
<g>
</g>
<g>
</g>
<g>
</g>
<g>
</g>
<g>
</g>
<g>
</g>
<g>
</g>
<g>
</g>
<g>
</g>
<g>
</g>
<g>
</g>
<g>
</g>
</svg>
