<?xml version="1.0" encoding="iso-8859-1"?>
<!-- Generator: Adobe Illustrator 19.0.0, SVG Export Plug-In . SVG Version: 6.00 Build 0)  -->
<svg version="1.1" id="Layer_1" xmlns="http://www.w3.org/2000/svg" xmlns:xlink="http://www.w3.org/1999/xlink" x="0px" y="0px"
	 viewBox="0 0 512.002 512.002" style="enable-background:new 0 0 512.002 512.002;" xml:space="preserve">
<circle style="fill:#FED8B2;" cx="256.001" cy="256" r="256"/>
<path style="fill:#EFC095;" d="M505.122,315.142L297.64,107.66l-24.71,124.468l-34.168-34.166l-35.912,22.44l60.413,60.413
	L145.671,407.238l104.691,104.691c1.876,0.04,3.755,0.072,5.639,0.072C377.028,512,478.426,428.011,505.122,315.142z"/>
<circle style="fill:#59595B;" cx="256.001" cy="140.671" r="53.151"/>
<path style="fill:#3F3F3F;" d="M256.001,87.523c-0.193,0-0.383,0.012-0.574,0.016v106.274c0.191,0.002,0.381,0.016,0.574,0.016
	c29.355,0,53.151-23.797,53.151-53.151C309.152,111.319,285.355,87.523,256.001,87.523z"/>
<path style="fill:#59595B;" d="M337.338,379.857c-45.109-69.527-46.278-212.606-46.278-212.606h-70.12
	c0,0-1.169,143.081-46.278,212.606H337.338z"/>
<g>
	<path style="fill:#3F3F3F;" d="M291.06,167.25h-35.633v212.606h81.913C292.229,310.331,291.06,167.25,291.06,167.25z"/>
	<rect x="202.853" y="167.253" style="fill:#3F3F3F;" width="106.296" height="53.151"/>
</g>
<rect x="255.432" y="167.253" style="fill:#272525;" width="53.717" height="53.151"/>
<rect x="162.582" y="348.039" style="fill:#3F3F3F;" width="186.837" height="26.576"/>
<rect x="255.432" y="348.039" style="fill:#272525;" width="93.987" height="26.576"/>
<rect x="145.671" y="365.365" style="fill:#808183;" width="220.66" height="41.877"/>
<rect x="255.432" y="365.365" style="fill:#59595B;" width="110.899" height="41.877"/>
<g>
</g>
<g>
</g>
<g>
</g>
<g>
</g>
<g>
</g>
<g>
</g>
<g>
</g>
<g>
</g>
<g>
</g>
<g>
</g>
<g>
</g>
<g>
</g>
<g>
</g>
<g>
</g>
<g>
</g>
</svg>
