<?xml version="1.0" encoding="iso-8859-1"?>
<!-- Generator: Adobe Illustrator 19.0.0, SVG Export Plug-In . SVG Version: 6.00 Build 0)  -->
<svg version="1.1" id="Capa_1" xmlns="http://www.w3.org/2000/svg" xmlns:xlink="http://www.w3.org/1999/xlink" x="0px" y="0px"
	 viewBox="0 0 512 512" style="enable-background:new 0 0 512 512;" xml:space="preserve">
<circle style="fill:#7ACBFF;" cx="256" cy="256" r="256"/>
<path style="fill:#45A2E0;" d="M511.97,258.384L382.793,129.207l-248.23,248.229L268.807,511.68
	C403.454,505.046,510.727,394.383,511.97,258.384z"/>
<polygon style="fill:#092A40;" points="384.824,358.558 360.2,360.2 358.558,384.824 394.673,394.673 "/>
<polygon style="fill:#FFF5D9;" points="373.127,315.672 325.248,325.248 315.672,373.127 358.558,384.824 384.824,358.558 "/>
<polygon style="fill:#FFB14E;" points="284.087,226.632 236.208,236.208 226.632,284.087 315.672,373.128 373.127,315.672 "/>
<polygon style="fill:#FFCE47;" points="221.356,163.901 173.477,173.477 163.901,221.356 226.632,284.087 284.087,226.632 "/>
<polygon style="fill:#BFBFBF;" points="140.553,198.008 198.008,140.553 150.129,150.129 "/>
<polygon style="fill:#092A40;" points="198.153,140.698 145.458,145.458 140.698,198.153 163.901,221.356 221.356,163.901 "/>
<g>
	<path style="fill:#FF4181;" d="M186.662,129.207c-15.841-15.841-41.615-15.841-57.455,0s-15.841,41.615,0,57.455l11.491,11.491
		l57.455-57.455L186.662,129.207z"/>
	<path style="fill:#FF4181;" d="M382.793,186.662c15.841-15.841,15.841-41.615,0-57.455L244.528,244.49l40.219,40.219
		L382.793,186.662z"/>
</g>
<path style="fill:#FF755C;" d="M325.338,129.207l-98.046,98.047l28.727,28.727l126.774-126.774
	C366.953,113.367,341.179,113.367,325.338,129.207z"/>
<polygon style="fill:#7C8E99;" points="194.445,352.028 200.175,334.819 200.145,311.855 158.736,330.282 134.563,377.437 
	151.8,394.673 "/>
<g>
	<polygon style="fill:#9DA6AC;" points="159.972,317.555 117.327,360.2 134.563,377.437 200.145,311.855 177.171,311.825 	"/>
	<polygon style="fill:#9DA6AC;" points="266.624,268.35 247.471,249.197 188.662,323.327 200.154,334.819 	"/>
</g>
<rect x="208.024" y="237.349" transform="matrix(-0.7071 -0.7071 0.7071 -0.7071 167.9273 638.254)" style="fill:#BFBFBF;" width="16.253" height="93.999"/>
<polygon style="fill:#D63D76;" points="301.964,290.473 261.745,250.254 248.339,248.339 250.254,261.745 290.473,301.964 "/>
<rect x="227.756" y="207.454" transform="matrix(-0.7071 0.7071 -0.7071 -0.7071 569.4756 235.8997)" style="fill:#FF4181;" width="16.251" height="56.876"/>
<g>
</g>
<g>
</g>
<g>
</g>
<g>
</g>
<g>
</g>
<g>
</g>
<g>
</g>
<g>
</g>
<g>
</g>
<g>
</g>
<g>
</g>
<g>
</g>
<g>
</g>
<g>
</g>
<g>
</g>
</svg>
