<?xml version="1.0" encoding="iso-8859-1"?>
<!-- Generator: Adobe Illustrator 19.0.0, SVG Export Plug-In . SVG Version: 6.00 Build 0)  -->
<svg version="1.1" id="Capa_1" xmlns="http://www.w3.org/2000/svg" xmlns:xlink="http://www.w3.org/1999/xlink" x="0px" y="0px"
	 viewBox="0 0 512 512" style="enable-background:new 0 0 512 512;" xml:space="preserve">
<circle style="fill:#A7CB5C;" cx="256" cy="256" r="256"/>
<path style="fill:#6FA953;" d="M506.176,310.454L354.361,158.639L117.595,394.405l116.667,116.667
	C241.43,511.675,248.677,512,256,512C378.696,512,481.213,425.676,506.176,310.454z"/>
<path style="fill:#FFCE47;" d="M256,117.595L223.561,256L256,394.405c76.439,0,138.405-61.966,138.405-138.405
	S332.439,117.595,256,117.595z"/>
<path style="fill:#FFD86C;" d="M117.595,256c0,23.138,5.686,44.945,15.724,64.113l-15.724,74.291l74.292-15.724
	c19.168,10.038,40.975,15.724,64.113,15.724V117.595C179.561,117.595,117.595,179.561,117.595,256z"/>
<path style="fill:#FF4181;" d="M256,150.034L223.561,256L256,361.966c58.523,0,105.966-47.443,105.966-105.966
	S314.523,150.034,256,150.034z"/>
<path style="fill:#FF755C;" d="M150.034,256c0,58.523,47.443,105.966,105.966,105.966V150.034
	C197.477,150.034,150.034,197.477,150.034,256z"/>
<path style="fill:#FFF5D9;" d="M256,191.663L234.374,256L256,320.337c45.281,0,84.813-25.877,105.966-64.337
	C340.813,217.541,301.281,191.663,256,191.663z"/>
<path style="fill:#FFFFFF;" d="M150.034,256c21.153,38.459,60.685,64.337,105.966,64.337V191.663
	C210.719,191.663,171.187,217.541,150.034,256z"/>
<path style="fill:#6FA953;" d="M256,191.663L236.305,256L256,320.337c35.532,0,64.337-28.804,64.337-64.337
	S291.532,191.663,256,191.663z"/>
<path style="fill:#85C250;" d="M191.663,256c0,35.532,28.804,64.337,64.337,64.337V191.663
	C220.468,191.663,191.663,220.468,191.663,256z"/>
<path style="fill:#092A40;" d="M256,224.102L246.235,256L256,287.898c17.617,0,31.898-14.281,31.898-31.898
	S273.617,224.102,256,224.102z"/>
<path style="fill:#174461;" d="M224.102,256c0,17.617,14.281,31.898,31.898,31.898v-63.796
	C238.383,224.102,224.102,238.383,224.102,256z"/>
<g>
</g>
<g>
</g>
<g>
</g>
<g>
</g>
<g>
</g>
<g>
</g>
<g>
</g>
<g>
</g>
<g>
</g>
<g>
</g>
<g>
</g>
<g>
</g>
<g>
</g>
<g>
</g>
<g>
</g>
</svg>
