<?xml version="1.0" encoding="iso-8859-1"?>
<!-- Generator: Adobe Illustrator 19.0.0, SVG Export Plug-In . SVG Version: 6.00 Build 0)  -->
<svg version="1.1" id="Capa_1" xmlns="http://www.w3.org/2000/svg" xmlns:xlink="http://www.w3.org/1999/xlink" x="0px" y="0px"
	 viewBox="0 0 512 512" style="enable-background:new 0 0 512 512;" xml:space="preserve">
<circle style="fill:#7ACBFF;" cx="256" cy="256" r="256"/>
<path style="fill:#45A2E0;" d="M512,256c0-4.226-0.109-8.425-0.311-12.601L357.842,89.553l-49.562,29.999l-92.078-4.518
	l-25.711-25.698L77.744,328.667l182.842,183.274C399.853,509.494,512,395.852,512,256z"/>
<polygon style="fill:#FF4181;" points="77.744,328.668 120.219,328.668 141.108,240.482 77.744,178.156 "/>
<polygon style="fill:#D63D76;" points="370.892,240.482 391.781,328.668 434.256,328.668 434.256,178.156 "/>
<path style="fill:#3A2F4D;" d="M343.874,79.703l-4.316-1.959l-4.316,1.959c-16.413,7.448-27.018,23.936-27.018,42.006v64.303h62.668
	v-64.303C370.892,103.639,360.287,87.151,343.874,79.703z"/>
<path style="fill:#843561;" d="M176.759,79.703l-4.316-1.958l-4.316,1.958c-16.413,7.448-27.018,23.936-27.018,42.006v64.303h62.668
	v-64.303C203.776,103.639,193.171,87.151,176.759,79.703z"/>
<path style="fill:#FF4181;" d="M256,109.078l-41.779,152.27L256,413.618h94.002v-53.616c0-17.278,14.056-31.334,31.334-31.334
	h10.445v-83.809C391.781,169.989,330.87,109.078,256,109.078z"/>
<path style="fill:#FF755C;" d="M120.219,244.859v83.809h10.445c17.278,0,31.334,14.056,31.334,31.334v53.616H256v-304.54
	C181.13,109.078,120.219,169.989,120.219,244.859z"/>
<rect x="203.78" y="234.66" style="fill:#3A2F4D;" width="20.889" height="41.779"/>
<rect x="287.33" y="234.66" style="fill:#092A40;" width="20.889" height="41.779"/>
<polygon style="fill:#3A2F4D;" points="308.224,307.778 256,307.778 249.037,318.223 256,328.668 308.224,328.668 "/>
<rect x="203.78" y="307.78" style="fill:#843561;" width="52.22" height="20.889"/>
<polygon style="fill:#3A2F4D;" points="329.113,224.22 256,224.22 242.074,234.665 256,245.11 329.113,245.11 "/>
<rect x="182.89" y="224.22" style="fill:#843561;" width="73.11" height="20.889"/>
<path style="fill:#092A40;" d="M256,349.557l-13.926,42.35L256,434.256l4.316-1.958c22.758-10.326,37.463-33.192,37.463-58.253
	v-24.488H256z"/>
<path style="fill:#5B3256;" d="M214.221,349.557v24.488c0,25.061,14.705,47.927,37.463,58.253l4.316,1.958v-84.699H214.221z"/>
<g>
</g>
<g>
</g>
<g>
</g>
<g>
</g>
<g>
</g>
<g>
</g>
<g>
</g>
<g>
</g>
<g>
</g>
<g>
</g>
<g>
</g>
<g>
</g>
<g>
</g>
<g>
</g>
<g>
</g>
</svg>
