<?xml version="1.0" encoding="iso-8859-1"?>
<!-- Generator: Adobe Illustrator 19.0.0, SVG Export Plug-In . SVG Version: 6.00 Build 0)  -->
<svg version="1.1" id="Capa_1" xmlns="http://www.w3.org/2000/svg" xmlns:xlink="http://www.w3.org/1999/xlink" x="0px" y="0px"
	 viewBox="0 0 512 512" style="enable-background:new 0 0 512 512;" xml:space="preserve">
<circle style="fill:#3B8BC0;" cx="256" cy="256" r="256"/>
<path style="fill:#235C81;" d="M512,256c0-6.725-0.263-13.389-0.772-19.983L394.125,118.914l-276.25,278.684l113.19,113.19
	C239.271,511.582,247.586,512,256,512C397.385,512,512,397.385,512,256z"/>
<polygon style="fill:#FFE290;" points="394.125,118.914 256,118.914 223.627,257.039 256,395.164 394.125,395.164 "/>
<rect x="117.87" y="121.35" style="fill:#FFF5D9;" width="138.12" height="276.25"/>
<polygon style="fill:#FF9356;" points="144.853,205.518 144.853,245.984 242.511,245.984 242.511,205.518 193.682,189.332 "/>
<rect x="144.85" y="148.33" style="fill:#FFCE47;" width="97.66" height="57.19"/>
<polygon style="fill:#6FA953;" points="144.853,330.154 144.853,370.621 242.511,370.621 242.511,330.154 193.682,313.968 "/>
<rect x="144.85" y="272.96" style="fill:#85C250;" width="97.66" height="57.19"/>
<polygon style="fill:#235C81;" points="269.489,205.518 269.489,245.984 367.147,245.984 367.147,205.518 318.318,189.332 "/>
<rect x="269.49" y="148.33" style="fill:#6FA953;" width="97.66" height="57.19"/>
<polygon style="fill:#FF4181;" points="269.489,330.154 269.489,370.621 367.147,370.621 367.147,330.154 318.318,313.968 "/>
<rect x="269.49" y="272.96" style="fill:#FF755C;" width="97.66" height="57.19"/>
<g>
</g>
<g>
</g>
<g>
</g>
<g>
</g>
<g>
</g>
<g>
</g>
<g>
</g>
<g>
</g>
<g>
</g>
<g>
</g>
<g>
</g>
<g>
</g>
<g>
</g>
<g>
</g>
<g>
</g>
</svg>
