<?xml version="1.0" encoding="iso-8859-1"?>
<!-- Generator: Adobe Illustrator 19.0.0, SVG Export Plug-In . SVG Version: 6.00 Build 0)  -->
<svg version="1.1" id="Capa_1" xmlns="http://www.w3.org/2000/svg" xmlns:xlink="http://www.w3.org/1999/xlink" x="0px" y="0px"
	 viewBox="0 0 512 512" style="enable-background:new 0 0 512 512;" xml:space="preserve">
<circle style="fill:#FF4181;" cx="256" cy="256" r="256"/>
<path style="fill:#AD396B;" d="M501.508,328.707L331.402,158.6l-1-1l-17.703-7.643l-11.353,2.81l-27.642-27.625l-34.446,34.349
	l8.628,8.647v15.945l-3.043,1.346L217.005,157.6l-34.406,34.406l24.818,24.827l-24.818,40.643l55.315,55.331L117.5,394.5
	l116.554,116.554C241.289,511.668,248.605,512,256,512C372.125,512,470.174,434.673,501.508,328.707z"/>
<polygon style="fill:#4EB9FF;" points="309.728,185.389 301.613,171.333 264.115,192.982 264.115,149.684 250.59,149.684 
	250.59,264.393 264.115,264.393 264.115,221.094 301.613,242.743 309.728,228.687 272.23,207.038 "/>
<polygon style="fill:#7ACBFF;" points="247.885,149.684 247.885,192.982 210.387,171.333 202.272,185.389 239.77,207.038 
	202.272,228.687 210.387,242.743 247.885,221.094 247.885,264.393 256,264.393 256,149.684 "/>
<path style="fill:#174461;" d="M256,117.5l-10.82,24.346L256,166.191c13.446,0,24.346-10.9,24.346-24.346S269.446,117.5,256,117.5z"
	/>
<path style="fill:#2F73A0;" d="M231.654,141.846c0,13.446,10.9,24.346,24.346,24.346V117.5
	C242.554,117.5,231.654,128.4,231.654,141.846z"/>
<path style="fill:#092A40;" d="M256,182.692l-10.82,24.346L256,231.384c13.446,0,24.346-10.9,24.346-24.346
	S269.446,182.692,256,182.692z"/>
<g>
	<path style="fill:#174461;" d="M231.654,207.038c0,13.446,10.9,24.346,24.346,24.346v-48.691
		C242.554,182.692,231.654,193.592,231.654,207.038z"/>
	<path style="fill:#174461;" d="M256,248.162l-10.82,24.346L256,296.854c13.446,0,24.346-10.9,24.346-24.346
		S269.446,248.162,256,248.162z"/>
</g>
<path style="fill:#2F73A0;" d="M231.654,272.508c0,13.446,10.9,24.346,24.346,24.346v-48.691
	C242.554,248.162,231.654,259.062,231.654,272.508z"/>
<g>
	<circle style="fill:#174461;" cx="312.7" cy="239.77" r="24.346"/>
	<circle style="fill:#174461;" cx="312.7" cy="174.3" r="24.346"/>
</g>
<g>
	<circle style="fill:#2F73A0;" cx="199.3" cy="174.3" r="24.346"/>
	<circle style="fill:#2F73A0;" cx="199.3" cy="239.77" r="24.346"/>
</g>
<path style="fill:#4EB9FF;" d="M394.5,385.844c0-40.273-32.764-73.037-73.037-73.037l-97.924,32.461L256,394.5h138.5V385.844z"/>
<path style="fill:#7ACBFF;" d="M190.537,312.807c-40.273,0-73.037,32.764-73.037,73.037v8.656H256v-49.232L190.537,312.807z"/>
<path style="fill:#A3DBFF;" d="M256,312.807l-16.261,24.346L256,361.498c30.938,0,57.066-20.534,65.463-48.691L256,312.807
	L256,312.807z"/>
<path style="fill:#C7E9FF;" d="M190.537,312.807c8.397,28.157,34.525,48.691,65.463,48.691v-48.691H190.537z"/>
<g>
</g>
<g>
</g>
<g>
</g>
<g>
</g>
<g>
</g>
<g>
</g>
<g>
</g>
<g>
</g>
<g>
</g>
<g>
</g>
<g>
</g>
<g>
</g>
<g>
</g>
<g>
</g>
<g>
</g>
</svg>
