<?xml version="1.0" encoding="iso-8859-1"?>
<!-- Generator: Adobe Illustrator 19.0.0, SVG Export Plug-In . SVG Version: 6.00 Build 0)  -->
<svg version="1.1" id="Capa_1" xmlns="http://www.w3.org/2000/svg" xmlns:xlink="http://www.w3.org/1999/xlink" x="0px" y="0px"
	 viewBox="0 0 512 512" style="enable-background:new 0 0 512 512;" xml:space="preserve">
<circle style="fill:#FFB14E;" cx="256" cy="256" r="256"/>
<path style="fill:#FF755C;" d="M512,256c0-7.112-0.304-14.152-0.873-21.117l-112.55-112.55L113.422,389.667l121.461,121.461
	C241.848,511.696,248.888,512,256,512C397.385,512,512,397.385,512,256z"/>
<polygon style="fill:#9DA6AC;" points="222.583,139.042 256,389.667 398.578,389.667 398.578,172.458 "/>
<polygon style="fill:#BFBFBF;" points="113.422,172.458 113.422,389.667 256,389.667 256,139.042 "/>
<polygon style="fill:#FF4181;" points="348.453,122.333 323.39,151.573 348.453,172.458 398.578,172.458 398.578,122.333 "/>
<polygon style="fill:#092A40;" points="348.453,172.458 348.453,122.333 256,122.333 239.292,151.573 256,172.458 "/>
<rect x="113.42" y="122.33" style="fill:#235C81;" width="142.58" height="50.12"/>
<polygon style="fill:#FFF5D9;" points="256,189.167 222.583,285.24 256,372.958 381.869,372.958 381.869,189.167 "/>
<rect x="130.13" y="189.17" style="fill:#FFFFFF;" width="125.87" height="183.79"/>
<polygon style="fill:#45A2E0;" points="146.839,314.479 146.839,356.25 256,356.25 256,314.479 201.419,297.771 "/>
<rect x="146.84" y="205.87" style="fill:#FFE290;" width="109.16" height="108.6"/>
<g>
	<rect x="281.06" y="205.87" style="fill:#235C81;" width="84.1" height="16.708"/>
	<rect x="281.06" y="239.29" style="fill:#235C81;" width="84.1" height="16.708"/>
	<rect x="281.06" y="339.54" style="fill:#235C81;" width="84.1" height="16.708"/>
	<rect x="281.06" y="272.71" style="fill:#235C81;" width="84.1" height="16.708"/>
</g>
<circle style="fill:#FFB14E;" cx="201.42" cy="264.35" r="25.06"/>
<g>
</g>
<g>
</g>
<g>
</g>
<g>
</g>
<g>
</g>
<g>
</g>
<g>
</g>
<g>
</g>
<g>
</g>
<g>
</g>
<g>
</g>
<g>
</g>
<g>
</g>
<g>
</g>
<g>
</g>
</svg>
