<?xml version="1.0" encoding="iso-8859-1"?>
<!-- Generator: Adobe Illustrator 19.0.0, SVG Export Plug-In . SVG Version: 6.00 Build 0)  -->
<svg version="1.1" id="Capa_1" xmlns="http://www.w3.org/2000/svg" xmlns:xlink="http://www.w3.org/1999/xlink" x="0px" y="0px"
	 viewBox="0 0 512 512" style="enable-background:new 0 0 512 512;" xml:space="preserve">
<circle style="fill:#FF4181;" cx="256" cy="256" r="256"/>
<path style="fill:#AD396B;" d="M512,256c0-7.769-0.366-15.451-1.044-23.044L395,117l-130.855,54.682l-34.986-34.985L149.035,395
	l116.794,116.794C402.656,506.626,512,394.092,512,256z"/>
<polygon style="fill:#FFCE47;" points="264.145,117 264.145,324.53 308.241,280.434 395,280.434 395,117 "/>
<polygon style="fill:#092A40;" points="182.428,395 215.821,395 224.068,272.247 166.139,255.958 "/>
<polygon style="fill:#235C81;" points="140.787,272.247 149.035,395 182.428,395 182.428,255.958 "/>
<polygon style="fill:#5A7587;" points="182.428,272.247 224.068,272.247 226.877,230.438 166.139,214.149 "/>
<g>
	<polygon style="fill:#7C8E99;" points="182.428,214.149 137.978,230.438 140.787,272.247 182.428,272.247 	"/>
	<path style="fill:#7C8E99;" d="M166.139,166.139l16.289,64.299h44.45c13.375-12.377,20.978-29.679,20.978-48.01L166.139,166.139z"
		/>
</g>
<g>
	<path style="fill:#9DA6AC;" d="M182.428,166.139L117,182.428c0,18.332,7.603,35.633,20.978,48.01h44.45V166.139z"/>
	<path style="fill:#9DA6AC;" d="M247.855,182.428c0-36.077-29.351-65.428-65.428-65.428l-16.289,32.714l16.289,32.714H247.855z"/>
</g>
<path style="fill:#BFBFBF;" d="M182.428,117C146.351,117,117,146.351,117,182.428h65.428L182.428,117L182.428,117z"/>
<g>
</g>
<g>
</g>
<g>
</g>
<g>
</g>
<g>
</g>
<g>
</g>
<g>
</g>
<g>
</g>
<g>
</g>
<g>
</g>
<g>
</g>
<g>
</g>
<g>
</g>
<g>
</g>
<g>
</g>
</svg>
