<?xml version="1.0" encoding="iso-8859-1"?>
<!-- Generator: Adobe Illustrator 19.0.0, SVG Export Plug-In . SVG Version: 6.00 Build 0)  -->
<svg version="1.1" id="Capa_1" xmlns="http://www.w3.org/2000/svg" xmlns:xlink="http://www.w3.org/1999/xlink" x="0px" y="0px"
	 viewBox="0 0 512 512" style="enable-background:new 0 0 512 512;" xml:space="preserve">
<circle style="fill:#7ACBFF;" cx="256" cy="256" r="256"/>
<path style="fill:#45A2E0;" d="M512,256c0-6.023-0.224-11.992-0.633-17.911c-57.252-56.836-128.59-127.938-136.92-137.589
	L128.441,301.658l9.111,9l10.114,55.872l-10.114,44.97l99.821,99.821C243.526,511.764,249.735,512,256,512
	C397.385,512,512,397.385,512,256z"/>
<g>
	<polygon style="fill:#D63D76;" points="196.776,100.5 137.553,100.5 137.553,146.36 234.74,164.583 	"/>
	<polygon style="fill:#D63D76;" points="137.553,365.64 137.553,411.5 196.776,411.5 234.74,347.417 	"/>
</g>
<rect x="137.55" y="146.36" style="fill:#FF4181;" width="97.19" height="219.28"/>
<g>
	<polygon style="fill:#AD396B;" points="315.224,411.5 374.447,411.5 374.447,365.64 277.26,347.417 	"/>
	<polygon style="fill:#AD396B;" points="374.447,146.36 374.447,100.5 315.224,100.5 277.26,164.583 	"/>
</g>
<g>
	<rect x="297" y="146.36" style="fill:#D63D76;" width="77.45" height="219.28"/>
	<polygon style="fill:#D63D76;" points="256,411.5 315.224,411.5 315.224,365.64 237.777,347.417 	"/>
	<polygon style="fill:#D63D76;" points="256,100.5 237.777,164.583 315.224,146.36 315.224,100.5 	"/>
</g>
<g>
	<rect x="237.78" y="146.36" style="fill:#FF4181;" width="77.45" height="219.28"/>
	<polygon style="fill:#FF4181;" points="256,100.5 196.776,100.5 196.776,146.36 226.388,164.583 256,146.36 	"/>
	<polygon style="fill:#FF4181;" points="196.776,365.64 196.776,411.5 256,411.5 256,365.64 226.388,347.417 	"/>
</g>
<rect x="196.78" y="146.36" style="fill:#FF755C;" width="59.22" height="219.28"/>
<rect x="128.44" y="210.34" style="fill:#FFD86C;" width="127.56" height="91.32"/>
<rect x="256" y="210.34" style="fill:#FFCE47;" width="127.56" height="91.32"/>
<path style="fill:#092A40;" d="M256,173.998L225.629,256L256,338.002c45.289,0,82.002-36.713,82.002-82.002
	S301.289,173.998,256,173.998z"/>
<path style="fill:#235C81;" d="M173.998,256c0,45.289,36.713,82.002,82.002,82.002V173.998
	C210.712,173.998,173.998,210.711,173.998,256z"/>
<path style="fill:#C7E9FF;" d="M256,192.221L232.378,256L256,319.779c35.224,0,63.779-28.555,63.779-63.779
	S291.224,192.221,256,192.221z"/>
<path style="fill:#FFFFFF;" d="M192.221,256c0,35.224,28.555,63.779,63.779,63.779V192.221
	C220.776,192.221,192.221,220.776,192.221,256z"/>
<polygon style="fill:#235C81;" points="301.557,246.889 252.963,246.889 265.111,265.111 301.557,265.111 "/>
<polygon style="fill:#092A40;" points="265.111,210.443 256,210.443 252.963,222.592 252.963,249.926 256,265.111 265.111,265.111 
	"/>
<rect x="246.89" y="210.44" style="fill:#235C81;" width="9.111" height="54.668"/>
<g>
</g>
<g>
</g>
<g>
</g>
<g>
</g>
<g>
</g>
<g>
</g>
<g>
</g>
<g>
</g>
<g>
</g>
<g>
</g>
<g>
</g>
<g>
</g>
<g>
</g>
<g>
</g>
<g>
</g>
</svg>
