<?xml version="1.0" encoding="iso-8859-1"?>
<!-- Generator: Adobe Illustrator 19.0.0, SVG Export Plug-In . SVG Version: 6.00 Build 0)  -->
<svg version="1.1" id="Capa_1" xmlns="http://www.w3.org/2000/svg" xmlns:xlink="http://www.w3.org/1999/xlink" x="0px" y="0px"
	 viewBox="0 0 512 512" style="enable-background:new 0 0 512 512;" xml:space="preserve">
<circle style="fill:#A7CB5C;" cx="256" cy="256" r="256"/>
<path style="fill:#6FA953;" d="M510.752,281.34L345.912,116.5L217.729,229.449L117.045,395.5l115.412,115.412
	C240.212,511.619,248.061,512,256,512C388.833,512,498.027,410.829,510.752,281.34z"/>
<rect x="280.52" y="312.67" style="fill:#092A40;" width="65.39" height="50.13"/>
<rect x="201.51" y="288.15" style="fill:#7C8E99;" width="54.49" height="66.48"/>
<g>
	<path style="fill:#7ACBFF;" d="M394.955,387.326c0-22.535-18.334-40.869-40.869-40.869H256l-16.348,24.521L256,395.5h138.955
		L394.955,387.326L394.955,387.326z"/>
	<polygon style="fill:#7ACBFF;" points="296.869,165.543 256,165.543 228.754,194.151 256,222.76 296.869,222.76 	"/>
</g>
<path style="fill:#A3DBFF;" d="M231.479,165.543c-40.564,0-73.564,33.001-73.564,73.564v49.043h-40.869V395.5H256v-49.043h-40.869
	v-107.35c0-9.014,7.334-16.348,16.348-16.348H256v-57.217L231.479,165.543L231.479,165.543z"/>
<polygon style="fill:#092A40;" points="280.521,214.586 280.521,255.455 345.912,255.455 345.912,214.586 313.217,198.238 "/>
<rect x="280.52" y="116.5" style="fill:#235C81;" width="65.39" height="98.09"/>
<polygon style="fill:#092A40;" points="362.26,279.977 256,279.977 245.102,288.15 256,296.324 362.26,296.324 "/>
<rect x="206.96" y="279.98" style="fill:#235C81;" width="49.04" height="16.348"/>
<circle style="fill:#092A40;" cx="166.09" cy="288.15" r="49.04"/>
<circle style="fill:#FFFFFF;" cx="166.09" cy="288.15" r="32.695"/>
<g>
</g>
<g>
</g>
<g>
</g>
<g>
</g>
<g>
</g>
<g>
</g>
<g>
</g>
<g>
</g>
<g>
</g>
<g>
</g>
<g>
</g>
<g>
</g>
<g>
</g>
<g>
</g>
<g>
</g>
</svg>
