<?xml version="1.0" encoding="iso-8859-1"?>
<!-- Generator: Adobe Illustrator 19.0.0, SVG Export Plug-In . SVG Version: 6.00 Build 0)  -->
<svg version="1.1" id="Capa_1" xmlns="http://www.w3.org/2000/svg" xmlns:xlink="http://www.w3.org/1999/xlink" x="0px" y="0px"
	 viewBox="0 0 512 512" style="enable-background:new 0 0 512 512;" xml:space="preserve">
<circle style="fill:#FFE290;" cx="256" cy="256" r="256"/>
<path style="fill:#FFCE47;" d="M512,256c0-7.207-0.313-14.34-0.897-21.396L385.644,109.145l-65.31,44.681l-44.697-44.681
	l-47.102,62.58l-62.602-62.58l-65.31,155.959l17,17h1v1h0.208l8.52,120.75l107.248,107.248C241.658,511.687,248.792,512,256,512
	C397.385,512,512,397.385,512,256z"/>
<path style="fill:#FFD86C;" d="M512,256c0-7.207-0.313-14.34-0.897-21.396L385.644,109.145l-65.31,44.681l-44.697-44.681
	l-47.102,62.58l-62.602-62.58l-65.31,155.959l17,17h1v1h0.208l8.52,120.75l107.248,107.248C241.658,511.687,248.792,512,256,512
	C397.385,512,512,397.385,512,256z"/>
<path style="fill:#9DA6AC;" d="M256,100.629L237.792,256L256,411.371c14.99-0.082,27.16-12.299,27.16-27.308V127.937
	C283.16,112.928,270.99,100.711,256,100.629z"/>
<path style="fill:#BFBFBF;" d="M255.848,100.625c-15.06,0-27.312,12.252-27.312,27.312v256.126c0,15.06,12.252,27.312,27.312,27.312
	c0.051,0,0.101-0.004,0.152-0.004V100.629C255.949,100.629,255.899,100.625,255.848,100.625z"/>
<polygon style="fill:#174461;" points="301.368,310.927 237.792,286.65 256,374.959 301.368,374.959 "/>
<g>
	<polygon style="fill:#235C81;" points="210.328,310.927 210.328,374.959 256,374.959 256,286.65 	"/>
	<polygon style="fill:#235C81;" points="301.368,246.896 256,246.896 237.792,278.912 256,310.927 301.368,310.927 	"/>
</g>
<rect x="210.33" y="246.9" style="fill:#2F73A0;" width="45.672" height="64.03"/>
<path style="fill:#9DA6AC;" d="M366.007,411.371L347.799,256l18.208-155.371c14.99,0.082,27.16,12.299,27.16,27.308v256.126
	C393.167,399.072,380.997,411.289,366.007,411.371z"/>
<path style="fill:#BFBFBF;" d="M365.855,411.375c-15.06,0-27.312-12.252-27.312-27.312V127.937c0-15.06,12.252-27.312,27.312-27.312
	c0.051,0,0.101,0.004,0.152,0.004v310.742C365.956,411.371,365.906,411.375,365.855,411.375z"/>
<polygon style="fill:#235C81;" points="411.375,201.073 347.799,225.35 366.007,137.041 411.375,137.041 "/>
<polygon style="fill:#2F73A0;" points="320.335,201.073 320.335,137.041 366.007,137.041 366.007,225.35 "/>
<polygon style="fill:#174461;" points="411.375,265.104 366.007,265.104 347.799,233.088 366.007,201.073 411.375,201.073 "/>
<rect x="320.33" y="201.07" style="fill:#235C81;" width="45.672" height="64.03"/>
<path style="fill:#9DA6AC;" d="M146.297,411.371L128.089,256l18.208-155.371c14.99,0.082,27.16,12.299,27.16,27.308v256.126
	C173.457,399.072,161.287,411.289,146.297,411.371z"/>
<path style="fill:#BFBFBF;" d="M146.145,411.375c-15.06,0-27.312-12.252-27.312-27.312V127.937c0-15.06,12.252-27.312,27.312-27.312
	c0.051,0,0.101,0.004,0.152,0.004v310.742C146.246,411.371,146.196,411.375,146.145,411.375z"/>
<polygon style="fill:#235C81;" points="191.665,201.073 128.089,225.35 146.297,137.041 191.665,137.041 "/>
<polygon style="fill:#2F73A0;" points="100.625,201.073 100.625,137.041 146.297,137.041 146.297,225.35 "/>
<polygon style="fill:#174461;" points="191.665,265.104 146.297,265.104 128.089,233.088 146.297,201.073 191.665,201.073 "/>
<rect x="100.62" y="201.07" style="fill:#235C81;" width="45.672" height="64.03"/>
<g>
</g>
<g>
</g>
<g>
</g>
<g>
</g>
<g>
</g>
<g>
</g>
<g>
</g>
<g>
</g>
<g>
</g>
<g>
</g>
<g>
</g>
<g>
</g>
<g>
</g>
<g>
</g>
<g>
</g>
</svg>
