<?xml version="1.0" encoding="iso-8859-1"?>
<!-- Generator: Adobe Illustrator 19.0.0, SVG Export Plug-In . SVG Version: 6.00 Build 0)  -->
<svg version="1.1" id="Capa_1" xmlns="http://www.w3.org/2000/svg" xmlns:xlink="http://www.w3.org/1999/xlink" x="0px" y="0px"
	 viewBox="0 0 512 512" style="enable-background:new 0 0 512 512;" xml:space="preserve">
<circle style="fill:#7ACBFF;" cx="256" cy="256" r="256"/>
<path style="fill:#45A2E0;" d="M512,256c0-1.615-0.031-3.223-0.061-4.831L378.27,117.5L125.151,387.849l124.06,124.06
	C251.467,511.968,253.73,512,256,512C397.385,512,512,397.385,512,256z"/>
<polygon style="fill:#FF755C;" points="378.27,174.307 378.27,117.5 247.885,117.5 231.654,190.537 "/>
<polygon style="fill:#FF9356;" points="247.885,117.5 117.5,117.5 117.5,174.307 247.885,190.537 "/>
<polygon style="fill:#FFB14E;" points="247.885,174.307 188.373,370.154 378.27,370.154 378.27,174.307 "/>
<rect x="117.5" y="174.31" style="fill:#FFCE47;" width="130.38" height="195.85"/>
<polygon style="fill:#3A2F4D;" points="312.807,288.461 247.885,288.461 237.064,296.576 247.885,304.691 312.807,304.691 "/>
<rect x="182.96" y="288.46" style="fill:#5B3256;" width="64.922" height="16.23"/>
<polygon style="fill:#3A2F4D;" points="312.807,256 247.885,256 237.064,264.115 247.885,272.23 312.807,272.23 "/>
<rect x="182.96" y="256" style="fill:#5B3256;" width="64.922" height="16.23"/>
<polygon style="fill:#3A2F4D;" points="312.807,223.539 247.885,223.539 237.064,231.654 247.885,239.77 312.807,239.77 "/>
<rect x="182.96" y="223.54" style="fill:#5B3256;" width="64.922" height="16.23"/>
<path style="fill:#FF755C;" d="M268.173,345.809l-16.23,24.346l16.23,24.346h101.981c13.424,0,24.346-10.921,24.346-24.346v-24.346
	H268.173z"/>
<polygon style="fill:#FF9356;" points="166.191,345.809 141.846,394.5 268.173,394.5 268.173,345.809 "/>
<path style="fill:#FFCE47;" d="M117.5,345.809v24.346c0,13.424,10.921,24.346,24.346,24.346s24.346-10.921,24.346-24.346v-24.346
	H117.5z"/>
<g>
</g>
<g>
</g>
<g>
</g>
<g>
</g>
<g>
</g>
<g>
</g>
<g>
</g>
<g>
</g>
<g>
</g>
<g>
</g>
<g>
</g>
<g>
</g>
<g>
</g>
<g>
</g>
<g>
</g>
</svg>
