<?xml version="1.0" encoding="iso-8859-1"?>
<!-- Generator: Adobe Illustrator 19.0.0, SVG Export Plug-In . SVG Version: 6.00 Build 0)  -->
<svg version="1.1" id="Capa_1" xmlns="http://www.w3.org/2000/svg" xmlns:xlink="http://www.w3.org/1999/xlink" x="0px" y="0px"
	 viewBox="0 0 512 512" style="enable-background:new 0 0 512 512;" xml:space="preserve">
<circle style="fill:#A7CB5C;" cx="256" cy="256" r="256"/>
<path style="fill:#6FA953;" d="M512,256c0-7.74-0.364-15.393-1.036-22.958c-56.251-56.162-116.538-115.468-116.538-115.468
	L117.574,394.426l116.642,116.643C241.399,511.674,248.661,512,256,512C397.385,512,512,397.385,512,256z"/>
<polygon style="fill:#FFE290;" points="304.665,329.539 394.426,329.539 394.426,117.574 304.665,117.574 283.036,223.556 "/>
<rect x="214.91" y="117.57" style="fill:#FFF5D9;" width="89.76" height="211.96"/>
<polygon style="fill:#3B8BC0;" points="378.204,240.319 378.204,133.796 304.665,133.796 288.444,272.762 "/>
<polygon style="fill:#45A2E0;" points="304.665,133.796 231.127,133.796 231.127,240.319 304.665,272.762 "/>
<polygon style="fill:#85C250;" points="304.665,240.319 288.444,256.541 304.665,272.762 378.204,272.762 378.204,240.319 "/>
<rect x="231.13" y="240.32" style="fill:#6FA953;" width="73.54" height="32.444"/>
<polygon style="fill:#FFD86C;" points="256,361.982 345.76,361.982 345.76,150.018 256,150.018 234.371,256 "/>
<rect x="166.24" y="150.02" style="fill:#FFE290;" width="89.76" height="211.96"/>
<polygon style="fill:#2F73A0;" points="329.539,272.762 329.539,166.24 256,166.24 239.778,305.206 "/>
<polygon style="fill:#45A2E0;" points="256,166.24 182.461,166.24 182.461,272.762 256,305.206 "/>
<g>
	<polygon style="fill:#6FA953;" points="256,272.762 239.778,288.984 256,305.206 329.539,305.206 329.539,272.762 	"/>
	<rect x="182.46" y="272.76" style="fill:#6FA953;" width="73.54" height="32.444"/>
</g>
<polygon style="fill:#FFE290;" points="207.335,394.426 297.095,394.426 297.095,182.461 207.335,182.461 185.706,288.444 "/>
<rect x="117.57" y="182.46" style="fill:#FFF5D9;" width="89.76" height="211.96"/>
<polygon style="fill:#3B8BC0;" points="280.873,305.206 280.873,198.683 207.335,198.683 191.113,337.65 "/>
<polygon style="fill:#45A2E0;" points="207.335,198.683 133.796,198.683 133.796,305.206 207.335,337.65 "/>
<rect x="166.78" y="261.95" style="fill:#FFFFFF;" width="16.222" height="59.48"/>
<rect x="231.67" y="261.95" style="fill:#FFF5D9;" width="16.222" height="59.48"/>
<path style="fill:#A7CB5C;" d="M174.891,214.905c-13.417,0-24.333,10.915-24.333,24.333v22.71c0,13.417,10.915,24.333,24.333,24.333
	s24.333-10.915,24.333-24.333v-22.71C199.224,225.82,188.308,214.905,174.891,214.905z"/>
<g>
	<path style="fill:#85C250;" d="M239.778,214.905c-13.417,0-24.333,10.915-24.333,24.333v22.71
		c0,13.417,10.915,24.333,24.333,24.333s24.333-10.915,24.333-24.333v-22.71C264.111,225.82,253.196,214.905,239.778,214.905z"/>
	<polygon style="fill:#85C250;" points="207.335,305.206 191.113,321.428 207.335,337.65 280.873,337.65 280.873,305.206 	"/>
</g>
<rect x="133.8" y="305.21" style="fill:#A7CB5C;" width="73.54" height="32.444"/>
<g>
</g>
<g>
</g>
<g>
</g>
<g>
</g>
<g>
</g>
<g>
</g>
<g>
</g>
<g>
</g>
<g>
</g>
<g>
</g>
<g>
</g>
<g>
</g>
<g>
</g>
<g>
</g>
<g>
</g>
</svg>
