<?xml version="1.0" encoding="iso-8859-1"?>
<!-- Generator: Adobe Illustrator 19.0.0, SVG Export Plug-In . SVG Version: 6.00 Build 0)  -->
<svg version="1.1" id="Capa_1" xmlns="http://www.w3.org/2000/svg" xmlns:xlink="http://www.w3.org/1999/xlink" x="0px" y="0px"
	 viewBox="0 0 512 512" style="enable-background:new 0 0 512 512;" xml:space="preserve">
<circle style="fill:#FF4181;" cx="256" cy="256" r="256"/>
<path style="fill:#AD396B;" d="M512,256c0-3.943-0.103-7.862-0.28-11.762l-141.1-141.101L123.08,371.263l26.77,26.78v22.65
	l90.838,90.838C245.755,511.83,250.858,512,256,512C397.385,512,512,397.385,512,256z"/>
<path style="fill:#FFE290;" d="M381.45,226.407v-96.5c0-21.284-17.316-38.6-38.6-38.6H256l-38.6,173.7L381.45,226.407z"/>
<polygon style="fill:#FFD86C;" points="294.6,226.407 294.6,313.257 400.75,274.657 381.45,226.407 "/>
<path style="fill:#FFF5D9;" d="M256,265.007v-173.7h-86.85c-21.284,0-38.6,17.316-38.6,38.6v96.5L256,265.007z"/>
<polygon style="fill:#FFE290;" points="217.4,226.407 130.55,226.407 111.25,274.657 217.4,313.257 "/>
<polygon style="fill:#FF4181;" points="236.7,313.257 313.9,313.257 294.6,226.407 256,226.407 "/>
<polygon style="fill:#45A2E0;" points="217.4,226.407 198.1,313.257 256,313.257 256,226.407 "/>
<path style="fill:#092A40;" d="M256,91.307l-25.733,67.55L256,226.407c37.307,0,67.55-30.243,67.55-67.55S293.307,91.307,256,91.307
	z"/>
<path style="fill:#174461;" d="M188.45,158.857c0,37.307,30.243,67.55,67.55,67.55v-135.1
	C218.693,91.307,188.45,121.55,188.45,158.857z"/>
<path style="fill:#A3DBFF;" d="M256,125.082l-12.867,33.775L256,192.632c18.653,0,33.775-15.122,33.775-33.775
	C289.775,140.203,274.653,125.082,256,125.082z"/>
<path style="fill:#FFFFFF;" d="M222.225,158.857c0,18.653,15.122,33.775,33.775,33.775v-67.55
	C237.347,125.082,222.225,140.203,222.225,158.857z"/>
<path style="fill:#092A40;" d="M256,274.657l-38.6,107.437h144.75c21.284,0,38.6-17.316,38.6-38.6v-68.837L256,274.657L256,274.657z
	"/>
<path style="fill:#235C81;" d="M111.25,274.657v68.837c0,21.284,17.316,38.6,38.6,38.6H256V274.657H111.25z"/>
<polygon style="fill:#FFCE47;" points="362.15,303.607 256,303.607 217.4,362.15 256,420.693 362.15,420.693 "/>
<rect x="149.85" y="303.61" style="fill:#FFD86C;" width="106.15" height="117.09"/>
<g>
</g>
<g>
</g>
<g>
</g>
<g>
</g>
<g>
</g>
<g>
</g>
<g>
</g>
<g>
</g>
<g>
</g>
<g>
</g>
<g>
</g>
<g>
</g>
<g>
</g>
<g>
</g>
<g>
</g>
</svg>
