<?xml version="1.0" encoding="iso-8859-1"?>
<!-- Generator: Adobe Illustrator 19.0.0, SVG Export Plug-In . SVG Version: 6.00 Build 0)  -->
<svg version="1.1" id="Capa_1" xmlns="http://www.w3.org/2000/svg" xmlns:xlink="http://www.w3.org/1999/xlink" x="0px" y="0px"
	 viewBox="0 0 512 512" style="enable-background:new 0 0 512 512;" xml:space="preserve">
<circle style="fill:#7ACBFF;" cx="256" cy="256" r="256"/>
<path style="fill:#45A2E0;" d="M512,256c0-3.945-0.103-7.866-0.28-11.768l-85.981-85.808v-0.423L86.261,353.999l1,0.577
	l156.822,157.139c3.95,0.181,7.921,0.285,11.917,0.285C397.385,512,512,397.385,512,256z"/>
<rect x="86.26" y="158" style="fill:#FFCE47;" width="169.74" height="196"/>
<rect x="256" y="158" style="fill:#FFB14E;" width="169.74" height="196"/>
<polygon style="fill:#FF755C;" points="256,255.997 225.375,353.999 256,452 425.739,353.999 "/>
<polygon style="fill:#FF9356;" points="86.261,353.999 256,452 256,255.997 "/>
<polygon style="fill:#FFCE47;" points="256,60 225.375,158.001 256,256.003 425.739,158.001 "/>
<polygon style="fill:#FFE290;" points="86.261,158.001 256,256.003 256,60 "/>
<rect x="178.14" y="211.05" style="fill:#FFA0C0;" width="77.864" height="89.91"/>
<rect x="256" y="211.05" style="fill:#FF755C;" width="77.864" height="89.91"/>
<polygon style="fill:#FF4181;" points="256,255.997 241.951,300.953 256,345.909 333.864,300.953 "/>
<polygon style="fill:#FF755C;" points="178.136,300.953 256,345.909 256,255.997 "/>
<polygon style="fill:#FFA0C0;" points="256,166.091 241.951,211.047 256,256.003 333.864,211.047 "/>
<polygon style="fill:#FFC0D5;" points="178.136,211.047 256,256.003 256,166.091 "/>
<g>
</g>
<g>
</g>
<g>
</g>
<g>
</g>
<g>
</g>
<g>
</g>
<g>
</g>
<g>
</g>
<g>
</g>
<g>
</g>
<g>
</g>
<g>
</g>
<g>
</g>
<g>
</g>
<g>
</g>
</svg>
