<?xml version="1.0" encoding="iso-8859-1"?>
<!-- Generator: Adobe Illustrator 19.0.0, SVG Export Plug-In . SVG Version: 6.00 Build 0)  -->
<svg version="1.1" id="Capa_1" xmlns="http://www.w3.org/2000/svg" xmlns:xlink="http://www.w3.org/1999/xlink" x="0px" y="0px"
	 viewBox="0 0 512 512" style="enable-background:new 0 0 512 512;" xml:space="preserve">
<circle style="fill:#7ACBFF;" cx="256" cy="256" r="256"/>
<path style="fill:#45A2E0;" d="M512,256c0-7.505-0.342-14.928-0.975-22.269L380.961,103.667l-17.852,27.372L256,184.594
	l-80.109-53.555l-27-27.372l-17.852,27.372l-27.372,17.852l27.372,27L220.297,256l-89.258,107.109l-27.372,17.852l130.064,130.064
	C241.072,511.658,248.495,512,256,512C397.385,512,512,397.385,512,256z"/>
<polygon style="fill:#092A40;" points="408.333,148.891 408.333,131.039 380.961,131.039 380.961,103.667 363.109,103.667 
	363.109,131.039 256,131.039 193.52,256 256,380.961 363.109,380.961 363.109,408.333 380.961,408.333 380.961,380.961 
	408.333,380.961 408.333,363.109 380.961,363.109 380.961,148.891 "/>
<polygon style="fill:#235C81;" points="148.891,131.039 148.891,103.667 131.039,103.667 131.039,131.039 103.667,131.039 
	103.667,148.891 131.039,148.891 131.039,363.109 103.667,363.109 103.667,380.961 131.039,380.961 131.039,408.333 
	148.891,408.333 148.891,380.961 256,380.961 256,131.039 "/>
<path style="fill:#45A2E0;" d="M363.109,184.594l-35.703-35.703h-35.703L184.594,256L256,363.109h35.703l17.852-19.225
	l17.852,19.225h35.703v-35.703l-17.852-17.852l17.852-17.852V256l-17.852-17.852l17.852-17.852L363.109,184.594L363.109,184.594z"/>
<g>
	<rect x="327.41" y="148.89" style="fill:#2F73A0;" width="35.703" height="35.703"/>
	<rect x="327.41" y="291.7" style="fill:#2F73A0;" width="35.703" height="35.703"/>
	<rect x="327.41" y="220.3" style="fill:#2F73A0;" width="35.703" height="35.703"/>
	<rect x="291.7" y="327.41" style="fill:#2F73A0;" width="35.703" height="35.703"/>
	<rect x="291.7" y="256" style="fill:#2F73A0;" width="35.703" height="35.703"/>
	<rect x="291.7" y="184.59" style="fill:#2F73A0;" width="35.703" height="35.703"/>
	<rect x="220.3" y="291.7" style="fill:#2F73A0;" width="71.41" height="35.703"/>
	<rect x="220.3" y="220.3" style="fill:#2F73A0;" width="71.41" height="35.703"/>
	<polygon style="fill:#2F73A0;" points="291.703,148.891 291.703,184.594 220.297,184.594 256,148.891 	"/>
</g>
<path style="fill:#4EB9FF;" d="M256,148.891h-35.703l-17.852,19.225l-17.852-19.225H148.89v35.703l17.852,17.852l-17.852,17.852V256
	l17.852,17.852l-17.852,17.852v35.703l35.703,35.703h35.703L256,327.406v-35.703l-17.852-17.852L256,256v-35.703l-17.852-17.852
	L256,184.594V148.891z"/>
<g>
	<rect x="148.89" y="327.41" style="fill:#3B8BC0;" width="35.703" height="35.703"/>
	<rect x="148.89" y="256" style="fill:#3B8BC0;" width="35.703" height="35.703"/>
	<rect x="148.89" y="184.59" style="fill:#3B8BC0;" width="35.703" height="35.703"/>
	<rect x="184.59" y="148.89" style="fill:#3B8BC0;" width="35.703" height="35.703"/>
	<rect x="184.59" y="220.3" style="fill:#3B8BC0;" width="35.703" height="35.703"/>
	<rect x="184.59" y="291.7" style="fill:#3B8BC0;" width="35.703" height="35.703"/>
	<rect x="220.3" y="327.41" style="fill:#3B8BC0;" width="35.703" height="35.703"/>
	<rect x="220.3" y="256" style="fill:#3B8BC0;" width="35.703" height="35.703"/>
	<rect x="220.3" y="184.59" style="fill:#3B8BC0;" width="35.703" height="35.703"/>
</g>
<g>
</g>
<g>
</g>
<g>
</g>
<g>
</g>
<g>
</g>
<g>
</g>
<g>
</g>
<g>
</g>
<g>
</g>
<g>
</g>
<g>
</g>
<g>
</g>
<g>
</g>
<g>
</g>
<g>
</g>
</svg>
