<?xml version="1.0" encoding="iso-8859-1"?>
<!-- Generator: Adobe Illustrator 19.0.0, SVG Export Plug-In . SVG Version: 6.00 Build 0)  -->
<svg version="1.1" id="Capa_1" xmlns="http://www.w3.org/2000/svg" xmlns:xlink="http://www.w3.org/1999/xlink" x="0px" y="0px"
	 viewBox="0 0 512 512" style="enable-background:new 0 0 512 512;" xml:space="preserve">
<circle style="fill:#A7CB5C;" cx="256" cy="256" r="256"/>
<path style="fill:#6FA953;" d="M496.627,343.565L326.336,173.274l-94.069-43.024l-12.038-13L117.25,394.75l116.255,116.255
	C240.919,511.651,248.418,512,256,512C366.627,512,460.86,441.826,496.627,343.565z"/>
<polygon style="fill:#235C81;" points="291.952,343.261 270.272,291.771 212.098,291.771 220.229,394.75 270.272,394.75 "/>
<polygon style="fill:#174461;" points="358.256,343.261 336.576,291.771 270.272,291.771 270.272,394.75 336.576,394.75 "/>
<rect x="336.58" y="291.77" style="fill:#092A40;" width="58.17" height="102.98"/>
<polygon style="fill:#FFF5D9;" points="225.065,310.741 180.545,276.99 136.875,302.203 188.364,391.385 232.034,366.172 "/>
<polygon style="fill:#AD396B;" points="275.445,281.654 230.925,247.903 180.545,276.99 232.034,366.172 282.414,337.085 "/>
<polygon style="fill:#5B3256;" points="332.866,248.502 288.346,214.751 230.925,247.903 282.414,337.085 339.835,303.933 "/>
<rect x="287.799" y="215.7" transform="matrix(-0.5 -0.866 0.866 -0.5 296.9474 661.0082)" style="fill:#3A2F4D;" width="102.978" height="58.169"/>
<polygon style="fill:#FFF5D9;" points="201.259,286.935 145.828,279.966 120.615,323.636 209.797,375.125 235.01,331.455 "/>
<polygon style="fill:#FF755C;" points="230.346,236.555 174.915,229.586 145.828,279.966 235.01,331.455 264.097,281.075 "/>
<polygon style="fill:#FF4181;" points="263.498,179.134 208.067,172.165 174.915,229.586 264.097,281.075 297.249,223.654 "/>
<rect x="215.709" y="143.627" transform="matrix(-0.866 -0.5 0.5 -0.866 412.2385 455.8842)" style="fill:#D63D76;" width="102.978" height="58.169"/>
<polygon style="fill:#FFE290;" points="152.479,278.222 168.739,394.75 220.229,394.75 220.229,299.901 "/>
<polygon style="fill:#FFF5D9;" points="117.25,299.901 117.25,394.75 168.739,394.75 168.739,278.222 "/>
<polygon style="fill:#FFB14E;" points="220.229,241.728 152.479,220.048 168.739,299.901 220.229,299.901 "/>
<polygon style="fill:#FFCE47;" points="117.25,241.728 117.25,299.901 168.739,299.901 168.739,220.048 "/>
<polygon style="fill:#FF9356;" points="220.229,175.424 152.479,153.744 168.739,241.728 220.229,241.728 "/>
<polygon style="fill:#FFB14E;" points="117.25,175.424 117.25,241.728 168.739,241.728 168.739,153.744 "/>
<polygon style="fill:#FF755C;" points="168.739,117.25 152.479,146.337 168.739,175.424 220.229,175.424 220.229,117.25 "/>
<rect x="117.25" y="117.25" style="fill:#FF9356;" width="51.49" height="58.17"/>
<g>
</g>
<g>
</g>
<g>
</g>
<g>
</g>
<g>
</g>
<g>
</g>
<g>
</g>
<g>
</g>
<g>
</g>
<g>
</g>
<g>
</g>
<g>
</g>
<g>
</g>
<g>
</g>
<g>
</g>
</svg>
