<?xml version="1.0" encoding="iso-8859-1"?>
<!-- Generator: Adobe Illustrator 19.0.0, SVG Export Plug-In . SVG Version: 6.00 Build 0)  -->
<svg version="1.1" id="Capa_1" xmlns="http://www.w3.org/2000/svg" xmlns:xlink="http://www.w3.org/1999/xlink" x="0px" y="0px"
	 viewBox="0 0 512 512" style="enable-background:new 0 0 512 512;" xml:space="preserve">
<circle style="fill:#AD396B;" cx="256" cy="256" r="256"/>
<path style="fill:#5B3256;" d="M511.967,258.584L382.692,129.308L117.437,394.563l116.479,116.479
	C241.197,511.664,248.559,512,256,512C396.521,512,510.578,398.777,511.967,258.584z"/>
<polygon style="fill:#FF4181;" points="384.721,358.477 360.117,360.117 358.477,384.721 394.562,394.562 "/>
<polygon style="fill:#FFD86C;" points="373.034,315.625 325.193,325.193 315.625,373.034 358.477,384.721 384.721,358.477 "/>
<polygon style="fill:#FF755C;" points="284.065,226.655 221.49,252.108 344.329,344.329 373.034,315.625 "/>
<polygon style="fill:#FF4181;" points="236.799,236.799 226.655,284.065 315.625,373.034 344.329,344.329 "/>
<polygon style="fill:#FF9356;" points="221.384,163.975 158.809,189.427 255.36,255.36 284.065,226.655 "/>
<polygon style="fill:#FF755C;" points="174.118,174.118 163.975,221.384 226.655,284.065 255.36,255.36 "/>
<polygon style="fill:#BFBFBF;" points="140.645,198.054 198.054,140.645 150.213,150.213 "/>
<path style="fill:#FF4181;" d="M186.718,129.308c-15.828-15.828-41.581-15.828-57.409,0s-15.828,41.581,0,57.409l34.666,34.666
	l57.409-57.409L186.718,129.308z"/>
<polygon style="fill:#6FA953;" points="153.523,384.721 117.438,394.563 146.142,342.894 "/>
<polygon style="fill:#85C250;" points="117.438,394.563 127.279,358.477 157.624,354.376 "/>
<polygon style="fill:#FFD86C;" points="167.671,309.884 196.375,373.034 153.523,384.721 140.401,371.599 "/>
<polygon style="fill:#FFF5D9;" points="140.401,371.599 127.279,358.477 138.966,315.624 184.894,327.106 "/>
<polygon style="fill:#85C250;" points="322.573,158.809 167.671,344.329 196.375,373.034 348.025,221.384 "/>
<polygon style="fill:#A7CB5C;" points="290.616,163.974 138.966,315.625 167.671,344.329 337.882,174.118 "/>
<polygon style="fill:#BFBFBF;" points="313.946,140.645 371.355,198.054 361.787,150.213 "/>
<path style="fill:#6FA953;" d="M382.692,129.308l-47.923,15.448l-15.448,47.923l28.705,28.705l34.666-34.666
	C398.52,170.89,398.52,145.136,382.692,129.308z"/>
<path style="fill:#85C250;" d="M325.282,129.308l-34.666,34.666l28.705,28.705l63.371-63.371
	C366.864,113.481,341.11,113.48,325.282,129.308z"/>
<g>
</g>
<g>
</g>
<g>
</g>
<g>
</g>
<g>
</g>
<g>
</g>
<g>
</g>
<g>
</g>
<g>
</g>
<g>
</g>
<g>
</g>
<g>
</g>
<g>
</g>
<g>
</g>
<g>
</g>
</svg>
