<?xml version="1.0" encoding="iso-8859-1"?>
<!-- Generator: Adobe Illustrator 19.0.0, SVG Export Plug-In . SVG Version: 6.00 Build 0)  -->
<svg version="1.1" id="Capa_1" xmlns="http://www.w3.org/2000/svg" xmlns:xlink="http://www.w3.org/1999/xlink" x="0px" y="0px"
	 viewBox="0 0 512 512" style="enable-background:new 0 0 512 512;" xml:space="preserve">
<circle style="fill:#FF9356;" cx="256" cy="256" r="256"/>
<path style="fill:#FF755C;" d="M512,256c0-7.603-0.351-15.123-1.001-22.558l-115.721-115.72L117.721,326.685l28.837,28.845
	l-36.891,21.081l135.131,135.131c3.715,0.16,7.447,0.258,11.201,0.258C397.385,512,512,397.385,512,256z"/>
<path style="fill:#092A40;" d="M385.185,359.462h-42.871v34.297h42.871c9.456,0,17.148-7.693,17.148-17.148
	C402.333,367.155,394.641,359.462,385.185,359.462z"/>
<polygon style="fill:#174461;" points="342.314,402.333 376.611,402.333 376.611,350.888 342.314,350.888 316.591,376.61 "/>
<path style="fill:#092A40;" d="M376.611,109.667H256l-51.445,112.036L256,333.739h120.611c14.183,0,25.723-11.539,25.723-25.723
	V135.39C402.333,121.206,390.794,109.667,376.611,109.667z"/>
<path style="fill:#235C81;" d="M135.389,109.667c-14.183,0-25.723,11.539-25.723,25.723v172.627
	c0,14.183,11.539,25.723,25.723,25.723H256V109.667H135.389z"/>
<g>
	<rect x="135.39" y="212.99" style="fill:#092A40;" width="16.577" height="16.577"/>
	<rect x="135.39" y="247.28" style="fill:#092A40;" width="16.577" height="16.577"/>
	<rect x="135.39" y="178.69" style="fill:#092A40;" width="16.577" height="16.577"/>
</g>
<polygon style="fill:#4EB9FF;" points="376.611,138.248 256,138.248 221.703,223.132 256,308.017 376.611,308.017 "/>
<rect x="177.69" y="138.25" style="fill:#A3DBFF;" width="78.31" height="169.77"/>
<polygon style="fill:#092A40;" points="342.314,350.888 256,350.888 230.278,378.516 256,402.333 342.314,402.333 "/>
<polygon style="fill:#174461;" points="171.83,350.888 145.679,376.61 171.831,402.333 256,402.333 256,350.888 "/>
<polygon style="fill:#4EB9FF;" points="154.682,402.333 171.83,402.333 171.83,350.888 154.682,350.888 128.959,376.61 "/>
<polygon style="fill:#174461;" points="138.477,376.61 130.245,364.852 109.667,376.61 130.245,388.369 "/>
<polygon style="fill:#092A40;" points="154.682,350.888 130.245,364.852 130.245,388.369 154.682,402.333 "/>
<g>
</g>
<g>
</g>
<g>
</g>
<g>
</g>
<g>
</g>
<g>
</g>
<g>
</g>
<g>
</g>
<g>
</g>
<g>
</g>
<g>
</g>
<g>
</g>
<g>
</g>
<g>
</g>
<g>
</g>
</svg>
