<?xml version="1.0" encoding="iso-8859-1"?>
<!-- Generator: Adobe Illustrator 19.0.0, SVG Export Plug-In . SVG Version: 6.00 Build 0)  -->
<svg version="1.1" id="Capa_1" xmlns="http://www.w3.org/2000/svg" xmlns:xlink="http://www.w3.org/1999/xlink" x="0px" y="0px"
	 viewBox="0 0 512 512" style="enable-background:new 0 0 512 512;" xml:space="preserve">
<circle style="fill:#FFE290;" cx="256" cy="256" r="256"/>
<path style="fill:#FFCE47;" d="M511.639,269.606L351.033,109L160.967,238.199l26,25.808L109,298.492l17.227,17V403l108.076,108.076
	C241.457,511.677,248.69,512,256,512C392.82,512,504.566,404.665,511.639,269.606z"/>
<path style="fill:#FFD86C;" d="M511.639,269.606L351.033,109L160.967,238.199l26,25.808L109,298.492l17.227,17V403l108.076,108.076
	C241.457,511.677,248.69,512,256,512C392.82,512,504.566,404.665,511.639,269.606z"/>
<polygon style="fill:#174461;" points="380.031,284.137 380.031,341.559 342.133,341.559 324.906,284.137 "/>
<polygon style="fill:#092A40;" points="244.516,284.137 256,341.559 342.133,341.559 342.133,284.137 "/>
<polygon style="fill:#235C81;" points="131.969,284.137 131.969,341.559 169.867,341.559 187.094,284.137 "/>
<rect x="169.87" y="284.14" style="fill:#174461;" width="86.13" height="57.42"/>
<rect x="245.28" y="212.36" style="fill:#7ACBFF;" width="42.875" height="60.29"/>
<rect x="223.84" y="212.36" style="fill:#A3DBFF;" width="32.16" height="60.29"/>
<rect x="368.55" y="289.88" style="fill:#4EB9FF;" width="17.227" height="113.12"/>
<rect x="126.23" y="289.88" style="fill:#7ACBFF;" width="17.227" height="113.12"/>
<polygon style="fill:#235C81;" points="403,298.428 256,298.428 221.547,281.186 256,263.944 403,263.944 "/>
<rect x="109" y="264.01" style="fill:#2F73A0;" width="147" height="34.485"/>
<polygon style="fill:#4EB9FF;" points="351.033,238.199 256,238.199 244.516,195.133 351.033,212.359 "/>
<polygon style="fill:#7ACBFF;" points="256,238.199 160.967,238.199 160.967,212.359 256,195.133 "/>
<polygon style="fill:#6FA953;" points="351.033,109 256,109 221.547,160.68 256,212.359 351.033,212.359 "/>
<rect x="160.97" y="109" style="fill:#A7CB5C;" width="95.03" height="103.36"/>
<g>
</g>
<g>
</g>
<g>
</g>
<g>
</g>
<g>
</g>
<g>
</g>
<g>
</g>
<g>
</g>
<g>
</g>
<g>
</g>
<g>
</g>
<g>
</g>
<g>
</g>
<g>
</g>
<g>
</g>
</svg>
