<?xml version="1.0" encoding="iso-8859-1"?>
<!-- Generator: Adobe Illustrator 19.0.0, SVG Export Plug-In . SVG Version: 6.00 Build 0)  -->
<svg version="1.1" id="Capa_1" xmlns="http://www.w3.org/2000/svg" xmlns:xlink="http://www.w3.org/1999/xlink" x="0px" y="0px"
	 viewBox="0 0 512 512" style="enable-background:new 0 0 512 512;" xml:space="preserve">
<circle style="fill:#FF4181;" cx="256" cy="256" r="256"/>
<path style="fill:#AD396B;" d="M511.97,258.403L370.566,117v19.547L355.709,143l-25.866-26L143.5,186L117,232.394l12,9.996v0.994
	L117,395l115.956,115.956C240.549,511.634,248.231,512,256,512C396.582,512,510.677,398.679,511.97,258.403z"/>
<polygon style="fill:#174461;" points="370.566,144.366 381.736,136.547 370.566,117 359.397,136.547 "/>
<polygon style="fill:#FFF5D9;" points="370.566,168.922 395,159.759 381.736,136.547 359.397,136.547 346.133,159.759 "/>
<polygon style="fill:#45A2E0;" points="395,159.759 370.566,159.759 355.906,176.048 355.906,351.02 395,334.73 "/>
<polygon style="fill:#4EB9FF;" points="346.133,159.759 346.133,334.73 370.566,351.02 370.566,159.759 "/>
<rect x="346.13" y="334.73" style="fill:#174461;" width="48.867" height="60.27"/>
<g>
	<polygon style="fill:#FFCE47;" points="272.561,224.215 297.13,199.545 329.844,232.394 329.844,117 223.422,117 198.988,170.608 
		223.422,224.215 247.991,199.544 	"/>
	<polygon style="fill:#FFCE47;" points="264.688,395 280.977,346.133 329.844,329.844 329.844,255.397 297.121,222.637 
		272.561,247.3 247.991,222.629 223.422,247.3 190.844,321.15 223.422,395 	"/>
</g>
<g>
	<polygon style="fill:#FFD86C;" points="117,117 117,232.394 149.714,199.545 174.283,224.215 198.853,199.544 223.422,224.215 
		223.422,117 	"/>
	<polygon style="fill:#FFD86C;" points="174.283,247.3 149.722,222.637 117,255.398 117,395 223.422,395 223.422,247.3 
		198.853,222.629 	"/>
</g>
<polygon style="fill:#FFE290;" points="264.688,329.844 264.688,395 329.844,329.844 "/>
<g>
</g>
<g>
</g>
<g>
</g>
<g>
</g>
<g>
</g>
<g>
</g>
<g>
</g>
<g>
</g>
<g>
</g>
<g>
</g>
<g>
</g>
<g>
</g>
<g>
</g>
<g>
</g>
<g>
</g>
</svg>
