<?xml version="1.0" encoding="iso-8859-1"?>
<!-- Generator: Adobe Illustrator 19.0.0, SVG Export Plug-In . SVG Version: 6.00 Build 0)  -->
<svg version="1.1" id="Capa_1" xmlns="http://www.w3.org/2000/svg" xmlns:xlink="http://www.w3.org/1999/xlink" x="0px" y="0px"
	 viewBox="0 0 512 512" style="enable-background:new 0 0 512 512;" xml:space="preserve">
<circle style="fill:#7ACBFF;" cx="256" cy="256" r="256"/>
<path style="fill:#45A2E0;" d="M512,256c0-7.769-0.366-15.451-1.044-23.044L395,117l-48.266,33.798l-175.683-4.723l-16.62-16.6
	l3.833,225.26L309.839,506.31C425.369,481.579,512,378.914,512,256z"/>
<path style="fill:#D63D76;" d="M395,256h-48.867v-98.277c0-22.455,18.268-40.723,40.723-40.723H395V256z"/>
<g>
	<path style="fill:#FF4181;" d="M117,117h8.145c22.455,0,40.723,18.268,40.723,40.723V256H117V117z"/>
	<path style="fill:#FF4181;" d="M256,117l-32.578,90.925l162.035-2.543C365.176,153.694,314.794,117,256,117z"/>
</g>
<path style="fill:#FF755C;" d="M126.543,205.382L256,207.925V117C197.206,117,146.824,153.694,126.543,205.382z"/>
<path style="fill:#FFE290;" d="M321.699,174.555c-26.941,0-50.865,13.152-65.699,33.37l-48.867,93.538L256,395
	c76.645,0,139-62.355,139-139c0-17.851-3.386-34.925-9.543-50.618C370.523,186.611,347.494,174.555,321.699,174.555z"/>
<path style="fill:#FFF5D9;" d="M190.301,174.555c-25.795,0-48.824,12.057-63.758,30.827C120.386,221.075,117,238.149,117,256
	c0,76.645,62.355,139,139,139V207.925C241.166,187.707,217.242,174.555,190.301,174.555z"/>
<polygon style="fill:#FFE290;" points="227.924,240.416 212.874,246.65 190.301,296.723 251.247,296.723 "/>
<polygon style="fill:#FFCE47;" points="299.126,246.65 284.076,240.416 260.754,296.723 321.699,296.723 "/>
<path style="fill:#FFFFFF;" d="M190.301,296.723c-22.455,0-40.723-18.268-40.723-40.723s18.268-40.723,40.723-40.723
	s40.723,18.268,40.723,40.723S212.756,296.723,190.301,296.723z"/>
<circle style="fill:#174461;" cx="190.3" cy="256" r="16.289"/>
<path style="fill:#FFFFFF;" d="M321.699,296.723c-22.455,0-40.723-18.268-40.723-40.723s18.268-40.723,40.723-40.723
	s40.723,18.268,40.723,40.723S344.154,296.723,321.699,296.723z"/>
<circle style="fill:#092A40;" cx="321.7" cy="256" r="16.289"/>
<path style="fill:#FFB14E;" d="M256,274.338l-8.145,36.625l30.529-14.24C278.385,284.36,268.363,274.338,256,274.338z"/>
<path style="fill:#FFCE47;" d="M233.615,296.723L256,319.107v-44.769C243.637,274.338,233.615,284.36,233.615,296.723z"/>
<polygon style="fill:#FF755C;" points="278.385,296.723 256,296.723 247.855,302.424 256,326.33 "/>
<polygon style="fill:#FF9356;" points="233.615,296.723 256,326.33 256,296.723 "/>
<g>
</g>
<g>
</g>
<g>
</g>
<g>
</g>
<g>
</g>
<g>
</g>
<g>
</g>
<g>
</g>
<g>
</g>
<g>
</g>
<g>
</g>
<g>
</g>
<g>
</g>
<g>
</g>
<g>
</g>
</svg>
