<?xml version="1.0" encoding="iso-8859-1"?>
<!-- Generator: Adobe Illustrator 19.0.0, SVG Export Plug-In . SVG Version: 6.00 Build 0)  -->
<svg version="1.1" id="Capa_1" xmlns="http://www.w3.org/2000/svg" xmlns:xlink="http://www.w3.org/1999/xlink" x="0px" y="0px"
	 viewBox="0 0 512 512" style="enable-background:new 0 0 512 512;" xml:space="preserve">
<circle style="fill:#A7CB5C;" cx="256" cy="256" r="256"/>
<g>
	<polygon style="fill:#6FA953;" points="188.06,229.602 188.083,229.602 188.06,229.559 	"/>
	<path style="fill:#6FA953;" d="M505.045,315.454L314.507,124.916L187.03,227.602l-31.97-32l-6.56,82.288l-11.682,133.776
		l99.594,99.594c6.465,0.49,12.997,0.74,19.588,0.74C376.915,512,478.236,428.165,505.045,315.454z M188.06,229.602v-0.043
		l0.023,0.043H188.06z"/>
</g>
<path style="fill:#FFCE47;" d="M338.09,182.423c0-45.264-36.825-82.09-82.09-82.09l-27.363,179.613l83.184-27.363l16.864-32.04
	C334.837,208.855,338.09,195.673,338.09,182.423z"/>
<path style="fill:#FFE290;" d="M256,100.333c-45.265,0-82.09,36.825-82.09,82.09c0,13.251,3.252,26.432,9.404,38.12l16.864,32.04
	H256V100.333z"/>
<path style="fill:#FFF5D9;" d="M256,168.239l-9.121,9.121l9.121,9.121c5.029,0,9.121,4.091,9.121,9.121v9.121H256l-9.121,9.121
	l9.121,9.121h9.121v45.605h18.242v-72.969C283.363,180.514,271.088,168.239,256,168.239z"/>
<path style="fill:#FFFFFF;" d="M246.879,204.724v-9.121c0-5.03,4.092-9.121,9.121-9.121V168.24
	c-15.088,0-27.363,12.275-27.363,27.363v72.969h18.242v-45.605H256v-18.242L246.879,204.724L246.879,204.724z"/>
<polygon style="fill:#092A40;" points="228.637,295.934 311.821,295.934 311.821,252.583 256,252.583 "/>
<rect x="200.18" y="252.58" style="fill:#235C81;" width="55.822" height="43.35"/>
<polygon style="fill:#FF755C;" points="155.06,195.602 136.818,195.602 136.818,277.891 155.06,296.133 "/>
<polygon style="fill:#FF4181;" points="375.182,195.602 356.94,195.602 356.94,296.133 375.182,277.891 "/>
<polygon style="fill:#FF755C;" points="375.182,277.891 256,277.891 195.192,344.779 256,411.667 375.182,411.667 375.182,375.182 
	356.94,344.779 375.182,314.375 "/>
<path style="fill:#FFE290;" d="M375.182,375.182h-91.819v-60.807h91.819V375.182z"/>
<rect x="136.82" y="277.89" style="fill:#FF9356;" width="119.18" height="133.78"/>
<g>
</g>
<g>
</g>
<g>
</g>
<g>
</g>
<g>
</g>
<g>
</g>
<g>
</g>
<g>
</g>
<g>
</g>
<g>
</g>
<g>
</g>
<g>
</g>
<g>
</g>
<g>
</g>
<g>
</g>
</svg>
