<?xml version="1.0" encoding="iso-8859-1"?>
<!-- Generator: Adobe Illustrator 19.0.0, SVG Export Plug-In . SVG Version: 6.00 Build 0)  -->
<svg version="1.1" id="Capa_1" xmlns="http://www.w3.org/2000/svg" xmlns:xlink="http://www.w3.org/1999/xlink" x="0px" y="0px"
	 viewBox="0 0 512 512" style="enable-background:new 0 0 512 512;" xml:space="preserve">
<circle style="fill:#FF4181;" cx="256" cy="256" r="256"/>
<path style="fill:#AD396B;" d="M512,256c0-4.896-0.151-9.755-0.422-14.583C449.016,178.907,366.333,94.4,366.333,94.4
	l-192.609,98.69l-5.325,46.046l18.765,18.776l2.373,132.417l116.725,116.725C423.577,483.697,512,380.18,512,256z"/>
<path style="fill:#FFCE47;" d="M188.41,228.225c-5.569,0-10.1-4.531-10.1-10.1s4.531-10.1,10.1-10.1v-18.937
	c-16.011,0-29.037,13.026-29.037,29.037s13.026,29.037,29.037,29.037h67.544v-18.937H188.41z"/>
<path style="fill:#FFB14E;" d="M322.235,189.088v18.937c5.569,0,10.1,4.531,10.1,10.1s-4.531,10.1-10.1,10.1h-66.281v18.937h66.281
	c16.011,0,29.037-13.026,29.037-29.037S338.246,189.088,322.235,189.088z"/>
<path style="fill:#FFCE47;" d="M350.641,322.912c0-52.211-42.477-94.687-94.687-94.687l-53.717,94.687l53.717,94.687
	C308.164,417.6,350.641,375.123,350.641,322.912z"/>
<path style="fill:#FFE290;" d="M255.954,228.225c-52.211,0-94.687,42.477-94.687,94.687s42.477,94.687,94.687,94.687V228.225z"/>
<polygon style="fill:#3B8BC0;" points="322.235,94.4 293.829,151.213 322.235,208.025 366.333,164.65 366.333,94.4 "/>
<g>
	<polygon style="fill:#45A2E0;" points="145.667,94.4 145.667,164.557 188.41,208.025 216.816,151.213 188.41,94.4 	"/>
	<polygon style="fill:#45A2E0;" points="255.954,94.4 223.671,151.213 255.954,208.025 322.235,208.025 322.235,94.4 	"/>
</g>
<rect x="188.41" y="94.4" style="fill:#4EB9FF;" width="67.54" height="113.62"/>
<path style="fill:#FFE290;" d="M312.766,322.912c0-31.326-25.486-56.812-56.812-56.812l-32.23,56.812l32.23,56.812
	C287.28,379.725,312.766,354.239,312.766,322.912z"/>
<path style="fill:#FFFFFF;" d="M255.954,266.1c-31.326,0-56.812,25.486-56.812,56.812s25.486,56.812,56.812,56.812V266.1z"/>
<g>
</g>
<g>
</g>
<g>
</g>
<g>
</g>
<g>
</g>
<g>
</g>
<g>
</g>
<g>
</g>
<g>
</g>
<g>
</g>
<g>
</g>
<g>
</g>
<g>
</g>
<g>
</g>
<g>
</g>
</svg>
