<?xml version="1.0" encoding="iso-8859-1"?>
<!-- Generator: Adobe Illustrator 19.0.0, SVG Export Plug-In . SVG Version: 6.00 Build 0)  -->
<svg version="1.1" id="Capa_1" xmlns="http://www.w3.org/2000/svg" xmlns:xlink="http://www.w3.org/1999/xlink" x="0px" y="0px"
	 viewBox="0 0 512 512" style="enable-background:new 0 0 512 512;" xml:space="preserve">
<circle style="fill:#AD396B;" cx="256" cy="256" r="256"/>
<path style="fill:#5B3256;" d="M512,256c0-7.479-0.34-14.878-0.968-22.195c-57.61-57.585-116.01-115.827-116.01-115.827
	L117.978,395.022l116.027,116.027C241.257,511.667,248.589,512,256,512C397.385,512,512,397.385,512,256z"/>
<path style="fill:#FFCE47;" d="M452,256c0-108.074-87.925-196-196-196L144.808,256L256,452C364.075,452,452,364.074,452,256z"/>
<path style="fill:#FFE290;" d="M256,60C147.925,60,60,147.925,60,256s87.925,196,196,196V60z"/>
<g>
	<rect x="192.84" y="152.07" style="fill:#092A40;" width="22.969" height="68.906"/>
	<rect x="296.2" y="152.07" style="fill:#092A40;" width="22.969" height="68.906"/>
</g>
<rect x="129.29" y="198.39" style="fill:#FF755C;" width="22.2" height="22.2"/>
<rect x="360.51" y="198.39" style="fill:#FF4181;" width="22.2" height="22.2"/>
<path style="fill:#D63D76;" d="M237.895,273.496v81.617h93.795c26.016-21.674,42.599-54.264,42.599-90.652v-9.035h-36.211
	L237.895,273.496z"/>
<g>
	<path style="fill:#FF4181;" d="M137.711,255.426v9.035c0,36.388,16.584,68.979,42.599,90.652H256v-81.617l-82.078-18.07H137.711z"
		/>
	<path style="fill:#FF4181;" d="M256,382.52c28.766,0,55.163-10.306,75.69-27.406c-20.527-17.101-46.924-27.406-75.69-27.406
		l-18.105,27.406L256,382.52z"/>
</g>
<path style="fill:#FF755C;" d="M256,327.707c-28.766,0-55.163,10.306-75.69,27.406c20.527,17.101,46.924,27.406,75.69,27.406
	V327.707z"/>
<path style="fill:#FFE290;" d="M338.078,264.461v-9.035H256l-18.105,22.588L256,300.601h73.644
	C335.173,289.403,338.078,277.012,338.078,264.461z"/>
<path style="fill:#FFFFFF;" d="M256,255.426h-82.078v9.035c0,12.551,2.905,24.942,8.434,36.14H256V255.426z"/>
<g>
</g>
<g>
</g>
<g>
</g>
<g>
</g>
<g>
</g>
<g>
</g>
<g>
</g>
<g>
</g>
<g>
</g>
<g>
</g>
<g>
</g>
<g>
</g>
<g>
</g>
<g>
</g>
<g>
</g>
</svg>
