<?xml version="1.0" encoding="iso-8859-1"?>
<!-- Generator: Adobe Illustrator 19.0.0, SVG Export Plug-In . SVG Version: 6.00 Build 0)  -->
<svg version="1.1" id="Capa_1" xmlns="http://www.w3.org/2000/svg" xmlns:xlink="http://www.w3.org/1999/xlink" x="0px" y="0px"
	 viewBox="0 0 512 512" style="enable-background:new 0 0 512 512;" xml:space="preserve">
<circle style="fill:#FF4181;" cx="256" cy="256" r="256"/>
<path style="fill:#AD396B;" d="M503.255,322.513L296.603,117.407L122.694,324.8l19.076,19.083v50.709L259.137,511.96
	C376.131,510.553,474.228,430.68,503.255,322.513z"/>
<path style="fill:#FFCE47;" d="M222.34,130.213l-1.128,0.334c-24.78,7.336-47.07,22.776-62.764,43.474
	c-16.224,21.397-24.799,46.937-24.799,73.858v16.241l32.483,40.603H256V130.212L222.34,130.213z"/>
<g>
	<rect x="133.65" y="264.12" style="fill:#FFB14E;" width="32.483" height="40.603"/>
	<path style="fill:#FFB14E;" d="M353.552,174.021c-15.694-20.699-37.985-36.138-62.765-43.474l-1.128-0.334h-33.658v174.512h89.869
		l32.483-40.603v-16.241C378.351,220.958,369.775,195.418,353.552,174.021z"/>
</g>
<g>
	<rect x="345.87" y="264.12" style="fill:#FF9356;" width="32.483" height="40.603"/>
	<polygon style="fill:#FF9356;" points="296.603,117.407 256,117.407 215.397,304.724 296.603,304.724 	"/>
</g>
<rect x="215.4" y="117.41" style="fill:#FFB14E;" width="40.603" height="187.32"/>
<path style="fill:#235C81;" d="M203.216,369.689H149.89v-48.724h89.868L203.216,369.689z"/>
<rect x="141.77" y="320.96" style="fill:#4EB9FF;" width="16.241" height="73.63"/>
<path style="fill:#174461;" d="M272.242,320.965h89.868v48.724h-53.326L272.242,320.965z"/>
<rect x="353.99" y="320.96" style="fill:#45A2E0;" width="16.241" height="73.63"/>
<path style="fill:#FFCE47;" d="M378.351,296.603H256l-16.241,16.241L256,329.086h122.351c8.956,0,16.241-7.286,16.241-16.241
	C394.593,303.889,387.307,296.603,378.351,296.603z"/>
<path style="fill:#FFE290;" d="M133.649,296.603c-8.956,0-16.241,7.286-16.241,16.241s7.286,16.241,16.241,16.241H256v-32.483
	H133.649V296.603z"/>
<g>
</g>
<g>
</g>
<g>
</g>
<g>
</g>
<g>
</g>
<g>
</g>
<g>
</g>
<g>
</g>
<g>
</g>
<g>
</g>
<g>
</g>
<g>
</g>
<g>
</g>
<g>
</g>
<g>
</g>
</svg>
