<?xml version="1.0" encoding="iso-8859-1"?>
<!-- Generator: Adobe Illustrator 19.0.0, SVG Export Plug-In . SVG Version: 6.00 Build 0)  -->
<svg version="1.1" id="Capa_1" xmlns="http://www.w3.org/2000/svg" xmlns:xlink="http://www.w3.org/1999/xlink" x="0px" y="0px"
	 viewBox="0 0 512 512" style="enable-background:new 0 0 512 512;" xml:space="preserve">
<circle style="fill:#FFE290;" cx="256" cy="256" r="256"/>
<path style="fill:#FFCE47;" d="M512,256c0-7.864-0.374-15.64-1.068-23.323c-56.194-56.103-116.339-115.269-116.339-115.269
	l-34.504,16.241L256,170.192l-88.088-36.543l-16-16.241l-34.504,277.185l116.444,116.443C241.153,511.662,248.536,512,256,512
	C397.385,512,512,397.385,512,256z"/>
<polygon style="fill:#A7CB5C;" points="117.408,297.145 117.408,394.592 151.912,394.592 220.921,345.868 220.921,297.145 "/>
<polygon style="fill:#6FA953;" points="291.079,297.145 291.079,353.989 360.088,394.592 394.592,394.592 394.592,297.145 "/>
<polygon style="fill:#7C8E99;" points="360.088,117.408 360.088,394.592 394.592,394.592 394.592,222.976 370.23,175.876 
	394.592,133.649 394.592,117.408 "/>
<polygon style="fill:#9DA6AC;" points="117.408,117.408 117.408,133.649 133.649,178.313 117.408,222.976 117.408,394.592 
	151.912,394.592 151.912,117.408 "/>
<polygon style="fill:#4EB9FF;" points="394.592,133.649 256,133.649 174.794,178.313 256,222.976 394.592,222.976 "/>
<rect x="117.41" y="133.65" style="fill:#7ACBFF;" width="138.59" height="89.33"/>
<polygon style="fill:#092A40;" points="337.748,170.192 256,170.192 247.879,178.313 256,186.433 337.748,186.433 "/>
<rect x="174.25" y="170.19" style="fill:#174461;" width="81.75" height="16.241"/>
<polygon style="fill:#092A40;" points="264.121,297.145 223.517,345.868 264.121,394.592 360.088,394.592 291.079,297.145 "/>
<polygon style="fill:#843561;" points="220.921,297.145 151.912,394.592 247.879,394.592 256,367.523 256,321.507 247.879,297.145 
	"/>
<polygon style="fill:#FFE290;" points="264.121,297.145 256,297.145 250.586,305.265 250.586,329.627 256,337.748 264.121,337.748 
	"/>
<rect x="247.88" y="297.14" style="fill:#FFF5D9;" width="8.121" height="40.603"/>
<polygon style="fill:#FFE290;" points="264.121,353.989 256,353.989 250.586,362.11 250.586,386.472 256,394.592 264.121,394.592 
	"/>
<rect x="247.88" y="353.99" style="fill:#FFF5D9;" width="8.121" height="40.603"/>
<g>
</g>
<g>
</g>
<g>
</g>
<g>
</g>
<g>
</g>
<g>
</g>
<g>
</g>
<g>
</g>
<g>
</g>
<g>
</g>
<g>
</g>
<g>
</g>
<g>
</g>
<g>
</g>
<g>
</g>
</svg>
