<?xml version="1.0" encoding="iso-8859-1"?>
<!-- Generator: Adobe Illustrator 19.0.0, SVG Export Plug-In . SVG Version: 6.00 Build 0)  -->
<svg version="1.1" id="Capa_1" xmlns="http://www.w3.org/2000/svg" xmlns:xlink="http://www.w3.org/1999/xlink" x="0px" y="0px"
	 viewBox="0 0 512 512" style="enable-background:new 0 0 512 512;" xml:space="preserve">
<circle style="fill:#3B8BC0;" cx="256" cy="256" r="256"/>
<path style="fill:#235C81;" d="M506.819,307.487L361.275,161.942L117.501,280.887l17,16.23l-17,97.382l116.555,116.555
	C241.291,511.668,248.606,512,256,512C379.749,512,482.989,424.195,506.819,307.487z"/>
<polygon style="fill:#A7CB5C;" points="117.501,297.117 117.501,394.499 151.982,394.499 220.944,345.808 220.944,297.117 "/>
<polygon style="fill:#6FA953;" points="291.056,297.117 291.056,353.923 360.018,394.499 394.499,394.499 394.499,297.117 "/>
<polygon style="fill:#092A40;" points="264.115,297.117 223.539,345.808 264.115,394.499 360.018,394.499 291.056,297.117 "/>
<polygon style="fill:#843561;" points="220.944,297.117 151.982,394.499 247.885,394.499 256,367.448 256,321.463 247.885,297.117 
	"/>
<polygon style="fill:#FFE290;" points="264.115,297.117 256,297.117 250.59,305.232 250.59,329.578 256,337.693 264.115,337.693 "/>
<rect x="247.88" y="297.12" style="fill:#FFF5D9;" width="8.115" height="40.576"/>
<polygon style="fill:#FFE290;" points="264.115,353.923 256,353.923 250.59,362.038 250.59,386.384 256,394.499 264.115,394.499 "/>
<path style="fill:#D63D76;" d="M256,117.501l-24.346,10.133L360.02,280.887h34.479v-49.232
	C394.499,179.512,332.488,117.501,256,117.501z"/>
<path style="fill:#FF4181;" d="M151.98,280.887h-34.479V256c0-76.488,62.011-138.499,138.499-138.499v0.438v34.04
	C198.55,151.98,151.98,280.887,151.98,280.887z"/>
<path style="fill:#FFCE47;" d="M256,151.982l-16.23,26.366l85.767,102.539h34.481V256C360.018,198.553,313.447,151.982,256,151.982z
	"/>
<path style="fill:#FFE290;" d="M151.982,256v24.887h34.481L256,186.463v-34.481C198.553,151.982,151.982,198.553,151.982,256z"/>
<path style="fill:#FF755C;" d="M256,186.463l-16.23,17.241l16.23,17.24c19.33,0,35.056,15.726,35.056,35.056v24.887h34.481V256
	C325.537,217.657,294.343,186.463,256,186.463z"/>
<path style="fill:#FF9356;" d="M186.463,256v24.887h34.481V256c0-19.33,15.726-35.056,35.056-35.056v-34.481
	C217.657,186.463,186.463,217.657,186.463,256z"/>
<rect x="247.88" y="353.92" style="fill:#FFF5D9;" width="8.115" height="40.576"/>
<g>
</g>
<g>
</g>
<g>
</g>
<g>
</g>
<g>
</g>
<g>
</g>
<g>
</g>
<g>
</g>
<g>
</g>
<g>
</g>
<g>
</g>
<g>
</g>
<g>
</g>
<g>
</g>
<g>
</g>
</svg>
