<?xml version="1.0" encoding="iso-8859-1"?>
<!-- Generator: Adobe Illustrator 19.0.0, SVG Export Plug-In . SVG Version: 6.00 Build 0)  -->
<svg version="1.1" id="Capa_1" xmlns="http://www.w3.org/2000/svg" xmlns:xlink="http://www.w3.org/1999/xlink" x="0px" y="0px"
	 viewBox="0 0 512 512" style="enable-background:new 0 0 512 512;" xml:space="preserve">
<circle style="fill:#FF4181;" cx="256" cy="256" r="256"/>
<path style="fill:#AD396B;" d="M510.98,278.779L349.638,117.438l-22.131,22.131l-33.456,0.005l-21.813-22.137l-40.515,20.258
	l-33.205-0.044L178.6,117.438l-61.162,209.027l36.879,36.551l-0.522,1.02l-36.357,30.526l116.479,116.479
	C241.197,511.664,248.559,512,256,512C389.706,512,499.451,409.491,510.98,278.779z"/>
<rect x="174.54" y="133.68" style="fill:#FFB14E;" width="81.46" height="37.448"/>
<rect x="256" y="133.68" style="fill:#FF9356;" width="81.46" height="37.448"/>
<polygon style="fill:#FFCE47;" points="256,117.438 247.881,133.675 248.783,362.087 272.238,362.087 272.238,117.438 "/>
<rect x="239.76" y="117.44" style="fill:#FFE290;" width="16.238" height="244.65"/>
<polygon style="fill:#FF9356;" points="358.986,345.849 256,345.849 234.35,382.813 377.467,382.813 "/>
<g>
	<polygon style="fill:#FFB14E;" points="153.014,345.849 134.533,382.813 256,382.813 256,345.849 	"/>
	<polygon style="fill:#FFB14E;" points="394.563,378.325 256,378.325 239.121,386.444 256,394.563 394.563,394.563 	"/>
</g>
<rect x="117.44" y="378.32" style="fill:#FFCE47;" width="138.56" height="16.238"/>
<polygon style="fill:#FFE290;" points="117.438,220.378 139.415,244.735 139.415,220.378 170.481,186.318 201.547,220.378 
	201.547,244.735 223.524,220.378 170.481,162.222 "/>
<rect x="117.44" y="220.38" style="fill:#85C250;" width="106.09" height="106.09"/>
<polygon style="fill:#FFFFFF;" points="195.108,265.303 178.6,265.303 178.6,248.794 162.362,248.794 162.362,265.303 
	145.854,265.303 145.854,281.54 162.362,281.54 162.362,298.049 178.6,298.049 178.6,281.54 195.108,281.54 "/>
<g>
	<rect x="162.36" y="117.44" style="fill:#FFCE47;" width="16.238" height="53.686"/>
	<polygon style="fill:#FFCE47;" points="394.563,220.378 372.585,244.735 372.585,220.378 341.519,186.318 310.453,220.378 
		310.453,244.735 288.476,220.378 341.519,162.222 	"/>
</g>
<rect x="288.48" y="220.38" style="fill:#FF4181;" width="106.09" height="106.09"/>
<rect x="333.4" y="117.44" style="fill:#FFB14E;" width="16.238" height="53.686"/>
<rect x="316.89" y="265.3" style="fill:#FFF5D9;" width="49.26" height="16.238"/>
<g>
</g>
<g>
</g>
<g>
</g>
<g>
</g>
<g>
</g>
<g>
</g>
<g>
</g>
<g>
</g>
<g>
</g>
<g>
</g>
<g>
</g>
<g>
</g>
<g>
</g>
<g>
</g>
<g>
</g>
</svg>
