<?xml version="1.0" encoding="iso-8859-1"?>
<!-- Generator: Adobe Illustrator 19.0.0, SVG Export Plug-In . SVG Version: 6.00 Build 0)  -->
<svg version="1.1" id="Capa_1" xmlns="http://www.w3.org/2000/svg" xmlns:xlink="http://www.w3.org/1999/xlink" x="0px" y="0px"
	 viewBox="0 0 512 512" style="enable-background:new 0 0 512 512;" xml:space="preserve">
<circle style="fill:#7ACBFF;" cx="256" cy="256" r="256"/>
<path style="fill:#45A2E0;" d="M512,256c0-7.277-0.32-14.478-0.916-21.601L394.343,117.657l-40.53,40.53l-57.282,16.212
	l-16.212-16.212l-48.636,16.212l-16.212-16.212l-14.302,3.02l-42.981-43.55l-40.53,40.53l43.171,42.607l-2.641,14.676l16.212,16.212
	l-16.212,48.636L174.4,296.53l-16.212,57.283l-40.53,40.53L234.4,511.085C241.522,511.68,248.723,512,256,512
	C397.385,512,512,397.385,512,256z"/>
<rect x="117.66" y="117.66" style="fill:#FFD86C;" width="40.53" height="40.53"/>
<rect x="353.81" y="117.66" style="fill:#FFCE47;" width="40.53" height="40.53"/>
<rect x="117.66" y="353.81" style="fill:#FFD86C;" width="40.53" height="40.53"/>
<rect x="353.81" y="353.81" style="fill:#FFCE47;" width="40.53" height="40.53"/>
<polygon style="fill:#092A40;" points="337.601,326.137 310.368,298.904 298.904,310.368 326.137,337.601 296.53,337.601 
	296.53,353.813 353.813,353.813 353.813,296.53 337.601,296.53 "/>
<polygon style="fill:#174461;" points="158.187,215.47 174.399,215.47 174.399,185.863 201.632,213.096 213.096,201.632 
	185.863,174.399 215.47,174.399 215.47,158.187 158.187,158.187 "/>
<polygon style="fill:#092A40;" points="296.53,158.187 296.53,174.399 326.137,174.399 298.904,201.632 310.368,213.096 
	337.601,185.863 337.601,215.47 353.813,215.47 353.813,158.187 "/>
<polygon style="fill:#174461;" points="213.096,310.368 201.632,298.904 174.399,326.137 174.399,296.53 158.187,296.53 
	158.187,353.813 215.47,353.813 215.47,337.601 185.863,337.601 "/>
<rect x="337.6" y="231.68" style="fill:#092A40;" width="16.212" height="48.636"/>
<rect x="158.19" y="231.68" style="fill:#174461;" width="16.212" height="48.636"/>
<polygon style="fill:#4EB9FF;" points="312.742,199.258 256,199.258 222.753,256 256,312.742 312.742,312.742 "/>
<rect x="199.26" y="199.26" style="fill:#7ACBFF;" width="56.742" height="113.48"/>
<polygon style="fill:#092A40;" points="280.318,158.187 256,158.187 247.894,166.293 256,174.399 280.318,174.399 "/>
<rect x="231.68" y="158.19" style="fill:#174461;" width="24.318" height="16.212"/>
<polygon style="fill:#092A40;" points="280.318,353.813 280.318,337.601 256,337.601 247.894,345.707 256,353.813 "/>
<rect x="231.68" y="337.6" style="fill:#174461;" width="24.318" height="16.212"/>
<g>
</g>
<g>
</g>
<g>
</g>
<g>
</g>
<g>
</g>
<g>
</g>
<g>
</g>
<g>
</g>
<g>
</g>
<g>
</g>
<g>
</g>
<g>
</g>
<g>
</g>
<g>
</g>
<g>
</g>
</svg>
