<?xml version="1.0" encoding="iso-8859-1"?>
<!-- Generator: Adobe Illustrator 19.0.0, SVG Export Plug-In . SVG Version: 6.00 Build 0)  -->
<svg version="1.1" id="Capa_1" xmlns="http://www.w3.org/2000/svg" xmlns:xlink="http://www.w3.org/1999/xlink" x="0px" y="0px"
	 viewBox="0 0 512 512" style="enable-background:new 0 0 512 512;" xml:space="preserve">
<circle style="fill:#FFB14E;" cx="256" cy="256" r="256"/>
<path style="fill:#FF755C;" d="M512,256c0-7.795-0.368-15.503-1.051-23.121C454.724,176.744,394.5,117.5,394.5,117.5l-277,277
	l116.554,116.554C241.289,511.668,248.605,512,256,512C397.385,512,512,397.385,512,256z"/>
<polygon style="fill:#174461;" points="394.5,117.5 256,117.5 174.848,256 256,394.5 394.5,394.5 "/>
<g>
	<rect x="117.5" y="117.5" style="fill:#2F73A0;" width="138.5" height="277"/>
	<path style="fill:#2F73A0;" d="M394.5,256c0-76.369-62.131-138.5-138.5-138.5L177.428,256L256,394.5
		C332.369,394.5,394.5,332.369,394.5,256z"/>
</g>
<g>
	<path style="fill:#3B8BC0;" d="M256,117.5c-76.369,0-138.5,62.131-138.5,138.5S179.631,394.5,256,394.5V117.5z"/>
	<path style="fill:#3B8BC0;" d="M362.039,256c0-58.47-47.569-106.039-106.039-106.039L195.843,256L256,362.039
		C314.47,362.039,362.039,314.47,362.039,256z"/>
</g>
<path style="fill:#45A2E0;" d="M256,149.961c-58.47,0-106.039,47.569-106.039,106.039S197.53,362.039,256,362.039V149.961z"/>
<path style="fill:#092A40;" d="M237.335,244.405L256,362.039c10.393,0,20.438-1.51,29.936-4.31V244.405H237.335z"/>
<path style="fill:#174461;" d="M226.064,244.405v113.324c9.498,2.8,19.543,4.31,29.936,4.31V244.405H226.064z"/>
<path style="fill:#FFCE47;" d="M284.403,178.364c0-15.662-12.742-28.403-28.403-28.403l-16.113,28.403L256,206.768
	C271.662,206.768,284.403,194.026,284.403,178.364z"/>
<path style="fill:#FFE290;" d="M256,149.961c-15.662,0-28.403,12.742-28.403,28.403s12.742,28.403,28.403,28.403V149.961z"/>
<polygon style="fill:#4EB9FF;" points="295.224,220.059 256,220.059 231.766,252.52 256,284.981 295.224,284.981 "/>
<rect x="216.78" y="220.06" style="fill:#7ACBFF;" width="39.22" height="64.922"/>
<g>
</g>
<g>
</g>
<g>
</g>
<g>
</g>
<g>
</g>
<g>
</g>
<g>
</g>
<g>
</g>
<g>
</g>
<g>
</g>
<g>
</g>
<g>
</g>
<g>
</g>
<g>
</g>
<g>
</g>
</svg>
