<?xml version="1.0" encoding="iso-8859-1"?>
<!-- Generator: Adobe Illustrator 19.0.0, SVG Export Plug-In . SVG Version: 6.00 Build 0)  -->
<svg version="1.1" id="Capa_1" xmlns="http://www.w3.org/2000/svg" xmlns:xlink="http://www.w3.org/1999/xlink" x="0px" y="0px"
	 viewBox="0 0 512 512" style="enable-background:new 0 0 512 512;" xml:space="preserve">
<circle style="fill:#3B8BC0;" cx="256" cy="256" r="256"/>
<path style="fill:#235C81;" d="M495.301,347.087c-3.779-6.675-6.909-11.277-6.909-11.277l-209-209L256,111.258l-42.344,107.716
	L179.781,298.7l26,25.822l-34.469,33.875l-53.088,36.619l116.057,116.057C241.443,511.676,248.683,512,256,512
	C365.299,512,458.582,443.495,495.301,347.087z"/>
<path style="fill:#7ACBFF;" d="M340.687,358.398c0-18.709-15.167-33.875-33.875-33.875H256l-25.406,59.282L340.687,358.398z"/>
<g>
	<path style="fill:#A3DBFF;" d="M256,324.523h-50.812c-18.709,0-33.875,15.166-33.875,33.875L256,383.804V324.523z"/>
	<rect x="239.06" y="281.76" style="fill:#A3DBFF;" width="50.813" height="102.04"/>
</g>
<rect x="222.12" y="281.76" style="fill:#C7E9FF;" width="33.875" height="102.04"/>
<polygon style="fill:#FF755C;" points="179.781,252.849 179.781,298.701 213.656,298.701 230.594,258.838 213.656,218.975 "/>
<polygon style="fill:#FF4181;" points="298.343,298.701 332.219,298.701 332.219,252.849 298.343,218.974 281.406,258.838 "/>
<path style="fill:#FFB14E;" d="M298.343,173.252c0-25.988-15.247-49.699-38.844-60.406L256,111.258l-25.406,87.401L298.343,173.252z
	"/>
<path style="fill:#FFCE47;" d="M256,111.258l-3.499,1.588c-23.597,10.708-38.844,34.418-38.844,60.406L256,190.19V111.258z"/>
<polygon style="fill:#7ACBFF;" points="230.594,244.381 298.343,218.975 298.343,173.252 256,173.252 "/>
<polygon style="fill:#FFCE47;" points="256,218.975 239.062,258.838 256,298.701 298.343,298.701 298.343,218.975 "/>
<polygon style="fill:#C7E9FF;" points="256,173.252 213.656,173.252 213.656,218.975 256,244.381 "/>
<rect x="213.66" y="218.97" style="fill:#FFE290;" width="42.34" height="79.73"/>
<path style="fill:#4EB9FF;" d="M379.328,358.398H256l-25.406,21.172L256,400.742h123.328c11.693,0,21.172-9.479,21.172-21.172
	S391.021,358.398,379.328,358.398z"/>
<path style="fill:#7ACBFF;" d="M132.672,358.398c-11.693,0-21.172,9.479-21.172,21.172s9.479,21.172,21.172,21.172H256v-42.344
	H132.672z"/>
<g>
</g>
<g>
</g>
<g>
</g>
<g>
</g>
<g>
</g>
<g>
</g>
<g>
</g>
<g>
</g>
<g>
</g>
<g>
</g>
<g>
</g>
<g>
</g>
<g>
</g>
<g>
</g>
<g>
</g>
</svg>
