<?xml version="1.0" encoding="iso-8859-1"?>
<!-- Generator: Adobe Illustrator 19.0.0, SVG Export Plug-In . SVG Version: 6.00 Build 0)  -->
<svg version="1.1" id="Capa_1" xmlns="http://www.w3.org/2000/svg" xmlns:xlink="http://www.w3.org/1999/xlink" x="0px" y="0px"
	 viewBox="0 0 512 512" style="enable-background:new 0 0 512 512;" xml:space="preserve">
<circle style="fill:#FF4181;" cx="256" cy="256" r="256"/>
<path style="fill:#AD396B;" d="M504.954,315.826l-110.62-110.62l-64.844,7.124l-87.825-87.807l-17.011,96.895h-36.74l-63.393,37.374
	l7.214,7.236l-7.214,35.993l13,13l1,1l0.046,0.05l2.165,29.179l14,14l0.045,0.05l2.165,29.179L279.39,510.926
	C389.682,500.933,479.77,421.001,504.954,315.826z"/>
<path style="fill:#FFCE47;" d="M329.49,221.417c-45.398,0-81.97-36.735-81.97-82.133c0-11.938-9.678-21.617-21.617-21.617
	c-11.938,0-21.617,9.678-21.617,21.617c0,29.573,7.274,58.021,20.974,83.297v40.527L329.49,221.417z"/>
<path style="fill:#FF755C;" d="M171.703,394.333c-11.937,0-21.615-9.678-21.615-21.615s9.678-21.615,21.615-21.615l48.633-17.292
	l-32.422,60.521L171.703,394.333L171.703,394.333z"/>
<path style="fill:#FF9356;" d="M155.492,351.104c-11.937,0-21.615-9.678-21.615-21.615s9.678-21.615,21.615-21.615l113.477-17.292
	v60.521h-96.185L155.492,351.104L155.492,351.104z"/>
<path style="fill:#FFB14E;" d="M139.281,307.875c-11.937,0-21.615-9.678-21.615-21.615s9.678-21.615,21.615-21.615l129.688-17.292
	v60.521H156.573L139.281,307.875L139.281,307.875z"/>
<g>
	<path style="fill:#FFCE47;" d="M139.281,264.646h129.688l-81.055-43.229h-48.633c-11.937,0-21.615,9.678-21.615,21.615
		S127.344,264.646,139.281,264.646z"/>
	<polygon style="fill:#FFCE47;" points="187.914,307.875 187.914,394.333 329.49,394.333 361.911,267.348 	"/>
</g>
<rect x="187.91" y="221.42" style="fill:#FFE290;" width="174" height="86.46"/>
<polygon style="fill:#A7CB5C;" points="394.333,205.206 329.49,205.206 329.49,307.875 361.911,332.191 394.333,307.875 "/>
<polygon style="fill:#85C250;" points="394.333,307.875 329.49,307.875 329.49,351.104 361.911,375.421 394.333,351.104 "/>
<rect x="329.49" y="351.1" style="fill:#6FA953;" width="64.844" height="43.23"/>
<g>
</g>
<g>
</g>
<g>
</g>
<g>
</g>
<g>
</g>
<g>
</g>
<g>
</g>
<g>
</g>
<g>
</g>
<g>
</g>
<g>
</g>
<g>
</g>
<g>
</g>
<g>
</g>
<g>
</g>
</svg>
