<?xml version="1.0" encoding="iso-8859-1"?>
<!-- Generator: Adobe Illustrator 19.0.0, SVG Export Plug-In . SVG Version: 6.00 Build 0)  -->
<svg version="1.1" id="Capa_1" xmlns="http://www.w3.org/2000/svg" xmlns:xlink="http://www.w3.org/1999/xlink" x="0px" y="0px"
	 viewBox="0 0 512 512" style="enable-background:new 0 0 512 512;" xml:space="preserve">
<circle style="fill:#7ACBFF;" cx="256" cy="256" r="256"/>
<path style="fill:#45A2E0;" d="M512,256c0-7.212-0.314-14.349-0.899-21.41c-59.829-59.915-130.976-129.904-130.976-129.904
	L140.186,400.003l111.948,111.948C253.422,511.97,254.707,512,256,512C397.385,512,512,397.385,512,256z"/>
<rect x="238.27" y="362.98" style="fill:#FFF5D9;" width="124.12" height="35.464"/>
<path style="fill:#FFFFFF;" d="M158.473,362.984c-9.793,0-17.732,7.939-17.732,17.732s7.939,17.732,17.732,17.732H256v-35.464
	H158.473z"/>
<polygon style="fill:#FF4181;" points="380.125,104.686 256,104.686 226.446,362.984 344.661,362.984 380.125,283.189 "/>
<path style="fill:#FF755C;" d="M158.473,104.686c-14.667,0-26.598,11.932-26.598,26.598v249.432h8.866
	c0-9.793,7.939-17.732,17.732-17.732H256V104.686H158.473z"/>
<polygon style="fill:#D63D76;" points="380.125,407.314 380.125,389.582 256,389.582 244.179,398.448 256,407.314 "/>
<polygon style="fill:#FF9356;" points="350.571,134.239 256,134.239 211.67,214.034 350.571,178.57 "/>
<polygon style="fill:#FFB14E;" points="161.429,134.239 256,134.239 256,214.034 161.429,178.57 "/>
<polygon style="fill:#FFCE47;" points="350.571,178.57 256,178.57 202.668,253.999 256,324.564 350.571,324.564 "/>
<g>
	<rect x="161.43" y="178.57" style="fill:#FFE290;" width="94.57" height="146"/>
	<polygon style="fill:#FFE290;" points="309.196,354.118 309.196,362.984 380.125,354.118 380.125,283.189 326.929,300.921 	"/>
</g>
<polygon style="fill:#D63D76;" points="380.125,371.85 380.125,354.118 256,354.118 244.179,362.984 256,371.85 "/>
<path style="fill:#FF4181;" d="M149.607,380.716c0-4.889,3.977-8.866,8.866-8.866H256v-17.732h-97.527
	c-14.667,0-26.598,11.932-26.598,26.598c0,14.666,11.932,26.598,26.598,26.598H256v-17.732h-97.527
	C153.584,389.582,149.607,385.605,149.607,380.716z"/>
<polygon style="fill:#FFFFFF;" points="309.196,283.189 309.196,354.118 380.125,283.189 "/>
<g>
</g>
<g>
</g>
<g>
</g>
<g>
</g>
<g>
</g>
<g>
</g>
<g>
</g>
<g>
</g>
<g>
</g>
<g>
</g>
<g>
</g>
<g>
</g>
<g>
</g>
<g>
</g>
<g>
</g>
</svg>
