<?xml version="1.0" encoding="iso-8859-1"?>
<!-- Generator: Adobe Illustrator 19.0.0, SVG Export Plug-In . SVG Version: 6.00 Build 0)  -->
<svg version="1.1" id="Capa_1" xmlns="http://www.w3.org/2000/svg" xmlns:xlink="http://www.w3.org/1999/xlink" x="0px" y="0px"
	 viewBox="0 0 512 512" style="enable-background:new 0 0 512 512;" xml:space="preserve">
<circle style="fill:#A7CB5C;" cx="256" cy="256" r="256"/>
<path style="fill:#6FA953;" d="M512,256c0-1.201-0.029-2.395-0.045-3.592L368.547,109l-242.32,294l108.076,108.076
	C241.457,511.676,248.69,512,256,512C397.385,512,512,397.385,512,256z"/>
<polygon style="fill:#092A40;" points="368.547,109 299.641,109 178.48,256 247.387,403 368.547,403 "/>
<polygon style="fill:#174461;" points="126.227,109 126.227,403 247.387,403 247.387,160.68 195.133,109 "/>
<path style="fill:#FFE290;" d="M342.707,342.707l-73.787-48.521v82.975h99.627c9.515,0,17.227-7.712,17.227-17.227v-17.227
	L342.707,342.707L342.707,342.707z"/>
<path style="fill:#FFF5D9;" d="M286.146,359.934v-82.4H169.293v99.627h99.627C278.435,377.16,286.146,369.448,286.146,359.934z"/>
<polygon style="fill:#FFCE47;" points="342.707,134.84 247.387,134.84 195.707,238.773 247.387,342.707 342.707,342.707 "/>
<path style="fill:#FFE290;" d="M152.066,134.84v225.094c0,9.515,7.712,17.227,17.227,17.227s17.227-7.712,17.227-17.227v-17.227
	h60.867V134.84H152.066z"/>
<polygon style="fill:#7C8E99;" points="247.387,160.68 299.641,160.68 299.641,134.84 230.16,117.613 "/>
<g>
	<polygon style="fill:#9DA6AC;" points="195.133,134.84 195.133,160.68 247.387,160.68 247.387,117.613 	"/>
	<polygon style="fill:#9DA6AC;" points="247.387,109 230.16,121.92 247.387,134.84 299.641,134.84 299.641,109 	"/>
</g>
<rect x="195.13" y="109" style="fill:#BFBFBF;" width="52.25" height="25.84"/>
<polygon style="fill:#FF755C;" points="299.641,242.506 247.387,242.506 238.773,251.119 247.387,259.732 299.641,259.732 "/>
<rect x="195.13" y="242.51" style="fill:#FF9356;" width="52.25" height="17.227"/>
<polygon style="fill:#FF755C;" points="299.641,208.053 247.387,208.053 238.773,216.666 247.387,225.279 299.641,225.279 "/>
<rect x="195.13" y="208.05" style="fill:#FF9356;" width="52.25" height="17.227"/>
<polygon style="fill:#FF755C;" points="299.641,294.186 299.641,276.959 247.387,276.959 238.773,285.572 247.387,294.186 "/>
<rect x="195.13" y="276.96" style="fill:#FF9356;" width="52.25" height="17.227"/>
<g>
</g>
<g>
</g>
<g>
</g>
<g>
</g>
<g>
</g>
<g>
</g>
<g>
</g>
<g>
</g>
<g>
</g>
<g>
</g>
<g>
</g>
<g>
</g>
<g>
</g>
<g>
</g>
<g>
</g>
</svg>
