<?xml version="1.0" encoding="iso-8859-1"?>
<!-- Generator: Adobe Illustrator 19.0.0, SVG Export Plug-In . SVG Version: 6.00 Build 0)  -->
<svg version="1.1" id="Capa_1" xmlns="http://www.w3.org/2000/svg" xmlns:xlink="http://www.w3.org/1999/xlink" x="0px" y="0px"
	 viewBox="0 0 512 512" style="enable-background:new 0 0 512 512;" xml:space="preserve">
<circle style="fill:#FF4181;" cx="256" cy="256" r="256"/>
<path style="fill:#AD396B;" d="M512,256c0-7.795-0.368-15.503-1.051-23.121C454.724,176.744,394.5,117.5,394.5,117.5l-277,178.535
	l25,24.345l-25,74.119l116.554,116.554C241.289,511.668,248.605,512,256,512C397.385,512,512,397.385,512,256z"/>
<polygon style="fill:#4EB9FF;" points="394.5,378.27 394.5,394.5 256,394.5 239.77,353.924 "/>
<polygon style="fill:#7ACBFF;" points="256,353.924 256,394.5 117.5,394.5 117.5,378.27 "/>
<polygon style="fill:#45A2E0;" points="394.5,320.381 394.5,378.27 256,378.27 239.77,353.924 264.115,320.381 285.936,320.381 
	294.051,325.791 302.167,320.381 323.988,320.381 332.103,325.791 340.218,320.381 362.039,320.381 370.154,325.791 
	378.269,320.381 "/>
<polygon style="fill:#4EB9FF;" points="247.885,320.381 256,329.578 256,378.27 117.5,378.27 117.5,320.381 133.73,320.381 
	141.846,325.791 149.961,320.381 171.782,320.381 179.897,325.791 188.012,320.381 209.833,320.381 217.949,325.791 
	226.064,320.381 "/>
<g>
	<rect x="133.73" y="320.38" style="fill:#174461;" width="16.23" height="32.461"/>
	<rect x="171.78" y="320.38" style="fill:#174461;" width="16.23" height="16.23"/>
	<rect x="209.83" y="320.38" style="fill:#174461;" width="16.23" height="32.461"/>
</g>
<g>
	<rect x="285.94" y="320.38" style="fill:#092A40;" width="16.23" height="32.461"/>
	<rect x="323.99" y="320.38" style="fill:#092A40;" width="16.23" height="16.23"/>
	<rect x="362.04" y="320.38" style="fill:#092A40;" width="16.23" height="32.461"/>
</g>
<polygon style="fill:#FFE290;" points="256,117.5 199.193,206.768 256,296.035 329.578,296.035 394.5,231.113 394.5,117.5 "/>
<rect x="117.5" y="117.5" style="fill:#FFF5D9;" width="138.5" height="178.53"/>
<polygon style="fill:#6FA953;" points="296.847,149.961 256,149.961 223.539,206.768 256,263.574 296.847,263.574 "/>
<g>
	<rect x="313.08" y="149.96" style="fill:#FFCE47;" width="57.08" height="16.23"/>
	<rect x="313.08" y="182.42" style="fill:#FFCE47;" width="57.08" height="16.23"/>
</g>
<rect x="149.96" y="149.96" style="fill:#85C250;" width="106.04" height="113.61"/>
<polygon style="fill:#FFCE47;" points="329.578,296.035 394.5,296.035 394.5,231.113 345.809,247.344 "/>
<polygon style="fill:#FFFFFF;" points="329.578,231.114 329.578,296.035 394.5,231.114 "/>
<polygon style="fill:#092A40;" points="264.115,320.381 256,320.381 250.59,328.496 256,336.611 264.115,336.611 "/>
<rect x="247.88" y="320.38" style="fill:#174461;" width="8.115" height="16.23"/>
<g>
</g>
<g>
</g>
<g>
</g>
<g>
</g>
<g>
</g>
<g>
</g>
<g>
</g>
<g>
</g>
<g>
</g>
<g>
</g>
<g>
</g>
<g>
</g>
<g>
</g>
<g>
</g>
<g>
</g>
</svg>
