<?xml version="1.0" encoding="iso-8859-1"?>
<!-- Generator: Adobe Illustrator 19.0.0, SVG Export Plug-In . SVG Version: 6.00 Build 0)  -->
<svg version="1.1" id="Capa_1" xmlns="http://www.w3.org/2000/svg" xmlns:xlink="http://www.w3.org/1999/xlink" x="0px" y="0px"
	 viewBox="0 0 512 512" style="enable-background:new 0 0 512 512;" xml:space="preserve">
<circle style="fill:#3B8BC0;" cx="256" cy="256" r="256"/>
<path style="fill:#235C81;" d="M506.315,309.815L341.113,144.612L126.801,403l108.132,108.132C241.882,511.698,248.905,512,256,512
	C378.923,512,481.593,425.357,506.315,309.815z"/>
<path style="fill:#C7E9FF;" d="M136.275,228.725C136.275,162.708,189.984,109,256,109l67.921,119.725L256,348.449
	C189.984,348.449,136.275,294.741,136.275,228.725z"/>
<path style="fill:#7ACBFF;" d="M256,109c66.016,0,119.725,53.708,119.725,119.725S322.016,348.449,256,348.449V109z"/>
<polygon style="fill:#092A40;" points="221.547,377.16 342.133,342.707 337.061,316.868 256,316.868 "/>
<polygon style="fill:#235C81;" points="256,316.868 174.937,316.867 169.867,342.707 256,377.16 "/>
<g>
	<polygon style="fill:#FFFFFF;" points="350.315,220.111 333.089,220.111 333.089,202.885 315.862,202.885 315.862,220.111 
		298.636,220.111 298.636,237.338 315.862,237.338 315.862,254.564 333.089,254.564 333.089,237.338 350.315,237.338 	"/>
	<rect x="281.41" y="179.92" style="fill:#FFFFFF;" width="17.227" height="17.227"/>
	<rect x="281.41" y="260.31" style="fill:#FFFFFF;" width="17.227" height="17.227"/>
</g>
<path style="fill:#FF4181;" d="M385.199,385.773c0-23.747-19.319-43.066-43.066-43.066H256l-34.453,34.453L256,403h129.199V385.773z
	"/>
<path style="fill:#FF755C;" d="M169.867,342.707c-23.747,0-43.066,19.32-43.066,43.066V403H256v-60.293H169.867z"/>
<g>
</g>
<g>
</g>
<g>
</g>
<g>
</g>
<g>
</g>
<g>
</g>
<g>
</g>
<g>
</g>
<g>
</g>
<g>
</g>
<g>
</g>
<g>
</g>
<g>
</g>
<g>
</g>
<g>
</g>
</svg>
