<?xml version="1.0" encoding="iso-8859-1"?>
<!-- Generator: Adobe Illustrator 19.0.0, SVG Export Plug-In . SVG Version: 6.00 Build 0)  -->
<svg version="1.1" id="Capa_1" xmlns="http://www.w3.org/2000/svg" xmlns:xlink="http://www.w3.org/1999/xlink" x="0px" y="0px"
	 viewBox="0 0 512 512" style="enable-background:new 0 0 512 512;" xml:space="preserve">
<circle style="fill:#FFB14E;" cx="256" cy="256" r="256"/>
<path style="fill:#FF755C;" d="M511.938,260.904C448.539,198.004,349.785,97,349.785,97l-75.152,38l-37.266-38L118.091,394.909
	c0,0,60.123,60.217,116.026,116.151c7.215,0.61,14.51,0.94,21.883,0.94C395.745,512,509.322,400.024,511.938,260.904z"/>
<polygon style="fill:#D63D76;" points="218.734,115.633 218.734,190.164 162.215,190.164 162.215,134.266 "/>
<polygon style="fill:#AD396B;" points="237.367,134.266 237.367,171.531 200.102,190.164 200.102,115.633 "/>
<polygon style="fill:#843561;" points="349.785,134.266 349.785,190.164 293.266,190.164 293.266,115.633 "/>
<polygon style="fill:#AD396B;" points="311.898,115.633 311.898,190.164 274.633,171.531 274.633,134.266 "/>
<rect x="274.63" y="97" style="fill:#092A40;" width="75.15" height="37.27"/>
<rect x="162.22" y="97" style="fill:#3A2F4D;" width="75.15" height="37.27"/>
<polygon style="fill:#092A40;" points="274.633,171.531 311.898,246.063 256,246.063 229.914,208.797 256,171.531 "/>
<polygon style="fill:#AD396B;" points="256,171.531 256,246.063 200.102,246.063 237.367,171.531 "/>
<path style="fill:#5B3256;" d="M399.529,207.536c-2.305-19.853-20.441-36.004-40.427-36.004h-84.469v173.285l139.897-8.111
	L399.529,207.536z"/>
<path style="fill:#092A40;" d="M344.816,415c-38.699,0-70.184-31.484-70.184-70.184s31.484-70.184,70.184-70.184
	S415,306.117,415,344.816S383.516,415,344.816,415z"/>
<path style="fill:#FFB14E;" d="M344.816,293.266c-28.425,0-51.551,23.125-51.551,51.551s23.125,51.551,51.551,51.551
	s51.551-23.125,51.551-51.551S373.242,293.266,344.816,293.266z"/>
<path style="fill:#FF9356;" d="M344.816,377.734c-18.151,0-32.918-14.767-32.918-32.918s14.767-32.918,32.918-32.918
	s32.918,14.767,32.918,32.918S362.967,377.734,344.816,377.734z"/>
<path style="fill:#843561;" d="M112.471,207.536c2.305-19.853,20.441-36.004,40.427-36.004h84.469v173.285L97.47,336.705
	L112.471,207.536z"/>
<path style="fill:#3A2F4D;" d="M97,344.816c0-38.699,31.484-70.184,70.184-70.184s70.184,31.484,70.184,70.184
	S205.883,415,167.184,415S97,383.516,97,344.816z"/>
<path style="fill:#FFCE47;" d="M115.633,344.816c0,28.425,23.125,51.551,51.551,51.551s51.551-23.125,51.551-51.551
	s-23.125-51.551-51.551-51.551S115.633,316.391,115.633,344.816z"/>
<path style="fill:#FFB14E;" d="M134.266,344.816c0-18.151,14.767-32.918,32.918-32.918s32.918,14.767,32.918,32.918
	s-14.767,32.918-32.918,32.918S134.266,362.967,134.266,344.816z"/>
<g>
</g>
<g>
</g>
<g>
</g>
<g>
</g>
<g>
</g>
<g>
</g>
<g>
</g>
<g>
</g>
<g>
</g>
<g>
</g>
<g>
</g>
<g>
</g>
<g>
</g>
<g>
</g>
<g>
</g>
</svg>
