<?xml version="1.0" encoding="iso-8859-1"?>
<!-- Generator: Adobe Illustrator 19.0.0, SVG Export Plug-In . SVG Version: 6.00 Build 0)  -->
<svg version="1.1" id="Capa_1" xmlns="http://www.w3.org/2000/svg" xmlns:xlink="http://www.w3.org/1999/xlink" x="0px" y="0px"
	 viewBox="0 0 512 512" style="enable-background:new 0 0 512 512;" xml:space="preserve">
<circle style="fill:#AD396B;" cx="256" cy="256" r="256"/>
<path style="fill:#5B3256;" d="M511.943,260.498L329.945,78.5l-18.486,18.486h-6.648l-18-18.486l-18.486,18.486h-6.648l-18-18.486
	l-18.486,18.486h-6.648l-18-18.486l-0.898,123.629L163.57,338.541L117.353,394l117.088,117.088C241.55,511.681,248.737,512,256,512
	C395.881,512,509.541,399.806,511.943,260.498z"/>
<path style="fill:#FFCE47;" d="M394.647,384.757c0-25.483-20.732-46.216-46.216-46.216l-129.404-36.973L256,394h138.647V384.757z"/>
<g>
	<path style="fill:#FFE290;" d="M163.568,338.541c-25.483,0-46.216,20.732-46.216,46.216V394H256v-92.432L163.568,338.541z"/>
	<polygon style="fill:#FFE290;" points="256,338.541 348.432,338.541 348.432,301.568 219.027,264.596 	"/>
</g>
<polygon style="fill:#FFF5D9;" points="256,264.596 163.568,301.568 163.568,338.541 256,338.541 "/>
<polygon style="fill:#FFCE47;" points="256,301.568 348.432,301.568 312.357,202.129 237.514,183.642 "/>
<g>
	<polygon style="fill:#FFE290;" points="256,183.642 199.643,202.129 163.568,301.568 256,301.568 	"/>
	<polygon style="fill:#FFE290;" points="256,202.129 312.357,202.129 329.945,165.156 237.514,146.67 	"/>
</g>
<polygon style="fill:#FFF5D9;" points="256,146.67 182.055,165.156 199.643,202.129 256,202.129 "/>
<polygon style="fill:#FFCE47;" points="311.459,78.5 311.459,96.986 286.811,96.986 286.811,78.5 268.324,78.5 268.324,96.986 
	256,96.986 237.514,131.969 256,165.156 329.945,165.156 329.945,78.5 "/>
<polygon style="fill:#FFE290;" points="243.676,96.986 243.676,78.5 225.189,78.5 225.189,96.986 200.541,96.986 200.541,78.5 
	182.055,78.5 182.055,165.156 256,165.156 256,96.986 "/>
<g>
</g>
<g>
</g>
<g>
</g>
<g>
</g>
<g>
</g>
<g>
</g>
<g>
</g>
<g>
</g>
<g>
</g>
<g>
</g>
<g>
</g>
<g>
</g>
<g>
</g>
<g>
</g>
<g>
</g>
</svg>
