<?xml version="1.0" encoding="iso-8859-1"?>
<!-- Generator: Adobe Illustrator 19.0.0, SVG Export Plug-In . SVG Version: 6.00 Build 0)  -->
<svg version="1.1" id="Capa_1" xmlns="http://www.w3.org/2000/svg" xmlns:xlink="http://www.w3.org/1999/xlink" x="0px" y="0px"
	 viewBox="0 0 512 512" style="enable-background:new 0 0 512 512;" xml:space="preserve">
<circle style="fill:#FFE290;" cx="256" cy="256" r="256"/>
<path style="fill:#FFCE47;" d="M511.938,260.882c-66.942-67.045-158.87-158.643-158.87-158.643l-143.47,338.565
	c0,0,31.405,31.509,69.924,70.11C408.284,499.181,509.482,392.115,511.938,260.882z"/>
<polygon style="fill:#235C81;" points="221.841,328.802 199.067,351.576 199.068,393.399 221.841,416.173 "/>
<polygon style="fill:#092A40;" points="290.162,416.173 312.935,393.399 312.933,351.576 290.162,328.802 "/>
<path style="fill:#FF755C;" d="M312.935,393.399H256l-22.773,28.467L256,450.333h22.777c9.1,0,17.671-3.56,24.135-10.025
	c6.465-6.465,10.025-15.036,10.024-24.136L312.935,393.399z"/>
<path style="fill:#FF9356;" d="M199.068,393.399l0.001,22.774c0.001,18.836,15.325,34.159,34.161,34.159H256v-56.933H199.068z"/>
<path style="fill:#4EB9FF;" d="M210.453,204.172L256,351.576h56.933l53.086-72.325c1.634-2.215,3.195-4.469,4.683-6.758
	L210.453,204.172z"/>
<path style="fill:#7ACBFF;" d="M141.296,272.492c1.484,2.283,3.041,4.529,4.669,6.737l53.102,72.346H256V204.172L141.296,272.492z"
	/>
<path style="fill:#FFB14E;" d="M119.36,198.307c0,26.594,7.563,52.079,21.936,74.185h57.369L256,61.667
	C180.657,61.667,119.36,122.964,119.36,198.307z"/>
<path style="fill:#FF9356;" d="M187.68,198.307c0,26.592,3.793,52.064,10.985,74.185H256l34.16-84.053L256,61.667
	C256,61.667,187.68,122.964,187.68,198.307z"/>
<path style="fill:#FF4181;" d="M256,61.667l57.335,210.825h57.367c14.378-22.118,21.938-47.597,21.938-74.185
	C392.64,122.964,331.343,61.667,256,61.667z"/>
<path style="fill:#FF755C;" d="M313.335,272.492c7.191-22.121,10.985-47.592,10.985-74.185c0-75.344-30.648-136.64-68.32-136.64
	c0,0,0,105.71,0,210.825H313.335z"/>
<g>
</g>
<g>
</g>
<g>
</g>
<g>
</g>
<g>
</g>
<g>
</g>
<g>
</g>
<g>
</g>
<g>
</g>
<g>
</g>
<g>
</g>
<g>
</g>
<g>
</g>
<g>
</g>
<g>
</g>
</svg>
