<?xml version="1.0" encoding="iso-8859-1"?>
<!-- Generator: Adobe Illustrator 19.0.0, SVG Export Plug-In . SVG Version: 6.00 Build 0)  -->
<svg version="1.1" id="Capa_1" xmlns="http://www.w3.org/2000/svg" xmlns:xlink="http://www.w3.org/1999/xlink" x="0px" y="0px"
	 viewBox="0 0 512 512" style="enable-background:new 0 0 512 512;" xml:space="preserve">
<circle style="fill:#7ACBFF;" cx="256" cy="256" r="256"/>
<path style="fill:#45A2E0;" d="M512,256c0-1.727-0.031-3.446-0.065-5.164c-61.944-61.945-131.208-130.307-131.208-130.307
	l-63.006,34.877l-34.883-34.877l-63.006,34.877l-34.883-34.877l-52.676,52.676c0,0,27.152,27.161,27.229,27.24l-50.335,101.153
	c5.751,4.916,29.828,29.469,29.828,29.469l-12.621,71.847l108.184,108.184C241.629,511.685,248.777,512,256,512
	C397.385,512,512,397.385,512,256z"/>
<path style="fill:#FFCE47;" d="M391.171,146.367c0-20.557-16.725-37.282-37.282-37.282l-21.15,37.282l21.15,37.282
	C374.446,183.649,391.171,166.924,391.171,146.367z"/>
<path style="fill:#FFE290;" d="M353.889,109.085c-20.557,0-37.282,16.725-37.282,37.282s16.725,37.282,37.282,37.282V109.085z"/>
<path style="fill:#FFCE47;" d="M293.282,146.367c0-20.557-16.725-37.282-37.282-37.282l-21.15,37.282L256,183.649
	C276.557,183.649,293.282,166.924,293.282,146.367z"/>
<path style="fill:#FFE290;" d="M256,109.085c-20.557,0-37.282,16.725-37.282,37.282s16.725,37.282,37.282,37.282V109.085z"/>
<path style="fill:#FFCE47;" d="M195.393,146.367c0-20.557-16.725-37.282-37.282-37.282l-21.15,37.282l21.15,37.282
	C178.668,183.649,195.393,166.924,195.393,146.367z"/>
<path style="fill:#FFE290;" d="M158.111,109.085c-20.557,0-37.282,16.725-37.282,37.282s16.725,37.282,37.282,37.282V109.085z"/>
<polygon style="fill:#092A40;" points="353.889,402.915 385.626,402.915 385.626,279.598 334.101,279.598 "/>
<rect x="322.15" y="279.6" style="fill:#174461;" width="31.737" height="123.32"/>
<polygon style="fill:#092A40;" points="385.626,200.445 368.419,251.022 385.626,301.599 402.833,301.599 402.833,200.445 "/>
<polygon style="fill:#45A2E0;" points="362.492,200.445 334.569,256.448 353.889,301.599 385.626,301.599 385.626,200.445 "/>
<polygon style="fill:#4EB9FF;" points="345.285,200.445 322.151,200.445 296.341,251.022 322.151,301.599 353.889,301.599 
	353.889,260.622 "/>
<polygon style="fill:#174461;" points="304.944,200.445 287.737,251.022 304.944,301.599 322.151,301.599 322.151,200.445 "/>
<polygon style="fill:#092A40;" points="362.492,200.445 353.889,200.445 351.021,209.049 351.021,275.788 353.889,284.392 
	362.492,284.392 "/>
<rect x="345.29" y="200.44" style="fill:#174461;" width="8.604" height="83.946"/>
<polygon style="fill:#092A40;" points="256,402.915 287.737,402.915 287.737,279.598 236.212,279.598 "/>
<rect x="224.26" y="279.6" style="fill:#174461;" width="31.737" height="123.32"/>
<polygon style="fill:#092A40;" points="287.737,200.445 270.53,251.022 287.737,301.599 304.944,301.599 304.944,200.445 "/>
<polygon style="fill:#45A2E0;" points="264.603,200.445 236.68,256.448 256,301.599 287.737,301.599 287.737,200.445 "/>
<polygon style="fill:#4EB9FF;" points="247.396,200.445 224.263,200.445 198.452,251.022 224.263,301.599 256,301.599 256,260.622 
	"/>
<polygon style="fill:#174461;" points="207.056,200.445 189.849,251.022 207.056,301.599 224.263,301.599 224.263,200.445 "/>
<polygon style="fill:#092A40;" points="158.111,402.915 189.849,402.915 189.849,279.598 138.323,279.598 "/>
<rect x="126.37" y="279.6" style="fill:#174461;" width="31.737" height="123.32"/>
<polygon style="fill:#092A40;" points="189.849,200.445 172.641,251.022 189.849,301.599 207.056,301.599 207.056,200.445 "/>
<polygon style="fill:#45A2E0;" points="166.715,200.445 138.791,256.448 158.111,301.599 189.849,301.599 189.849,200.445 "/>
<polygon style="fill:#174461;" points="109.167,200.445 109.167,301.599 126.374,301.599 143.581,251.022 126.374,200.445 "/>
<polygon style="fill:#4EB9FF;" points="149.508,200.445 126.374,200.445 126.374,301.599 158.111,301.599 158.111,260.622 "/>
<polygon style="fill:#092A40;" points="264.604,200.445 256,200.445 253.132,209.049 253.132,275.788 256,284.392 264.604,284.392 
	"/>
<rect x="247.4" y="200.44" style="fill:#174461;" width="8.604" height="83.946"/>
<polygon style="fill:#092A40;" points="166.715,200.445 158.111,200.445 155.243,209.049 155.243,275.788 158.111,284.392 
	166.715,284.392 "/>
<rect x="149.51" y="200.44" style="fill:#174461;" width="8.604" height="83.946"/>
<g>
</g>
<g>
</g>
<g>
</g>
<g>
</g>
<g>
</g>
<g>
</g>
<g>
</g>
<g>
</g>
<g>
</g>
<g>
</g>
<g>
</g>
<g>
</g>
<g>
</g>
<g>
</g>
<g>
</g>
</svg>
