<?xml version="1.0" encoding="iso-8859-1"?>
<!-- Generator: Adobe Illustrator 19.0.0, SVG Export Plug-In . SVG Version: 6.00 Build 0)  -->
<svg version="1.1" id="Capa_1" xmlns="http://www.w3.org/2000/svg" xmlns:xlink="http://www.w3.org/1999/xlink" x="0px" y="0px"
	 viewBox="0 0 512 512" style="enable-background:new 0 0 512 512;" xml:space="preserve">
<circle style="fill:#FF4181;" cx="256" cy="256" r="256"/>
<g>
	<path style="fill:#AD396B;" d="M399.795,467.065v0.754c0.217-0.147,0.43-0.3,0.646-0.448v-0.306H399.795z"/>
	<path style="fill:#AD396B;" d="M511.961,252.937c-29.001-27.047-58.928-53.222-85.35-79.644c-15.326-15.326-46-46-46-46
		s-18.886-14.16-30.398-16.57c-0.247-0.255-19.759-19.745-19.759-19.745L109.228,262.594c0,0,55.336,55.359,55.51,55.532v39.048
		l-18.882-19l-18.882,18.882l18.882,18.882l-18.882,18.882L243.86,511.706c4.024,0.188,8.07,0.294,12.14,0.294
		c8.342,0,16.587-0.413,24.725-1.193c43.865-4.204,84.496-19.471,119.07-42.987v-0.754h0.646v0.306
		C467.797,421.255,512,343.794,512,256C512,254.976,511.973,253.958,511.961,252.937z"/>
</g>
<polygon style="fill:#FFCE47;" points="347.262,307.06 322.087,325.942 322.086,275.947 303.205,275.947 303.205,363.707 
	328.38,344.825 328.38,394.82 347.262,394.82 "/>
<rect x="265.44" y="275.95" style="fill:#45A2E0;" width="18.882" height="18.882"/>
<rect x="227.68" y="275.95" style="fill:#4EB9FF;" width="18.882" height="18.882"/>
<rect x="265.44" y="313.71" style="fill:#45A2E0;" width="18.882" height="18.882"/>
<rect x="227.68" y="338.17" style="fill:#4EB9FF;" width="18.882" height="18.882"/>
<rect x="265.44" y="375.94" style="fill:#45A2E0;" width="18.882" height="18.882"/>
<g>
	<rect x="227.68" y="375.94" style="fill:#4EB9FF;" width="18.882" height="18.882"/>
	<rect x="126.97" y="338.17" style="fill:#4EB9FF;" width="18.882" height="18.882"/>
	<rect x="126.97" y="375.94" style="fill:#4EB9FF;" width="18.882" height="18.882"/>
</g>
<g>
	<rect x="375.58" y="338.17" style="fill:#45A2E0;" width="18.882" height="18.882"/>
	<rect x="375.58" y="375.94" style="fill:#45A2E0;" width="18.882" height="18.882"/>
</g>
<polygon style="fill:#FFE290;" points="183.62,394.82 164.738,394.82 164.738,307.06 189.913,325.942 189.913,275.947 
	208.795,275.947 208.795,363.707 183.62,344.825 "/>
<path style="fill:#FFA0C0;" d="M396.053,183.237c4.137-16.946,0.694-34.894-9.701-49.201
	c-10.299-14.176-26.422-23.093-43.792-24.423c-6.613-16.145-19.948-28.643-36.77-34.109c-5.99-1.946-12.195-2.933-18.442-2.933
	c-11.052,0-21.951,3.131-31.348,8.92l-56.646,78.332L256,238.154c8.619,11.475,22.34,18.911,37.764,18.911h38.406
	c8.852,11.767,22.858,18.882,37.751,18.882c26.029,0,47.205-21.176,47.205-47.205C417.125,211.059,409.361,194.516,396.053,183.237z
	"/>
<path style="fill:#FFC0D5;" d="M224.652,72.571c-6.248,0-12.452,0.987-18.442,2.933c-16.821,5.465-30.156,17.964-36.769,34.109
	c-17.37,1.33-33.494,10.247-43.793,24.423c-10.395,14.307-13.837,32.255-9.7,49.201c-13.308,11.279-21.072,27.822-21.072,45.506
	c0,26.029,21.176,47.205,47.205,47.205c14.893,0,28.899-7.115,37.751-18.882h38.406c15.424,0,29.144-7.436,37.763-18.911V81.491
	C246.603,75.702,235.704,72.571,224.652,72.571z"/>
<g>
</g>
<g>
</g>
<g>
</g>
<g>
</g>
<g>
</g>
<g>
</g>
<g>
</g>
<g>
</g>
<g>
</g>
<g>
</g>
<g>
</g>
<g>
</g>
<g>
</g>
<g>
</g>
<g>
</g>
</svg>
