<?xml version="1.0" encoding="iso-8859-1"?>
<!-- Generator: Adobe Illustrator 19.0.0, SVG Export Plug-In . SVG Version: 6.00 Build 0)  -->
<svg version="1.1" id="Capa_1" xmlns="http://www.w3.org/2000/svg" xmlns:xlink="http://www.w3.org/1999/xlink" x="0px" y="0px"
	 viewBox="0 0 512 512" style="enable-background:new 0 0 512 512;" xml:space="preserve">
<circle style="fill:#3B8BC0;" cx="256" cy="256" r="256"/>
<path style="fill:#235C81;" d="M511.974,258.029c-18.169-18.185-35.565-37.327-53.599-55.362c-27.333-27.333-54.667-54.667-82-82
	c-15.284-15.284-31.854-29.611-46-46l-148.75,21.25l21.25,21l106.193,53.375L158.382,397.118c0,0,60.909,60.909,114.325,114.325
	C405.635,502.877,510.925,392.873,511.974,258.029z"/>
<path style="fill:#7ACBFF;" d="M394.833,298.5c0-56.314-34.139-106.941-85.708-128.294V85.292H213.5v330.792l42.5,21.25
	C332.553,437.333,394.833,375.053,394.833,298.5z"/>
<path style="fill:#A3DBFF;" d="M202.875,85.292v84.914c-51.569,21.353-85.708,71.981-85.708,128.294
	c0,76.553,62.28,138.833,138.833,138.833V85.291L202.875,85.292L202.875,85.292z"/>
<path style="fill:#FFF5D9;" d="M373.583,298.5c0-23.349-6.889-45.975-19.921-65.431c-12.99-19.393-31.202-34.342-52.667-43.23
	l-13.12-5.433V85.292H234.75l-1.359,309.63L256,416.083C320.836,416.083,373.583,363.336,373.583,298.5z"/>
<path style="fill:#FFFFFF;" d="M224.125,85.292v99.115l-13.12,5.433c-21.465,8.888-39.677,23.836-52.667,43.23
	c-13.033,19.456-19.921,42.082-19.921,65.431c0,64.836,52.748,117.583,117.583,117.583V85.292
	C256,85.292,224.125,85.292,224.125,85.292z"/>
<g>
	<path style="fill:#FF4181;" d="M352.333,298.5c0-2.606-0.111-5.28-0.329-7.949l-0.798-9.76h-9.792
		c-13.881,0-21.282,4.91-27.228,8.855c-4.822,3.199-8.007,5.312-15.481,5.312c-7.473,0-10.659-2.113-15.481-5.312
		c-5.946-3.945-13.346-8.854-27.225-8.854l-42.5,57.021l42.5,57.021C309.118,394.833,352.333,351.618,352.333,298.5z"/>
	<polygon style="fill:#FF4181;" points="266.625,117.167 256,117.167 248.917,127.792 256,138.417 266.625,138.417 	"/>
</g>
<polygon style="fill:#4EB9FF;" points="330.375,74.667 256,74.667 245.375,85.292 256,95.917 330.375,95.917 "/>
<rect x="181.62" y="74.67" style="fill:#7ACBFF;" width="74.37" height="21.25"/>
<g>
	<path style="fill:#FF755C;" d="M255.997,280.792c-13.881,0-21.281,4.91-27.227,8.855c-4.822,3.199-8.007,5.312-15.48,5.312
		c-7.472,0-10.658-2.113-15.479-5.312c-5.946-3.945-13.346-8.855-27.227-8.855h-9.791l-0.799,9.758
		c-0.218,2.665-0.329,5.339-0.329,7.95c0,53.118,43.215,96.333,96.333,96.333C256,394.833,256,280.792,255.997,280.792z"/>
	<rect x="245.37" y="117.17" style="fill:#FF755C;" width="10.625" height="21.25"/>
</g>
<polygon style="fill:#FF4181;" points="266.625,159.667 256,159.667 248.917,170.292 256,180.917 266.625,180.917 "/>
<rect x="245.37" y="159.67" style="fill:#FF755C;" width="10.625" height="21.25"/>
<polygon style="fill:#FF4181;" points="266.625,202.167 256,202.167 248.917,212.792 256,223.417 266.625,223.417 "/>
<rect x="245.37" y="202.17" style="fill:#FF755C;" width="10.625" height="21.25"/>
<g>
</g>
<g>
</g>
<g>
</g>
<g>
</g>
<g>
</g>
<g>
</g>
<g>
</g>
<g>
</g>
<g>
</g>
<g>
</g>
<g>
</g>
<g>
</g>
<g>
</g>
<g>
</g>
<g>
</g>
</svg>
