<?xml version="1.0" encoding="iso-8859-1"?>
<!-- Generator: Adobe Illustrator 19.0.0, SVG Export Plug-In . SVG Version: 6.00 Build 0)  -->
<svg version="1.1" id="Capa_1" xmlns="http://www.w3.org/2000/svg" xmlns:xlink="http://www.w3.org/1999/xlink" x="0px" y="0px"
	 viewBox="0 0 512 512" style="enable-background:new 0 0 512 512;" xml:space="preserve">
<circle style="fill:#FFE290;" cx="256" cy="256" r="256"/>
<path style="fill:#FFCE47;" d="M512,256c0-6.95-0.287-13.832-0.83-20.642L404.658,128.846l-62.024-25.93h-0.117l-32-33
	L201.483,91.723l21.807,21v4.082c-9.795,1.987-19.269,4.863-28.351,8.513l-34.671-34.924L140.4,394.407
	c0,0,74.213,74.485,117.338,117.571C398.321,511.041,512,396.804,512,256z"/>
<rect x="245.1" y="80.82" style="fill:#5A7587;" width="43.613" height="43.613"/>
<g>
	<rect x="223.29" y="80.82" style="fill:#7C8E99;" width="32.71" height="43.613"/>
	<path style="fill:#7C8E99;" d="M146.707,183.027l-39.364-54.18l52.926-38.452l39.364,54.179L146.707,183.027z"/>
</g>
<path style="fill:#5A7587;" d="M365.293,183.027l-52.926-38.453l39.364-54.179l52.926,38.452L365.293,183.027z"/>
<path style="fill:#7C8E99;" d="M420.277,277.807c0-90.582-73.694-164.276-164.276-164.277l-93.196,164.277L256,442.083
	C346.582,442.083,420.277,368.389,420.277,277.807z"/>
<path style="fill:#9DA6AC;" d="M256,113.53c-90.582,0-164.277,73.694-164.277,164.277S165.418,442.083,256,442.083V113.53z"/>
<path style="fill:#FFF5D9;" d="M387.567,277.807c0-72.546-59.021-131.567-131.566-131.567l-74.639,131.567L256,409.373
	C328.546,409.373,387.567,350.353,387.567,277.807z"/>
<path style="fill:#FFFFFF;" d="M256,146.24c-72.546,0-131.567,59.021-131.567,131.567S183.454,409.373,256,409.373V146.24z"/>
<rect x="266.9" y="266.9" style="fill:#092A40;" width="98.86" height="21.807"/>
<rect x="201.48" y="266.9" style="fill:#235C81;" width="43.613" height="21.807"/>
<polygon style="fill:#9DA6AC;" points="310.517,69.917 256,69.917 245.097,80.82 256,91.723 310.517,91.723 "/>
<rect x="201.48" y="69.917" style="fill:#BFBFBF;" width="54.52" height="21.807"/>
<path style="fill:#5A7587;" d="M277.807,277.807c0-12.024-9.782-21.807-21.807-21.807l-12.371,21.807L256,299.613
	C268.024,299.613,277.807,289.831,277.807,277.807z"/>
<path style="fill:#7C8E99;" d="M256,256c-12.024,0-21.807,9.782-21.807,21.807c0,12.024,9.782,21.807,21.807,21.807V256z"/>
<path style="fill:#FFE290;" d="M289.073,201.12c0-18.237-14.837-33.073-33.073-33.073l-18.763,33.073L256,234.193
	C274.237,234.193,289.073,219.357,289.073,201.12z"/>
<path style="fill:#FFF5D9;" d="M256,168.047c-18.237,0-33.073,14.837-33.073,33.073s14.837,33.073,33.073,33.073V168.047z"/>
<g>
</g>
<g>
</g>
<g>
</g>
<g>
</g>
<g>
</g>
<g>
</g>
<g>
</g>
<g>
</g>
<g>
</g>
<g>
</g>
<g>
</g>
<g>
</g>
<g>
</g>
<g>
</g>
<g>
</g>
</svg>
