<?xml version="1.0" encoding="iso-8859-1"?>
<!-- Generator: Adobe Illustrator 19.0.0, SVG Export Plug-In . SVG Version: 6.00 Build 0)  -->
<svg version="1.1" id="Capa_1" xmlns="http://www.w3.org/2000/svg" xmlns:xlink="http://www.w3.org/1999/xlink" x="0px" y="0px"
	 viewBox="0 0 512 512" style="enable-background:new 0 0 512 512;" xml:space="preserve">
<circle style="fill:#FF4181;" cx="256" cy="256" r="256"/>
<path style="fill:#AD396B;" d="M512,256c0-0.717-0.021-1.428-0.027-2.144c-61.849-61.932-149.721-149.474-149.721-149.474
	L156.244,385.53l26.406,52.803l73.663,73.663C397.554,511.826,512,397.28,512,256z"/>
<path style="fill:#FFE290;" d="M106.366,209.634C106.366,127.125,173.492,60,256,60l44.336,314.561l-144.092-33.252l-32.739-62.199
	C112.293,257.808,106.366,233.783,106.366,209.634z"/>
<path style="fill:#FFCE47;" d="M256,60c82.508,0,149.634,67.125,149.634,149.634c0,24.15-5.927,48.174-17.139,69.476l-32.739,62.199
	L256,374.561V60z"/>
<g>
	<rect x="244.92" y="104.34" style="fill:#FFFFFF;" width="22.17" height="22.17"/>
	
		<rect x="178.297" y="131.927" transform="matrix(-0.7071 0.7071 -0.7071 -0.7071 424.4199 110.223)" style="fill:#FFFFFF;" width="22.17" height="22.17"/>
	<rect x="150.7" y="198.55" style="fill:#FFFFFF;" width="22.17" height="22.17"/>
	
		<rect x="311.533" y="131.931" transform="matrix(0.7071 0.7071 -0.7071 0.7071 195.6201 -186.2368)" style="fill:#FFFFFF;" width="22.17" height="22.17"/>
	<rect x="339.13" y="198.55" style="fill:#FFFFFF;" width="22.17" height="22.17"/>
</g>
<polygon style="fill:#092A40;" points="281.335,194.306 256,149.97 233.832,227.558 "/>
<polygon style="fill:#235C81;" points="256,149.97 230.665,194.306 256,227.558 "/>
<polygon style="fill:#FFF5D9;" points="222.748,280.207 311.42,246.955 281.335,194.306 256,194.306 "/>
<polygon style="fill:#FFFFFF;" points="256,194.306 230.665,194.306 200.58,246.955 256,280.207 "/>
<polygon style="fill:#45A2E0;" points="311.42,246.955 256,246.955 222.748,360.738 311.42,360.738 "/>
<rect x="200.58" y="246.96" style="fill:#4EB9FF;" width="55.42" height="113.78"/>
<polygon style="fill:#BFBFBF;" points="156.244,385.53 182.65,438.333 256,438.333 300.336,352.278 "/>
<polygon style="fill:#9DA6AC;" points="256,438.333 329.358,438.333 355.756,385.529 256,352.278 "/>
<polygon style="fill:#235C81;" points="300.336,363.477 256,341.309 156.244,341.309 156.244,385.53 256,385.529 "/>
<rect x="256" y="341.31" style="fill:#092A40;" width="99.76" height="44.22"/>
<g>
</g>
<g>
</g>
<g>
</g>
<g>
</g>
<g>
</g>
<g>
</g>
<g>
</g>
<g>
</g>
<g>
</g>
<g>
</g>
<g>
</g>
<g>
</g>
<g>
</g>
<g>
</g>
<g>
</g>
</svg>
