<?xml version="1.0" encoding="iso-8859-1"?>
<!-- Generator: Adobe Illustrator 19.0.0, SVG Export Plug-In . SVG Version: 6.00 Build 0)  -->
<svg version="1.1" id="Capa_1" xmlns="http://www.w3.org/2000/svg" xmlns:xlink="http://www.w3.org/1999/xlink" x="0px" y="0px"
	 viewBox="0 0 512 512" style="enable-background:new 0 0 512 512;" xml:space="preserve">
<circle style="fill:#A7CB5C;" cx="256" cy="256" r="256"/>
<path style="fill:#6FA953;" d="M510.16,286.706C449.015,225.56,367.729,144.27,367.729,144.27L116.558,395.442
	c0,0,66.475,66.48,115.424,115.427c7.909,0.736,15.917,1.13,24.018,1.13C386.992,512,494.988,413.611,510.16,286.706z"/>
<path style="fill:#092A40;" d="M176.359,311.274l-59.801,84.169c10.077,10.077,26.474,10.077,36.551,0l41.525-41.525
	L176.359,311.274z"/>
<path style="fill:#235C81;" d="M188.542,323.458l-71.985,71.985c-10.077-10.077-10.077-26.474,0-36.551l41.525-41.525
	L188.542,323.458z"/>
<polygon style="fill:#9DA6AC;" points="194.634,353.917 228.557,319.995 198.097,289.535 176.359,335.642 "/>
<rect x="171.263" y="285.557" transform="matrix(-0.7071 -0.7071 0.7071 -0.7071 95.5442 658.6619)" style="fill:#BFBFBF;" width="25.846" height="47.973"/>
<path style="fill:#092A40;" d="M367.729,314.845c47.027-47.027,47.027-123.547,0-170.574l-133.671,36.903l-36.903,133.671
	C244.183,361.872,320.702,361.872,367.729,314.845z"/>
<path style="fill:#235C81;" d="M367.729,144.27c-47.027-47.027-123.547-47.027-170.574,0s-47.027,123.547,0,170.574L367.729,144.27z
	"/>
<path style="fill:#FFF5D9;" d="M355.546,302.661c40.309-40.309,40.309-105.897,0-146.206l-114.576,31.63L209.339,302.66
	C249.648,342.97,315.236,342.97,355.546,302.661z"/>
<path style="fill:#FFFFFF;" d="M355.546,156.454c-40.309-40.309-105.897-40.309-146.207,0s-40.309,105.897,0,146.207
	L355.546,156.454z"/>
<path style="fill:#4EB9FF;" d="M343.362,290.477c33.591-33.591,33.591-88.248,0-121.839l-95.48,26.359l-26.359,95.48
	C255.114,324.068,309.771,324.068,343.362,290.477z"/>
<path style="fill:#7ACBFF;" d="M343.362,168.638c-33.591-33.591-88.248-33.591-121.839,0s-33.591,88.248,0,121.839L343.362,168.638z
	"/>
<path style="fill:#FF4181;" d="M318.994,266.109c20.155-20.155,20.155-52.949,0-73.103l-57.288,15.816L245.89,266.11
	C266.045,286.264,298.839,286.264,318.994,266.109z"/>
<path style="fill:#FF755C;" d="M318.994,193.006c-20.155-20.155-52.949-20.155-73.103,0s-20.155,52.949,0,73.103L318.994,193.006z"
	/>
<path style="fill:#FFCE47;" d="M294.626,241.741c6.718-6.718,6.718-17.65,0-24.368l-19.096,5.272l-5.272,19.096
	C276.977,248.46,287.908,248.46,294.626,241.741z"/>
<path style="fill:#FFF5D9;" d="M294.626,217.374c-6.718-6.718-17.65-6.718-24.368,0c-6.718,6.718-6.718,17.65,0,24.368
	L294.626,217.374z"/>
<g>
</g>
<g>
</g>
<g>
</g>
<g>
</g>
<g>
</g>
<g>
</g>
<g>
</g>
<g>
</g>
<g>
</g>
<g>
</g>
<g>
</g>
<g>
</g>
<g>
</g>
<g>
</g>
<g>
</g>
</svg>
