<?xml version="1.0" encoding="iso-8859-1"?>
<!-- Generator: Adobe Illustrator 19.0.0, SVG Export Plug-In . SVG Version: 6.00 Build 0)  -->
<svg version="1.1" id="Capa_1" xmlns="http://www.w3.org/2000/svg" xmlns:xlink="http://www.w3.org/1999/xlink" x="0px" y="0px"
	 viewBox="0 0 512 512" style="enable-background:new 0 0 512 512;" xml:space="preserve">
<circle style="fill:#FFE290;" cx="256" cy="256" r="256"/>
<path style="fill:#FFCE47;" d="M507.107,305.985c-57.348-57.433-170.448-170.382-170.448-170.382L196.803,254.372
	c0,0,57.664,57.667,58,58c0.018,0.019,0.037,0.037,0.055,0.056L117.5,394.121L234.469,511.09c7.1,0.591,14.278,0.909,21.531,0.909
	C380.278,512,483.857,423.438,507.107,305.985z"/>
<path style="fill:#4EB9FF;" d="M394.5,385.465c0-40.273-32.764-73.037-73.037-73.037l-97.924,32.461L256,394.121h138.5V385.465z"/>
<path style="fill:#7ACBFF;" d="M190.537,312.428c-40.273,0-73.037,32.764-73.037,73.037v8.656H256v-49.232L190.537,312.428z"/>
<path style="fill:#A3DBFF;" d="M256,312.428l-16.261,24.346L256,361.119c30.938,0,57.066-20.534,65.463-48.691L256,312.428
	L256,312.428z"/>
<path style="fill:#C7E9FF;" d="M190.537,312.428c8.397,28.157,34.525,48.691,65.463,48.691v-48.691H190.537z"/>
<path style="fill:#FF4181;" d="M294.683,117.879c-14.356,0-28.045,5.223-38.683,14.557l-48.691,82.271L256,296.978l3.69-1.884
	c0.948-0.484,23.483-12.085,46.3-32.133c13.559-11.913,24.403-24.361,32.229-36.998c10.062-16.247,15.164-32.863,15.164-49.384
	C353.383,144.211,327.05,117.879,294.683,117.879z"/>
<path style="fill:#FF755C;" d="M217.317,117.879c-32.367,0-58.7,26.333-58.7,58.7c0,16.521,5.102,33.137,15.164,49.384
	c7.826,12.637,18.669,25.085,32.229,36.998c22.817,20.047,45.352,31.648,46.3,32.133l3.69,1.884V132.436
	C245.362,123.102,231.673,117.879,217.317,117.879z"/>
<g>
</g>
<g>
</g>
<g>
</g>
<g>
</g>
<g>
</g>
<g>
</g>
<g>
</g>
<g>
</g>
<g>
</g>
<g>
</g>
<g>
</g>
<g>
</g>
<g>
</g>
<g>
</g>
<g>
</g>
</svg>
