<?xml version="1.0" encoding="iso-8859-1"?>
<!-- Generator: Adobe Illustrator 19.0.0, SVG Export Plug-In . SVG Version: 6.00 Build 0)  -->
<svg version="1.1" id="Capa_1" xmlns="http://www.w3.org/2000/svg" xmlns:xlink="http://www.w3.org/1999/xlink" x="0px" y="0px"
	 viewBox="0 0 512 512" style="enable-background:new 0 0 512 512;" xml:space="preserve">
<circle style="fill:#FF4181;" cx="256" cy="256" r="256"/>
<path style="fill:#AD396B;" d="M510.658,282.35L345.809,117.5l-40.576,12.173H256h-37.232l-12-12.173l-40.576,40.576l12,12h0.173
	v86.465l-12.173,40.576l17,16L117.5,394.5l116.554,116.554C241.289,511.668,248.605,512,256,512
	C388.488,512,497.467,411.355,510.658,282.35z"/>
<rect x="317.4" y="149.96" style="fill:#092A40;" width="16.23" height="114.69"/>
<rect x="178.36" y="149.96" style="fill:#235C81;" width="16.23" height="114.69"/>
<g>
	<polygon style="fill:#092A40;" points="313.348,129.673 256,129.673 247.885,137.788 256,145.903 313.348,145.903 	"/>
	<polygon style="fill:#092A40;" points="313.348,284.944 313.348,268.714 256,268.714 247.885,276.829 256,284.944 	"/>
</g>
<g>
	<rect x="198.65" y="129.67" style="fill:#235C81;" width="57.35" height="16.23"/>
	<rect x="198.65" y="268.71" style="fill:#235C81;" width="57.35" height="16.23"/>
</g>
<path style="fill:#4EB9FF;" d="M394.5,385.844c0-40.273-32.764-73.037-73.037-73.037l-97.924,32.461L256,394.5h138.5V385.844z"/>
<path style="fill:#7ACBFF;" d="M190.537,312.807c-40.273,0-73.037,32.764-73.037,73.037v8.656H256v-49.232L190.537,312.807z"/>
<path style="fill:#A3DBFF;" d="M256,312.807l-16.261,24.346L256,361.498c30.938,0,57.066-20.534,65.463-48.691L256,312.807
	L256,312.807z"/>
<path style="fill:#C7E9FF;" d="M190.537,312.807c8.397,28.157,34.525,48.691,65.463,48.691v-48.691H190.537z"/>
<path style="fill:#FFD86C;" d="M206.768,158.076h-40.576V117.5h40.576V158.076z"/>
<path style="fill:#FFCE47;" d="M345.809,158.076h-40.576V117.5h40.576V158.076z"/>
<path style="fill:#FFD86C;" d="M206.768,297.117h-40.576v-40.576h40.576V297.117z"/>
<path style="fill:#FFCE47;" d="M345.809,297.117h-40.576v-40.576h40.576V297.117z"/>
<polygon style="fill:#092A40;" points="264.115,199.193 264.115,174.848 256,174.848 253.295,182.963 253.295,231.654 256,239.77 
	264.115,239.77 264.115,215.424 288.461,215.424 288.461,199.193 "/>
<polygon style="fill:#235C81;" points="247.885,174.848 247.885,199.193 223.539,199.193 223.539,215.424 247.885,215.424 
	247.885,239.77 256,239.77 256,174.848 "/>
<g>
</g>
<g>
</g>
<g>
</g>
<g>
</g>
<g>
</g>
<g>
</g>
<g>
</g>
<g>
</g>
<g>
</g>
<g>
</g>
<g>
</g>
<g>
</g>
<g>
</g>
<g>
</g>
<g>
</g>
</svg>
