<?xml version="1.0" encoding="iso-8859-1"?>
<!-- Generator: Adobe Illustrator 19.0.0, SVG Export Plug-In . SVG Version: 6.00 Build 0)  -->
<svg version="1.1" id="Layer_1" xmlns="http://www.w3.org/2000/svg" xmlns:xlink="http://www.w3.org/1999/xlink" x="0px" y="0px"
	 viewBox="0 0 512 512" style="enable-background:new 0 0 512 512;" xml:space="preserve">
<circle style="fill:#31BAFD;" cx="256" cy="256" r="256"/>
<path style="fill:#2B9ED8;" d="M266.373,511.776c62.016-2.5,123.299-27.407,170.646-74.755
	c47.288-47.288,72.195-108.475,74.749-170.412L393.216,147.23l-86.175,79.026L118.808,364.822L266.373,511.776z"/>
<path style="fill:#E6F3FF;" d="M381.128,369.778H130.874c-9.442,0-17.094-7.654-17.094-17.096V159.318
	c0-9.442,7.654-17.094,17.094-17.094h250.254c9.442,0,17.094,7.654,17.094,17.094v193.365
	C398.222,362.124,390.568,369.778,381.128,369.778z"/>
<path style="fill:#CFDBE6;" d="M381.128,142.222h-124.84v227.556h124.84c9.442,0,17.096-7.654,17.096-17.096V159.318
	C398.222,149.876,390.568,142.222,381.128,142.222z"/>
<path style="fill:#FFD15D;" d="M398.222,159.318c0-9.442-7.654-17.096-17.096-17.096H130.874c-9.442,0-17.096,7.654-17.096,17.096
	v7.901h284.444V159.318z"/>
<path style="fill:#F9B54C;" d="M398.222,159.318c0-9.442-7.654-17.096-17.096-17.096h-124.84v24.997h141.936V159.318z"/>
<path style="fill:#FFD15D;" d="M113.778,350.815v1.867c0,9.442,7.654,17.096,17.096,17.096h250.254
	c9.442,0,17.096-7.654,17.096-17.096v-1.867H113.778z"/>
<path style="fill:#F9B54C;" d="M256.288,350.815v18.963h124.84c9.442,0,17.096-7.654,17.096-17.096v-1.867H256.288z"/>
<g>
	<circle style="fill:#F1543F;" cx="136.826" cy="156.444" r="6.034"/>
	<circle style="fill:#F1543F;" cx="161.185" cy="156.444" r="6.034"/>
	<circle style="fill:#F1543F;" cx="185.527" cy="156.444" r="6.034"/>
</g>
<polygon style="fill:#FC6F58;" points="323.663,284.444 209.886,284.444 209.886,199.111 323.663,199.111 295.219,242.209 "/>
<polygon style="fill:#F1543F;" points="209.886,243.071 209.886,284.444 323.663,284.444 295.8,243.071 "/>
<rect x="205.576" y="199.111" style="fill:#935635;" width="13.791" height="142.222"/>
<g>
</g>
<g>
</g>
<g>
</g>
<g>
</g>
<g>
</g>
<g>
</g>
<g>
</g>
<g>
</g>
<g>
</g>
<g>
</g>
<g>
</g>
<g>
</g>
<g>
</g>
<g>
</g>
<g>
</g>
</svg>
