<?xml version="1.0" encoding="iso-8859-1"?>
<!-- Generator: Adobe Illustrator 19.0.0, SVG Export Plug-In . SVG Version: 6.00 Build 0)  -->
<svg version="1.1" id="Layer_1" xmlns="http://www.w3.org/2000/svg" xmlns:xlink="http://www.w3.org/1999/xlink" x="0px" y="0px"
	 viewBox="0 0 512 512" style="enable-background:new 0 0 512 512;" xml:space="preserve">
<circle style="fill:#2B9ED8;" cx="256" cy="256" r="256"/>
<path style="fill:#386895;" d="M437.019,437.019c47.488-47.488,72.402-108.994,74.776-171.198L393.078,147.104l-219.25,171.818
	l-55.699,45.125l147.746,147.746C328.061,509.407,389.544,484.495,437.019,437.019z"/>
<path style="fill:#E6F3FF;" d="M381.128,369.778H130.874c-9.442,0-17.094-7.654-17.094-17.096V159.318
	c0-9.442,7.654-17.094,17.094-17.094h250.254c9.442,0,17.094,7.654,17.094,17.094v193.365
	C398.222,362.124,390.568,369.778,381.128,369.778z"/>
<path style="fill:#CFDBE6;" d="M381.128,142.222h-124.84v227.556h124.84c9.442,0,17.096-7.654,17.096-17.096V159.318
	C398.222,149.876,390.568,142.222,381.128,142.222z"/>
<path style="fill:#B5F1F4;" d="M398.222,159.318c0-9.442-7.654-17.096-17.096-17.096H130.874c-9.442,0-17.096,7.654-17.096,17.096
	v7.901h284.444V159.318z"/>
<path style="fill:#84DBFF;" d="M398.222,159.318c0-9.442-7.654-17.096-17.096-17.096h-124.84v24.997h141.936V159.318z"/>
<path style="fill:#CFDBE6;" d="M113.778,350.815v1.867c0,9.442,7.654,17.096,17.096,17.096h250.254
	c9.442,0,17.096-7.654,17.096-17.096v-1.867H113.778z"/>
<path style="fill:#B8C9D9;" d="M256.288,350.815v18.963h124.84c9.442,0,17.096-7.654,17.096-17.096v-1.867H256.288z"/>
<g>
	<circle style="fill:#00A49A;" cx="136.826" cy="156.444" r="6.034"/>
	<circle style="fill:#00A49A;" cx="161.185" cy="156.444" r="6.034"/>
	<circle style="fill:#00A49A;" cx="185.527" cy="156.444" r="6.034"/>
</g>
<circle style="fill:#FC6F58;" cx="256" cy="261.172" r="75.852"/>
<path style="fill:#F1543F;" d="M331.852,261.172c0-41.796-33.806-75.688-75.564-75.845v151.69
	C298.046,336.86,331.852,302.968,331.852,261.172z"/>
<circle style="fill:#E6F3FF;" cx="256" cy="261.172" r="57.751"/>
<path style="fill:#CFDBE6;" d="M313.751,261.172c0-31.799-25.702-57.587-57.463-57.744v115.488
	C288.049,318.759,313.751,292.971,313.751,261.172z"/>
<circle style="fill:#FC6F58;" cx="256" cy="261.172" r="37.926"/>
<path style="fill:#F1543F;" d="M293.926,261.172c0-20.849-16.825-37.764-37.638-37.919v75.838
	C277.101,298.936,293.926,282.021,293.926,261.172z"/>
<circle style="fill:#E6F3FF;" cx="256" cy="261.172" r="18.101"/>
<path style="fill:#CFDBE6;" d="M274.101,261.172c0-9.9-7.951-17.93-17.813-18.087v36.173
	C266.15,279.102,274.101,271.072,274.101,261.172z"/>
<path style="fill:#324A5E;" d="M360.296,268.067h-101.71c-3.808,0-6.896-3.087-6.896-6.896s3.088-6.896,6.896-6.896h101.71
	c3.808,0,6.896,3.088,6.896,6.896S364.104,268.067,360.296,268.067z"/>
<g>
</g>
<g>
</g>
<g>
</g>
<g>
</g>
<g>
</g>
<g>
</g>
<g>
</g>
<g>
</g>
<g>
</g>
<g>
</g>
<g>
</g>
<g>
</g>
<g>
</g>
<g>
</g>
<g>
</g>
</svg>
