<?xml version="1.0" encoding="iso-8859-1"?>
<!-- Generator: Adobe Illustrator 19.0.0, SVG Export Plug-In . SVG Version: 6.00 Build 0)  -->
<svg version="1.1" id="Layer_1" xmlns="http://www.w3.org/2000/svg" xmlns:xlink="http://www.w3.org/1999/xlink" x="0px" y="0px"
	 viewBox="0 0 512 512" style="enable-background:new 0 0 512 512;" xml:space="preserve">
<circle style="fill:#E6F3FF;" cx="256" cy="256" r="256"/>
<path style="fill:#CFDBE6;" d="M437.019,437.019c47.199-47.199,72.102-108.244,74.735-170.06l-118.632-119.78L182.043,322.446
	l-63.236,42.303l147.599,147.025C328.411,509.268,389.679,484.359,437.019,437.019z"/>
<path style="fill:#324A5E;" d="M381.128,369.778H130.874c-9.442,0-17.094-7.654-17.094-17.096V159.318
	c0-9.442,7.654-17.094,17.094-17.094h250.254c9.442,0,17.094,7.654,17.094,17.094v193.365
	C398.222,362.124,390.568,369.778,381.128,369.778z"/>
<path style="fill:#2B3B4E;" d="M381.128,142.222H255.426v227.556h125.702c9.442,0,17.096-7.654,17.096-17.096V159.318
	C398.222,149.876,390.568,142.222,381.128,142.222z"/>
<path style="fill:#FFD15D;" d="M398.222,159.318c0-9.442-7.654-17.096-17.096-17.096H130.874c-9.442,0-17.096,7.654-17.096,17.096
	v7.901h284.444V159.318z"/>
<path style="fill:#F9B54C;" d="M398.222,159.318c0-9.442-7.654-17.096-17.096-17.096H255.424v24.997h142.798V159.318z"/>
<path style="fill:#FFD15D;" d="M113.778,350.815v1.867c0,9.442,7.654,17.096,17.096,17.096h250.254
	c9.442,0,17.096-7.654,17.096-17.096v-1.867H113.778z"/>
<path style="fill:#F9B54C;" d="M255.426,350.815v18.963h125.702c9.442,0,17.096-7.654,17.096-17.096v-1.867H255.426z"/>
<g>
	<circle style="fill:#FC6F58;" cx="136.826" cy="156.444" r="6.034"/>
	<circle style="fill:#FC6F58;" cx="161.185" cy="156.444" r="6.034"/>
	<circle style="fill:#FC6F58;" cx="185.527" cy="156.444" r="6.034"/>
</g>
<path style="fill:#90DFAA;" d="M199.111,220.229h-56.889c-1.903,0-3.448-1.545-3.448-3.448s1.545-3.448,3.448-3.448h56.889
	c1.903,0,3.448,1.545,3.448,3.448S201.014,220.229,199.111,220.229z"/>
<path style="fill:#FD8469;" d="M184.889,248.673h-42.667c-1.903,0-3.448-1.545-3.448-3.448s1.545-3.448,3.448-3.448h42.667
	c1.903,0,3.448,1.545,3.448,3.448S186.792,248.673,184.889,248.673z"/>
<path style="fill:#90DFAA;" d="M199.111,277.118h-56.889c-1.903,0-3.448-1.545-3.448-3.448s1.545-3.448,3.448-3.448h56.889
	c1.903,0,3.448,1.545,3.448,3.448S201.014,277.118,199.111,277.118z"/>
<path style="fill:#FD8469;" d="M170.667,305.562h-28.444c-1.903,0-3.448-1.545-3.448-3.448s1.545-3.448,3.448-3.448h28.444
	c1.903,0,3.448,1.545,3.448,3.448S172.57,305.562,170.667,305.562z"/>
<g>
	<path style="fill:#E6F3FF;" d="M369.778,220.229H213.333c-1.903,0-3.448-1.545-3.448-3.448s1.545-3.448,3.448-3.448h156.444
		c1.903,0,3.448,1.545,3.448,3.448S371.681,220.229,369.778,220.229z"/>
	<path style="fill:#E6F3FF;" d="M369.778,248.673H199.111c-1.903,0-3.448-1.545-3.448-3.448s1.545-3.448,3.448-3.448h170.667
		c1.903,0,3.448,1.545,3.448,3.448S371.681,248.673,369.778,248.673z"/>
	<path style="fill:#E6F3FF;" d="M369.778,277.118H213.333c-1.903,0-3.448-1.545-3.448-3.448s1.545-3.448,3.448-3.448h156.444
		c1.903,0,3.448,1.545,3.448,3.448S371.681,277.118,369.778,277.118z"/>
	<path style="fill:#E6F3FF;" d="M369.778,305.562H187.044c-1.903,0-3.448-1.545-3.448-3.448s1.545-3.448,3.448-3.448h182.734
		c1.903,0,3.448,1.545,3.448,3.448S371.681,305.562,369.778,305.562z"/>
</g>
<g>
	<path style="fill:#CFDBE6;" d="M369.778,213.333H255.426v6.896h114.352c1.903,0,3.448-1.545,3.448-3.448
		S371.681,213.333,369.778,213.333z"/>
	<path style="fill:#CFDBE6;" d="M369.778,241.778H255.426v6.896h114.352c1.903,0,3.448-1.545,3.448-3.448
		S371.681,241.778,369.778,241.778z"/>
	<path style="fill:#CFDBE6;" d="M369.778,270.222H255.426v6.896h114.352c1.903,0,3.448-1.545,3.448-3.448
		S371.681,270.222,369.778,270.222z"/>
	<path style="fill:#CFDBE6;" d="M369.778,298.667H255.426v6.896h114.352c1.903,0,3.448-1.545,3.448-3.448
		S371.681,298.667,369.778,298.667z"/>
</g>
<g>
</g>
<g>
</g>
<g>
</g>
<g>
</g>
<g>
</g>
<g>
</g>
<g>
</g>
<g>
</g>
<g>
</g>
<g>
</g>
<g>
</g>
<g>
</g>
<g>
</g>
<g>
</g>
<g>
</g>
</svg>
