<?xml version="1.0" encoding="iso-8859-1"?>
<!-- Generator: Adobe Illustrator 19.0.0, SVG Export Plug-In . SVG Version: 6.00 Build 0)  -->
<svg version="1.1" id="Layer_1" xmlns="http://www.w3.org/2000/svg" xmlns:xlink="http://www.w3.org/1999/xlink" x="0px" y="0px"
	 viewBox="0 0 512 512" style="enable-background:new 0 0 512 512;" xml:space="preserve">
<circle style="fill:#E15050;" cx="256" cy="256" r="256"/>
<path style="fill:#D24146;" d="M511.933,261.373L394.771,144.212l-131.3,101.445L86.98,365.228l145.704,145.704
	C240.366,511.626,248.137,512,256,512C395.588,512,509.069,400.277,511.933,261.373z"/>
<path style="fill:#E6F3FF;" d="M398.222,319.785H113.778V152.71c0-6.744,5.466-12.212,12.212-12.212h260.022
	c6.744,0,12.21,5.467,12.21,12.212V319.785z"/>
<path style="fill:#CFDBE6;" d="M398.222,152.71c0-6.744-5.466-12.21-12.21-12.21H255.426v179.286h142.796V152.71z"/>
<rect x="132.741" y="159.461" style="fill:#324A5E;" width="246.519" height="158.599"/>
<rect x="255.431" y="159.461" style="fill:#2B3B4E;" width="123.833" height="158.599"/>
<path style="fill:#CFDBE6;" d="M416.611,369.778H95.391c-5.554,0-10.056-4.503-10.056-10.056v-36.776
	c0-5.554,4.503-10.056,10.056-10.056h321.221c5.554,0,10.056,4.503,10.056,10.056v36.776
	C426.667,365.275,422.164,369.778,416.611,369.778z"/>
<path style="fill:#B8C9D9;" d="M416.611,312.889H255.426v56.889h161.185c5.554,0,10.056-4.503,10.056-10.056v-36.776
	C426.667,317.392,422.164,312.889,416.611,312.889z"/>
<rect x="184.889" y="199.111" style="fill:#FFD15D;" width="142.222" height="85.333"/>
<rect x="255.431" y="199.111" style="fill:#F9B54C;" width="71.685" height="85.333"/>
<polygon style="fill:#FD8469;" points="327.111,199.111 256,256 184.889,199.111 "/>
<polygon style="fill:#FC6F58;" points="327.111,199.111 255.426,199.111 255.426,255.541 256,256 "/>
<g>
</g>
<g>
</g>
<g>
</g>
<g>
</g>
<g>
</g>
<g>
</g>
<g>
</g>
<g>
</g>
<g>
</g>
<g>
</g>
<g>
</g>
<g>
</g>
<g>
</g>
<g>
</g>
<g>
</g>
</svg>
