<?xml version="1.0" encoding="iso-8859-1"?>
<!-- Generator: Adobe Illustrator 19.0.0, SVG Export Plug-In . SVG Version: 6.00 Build 0)  -->
<svg version="1.1" id="Layer_1" xmlns="http://www.w3.org/2000/svg" xmlns:xlink="http://www.w3.org/1999/xlink" x="0px" y="0px"
	 viewBox="0 0 512 512" style="enable-background:new 0 0 512 512;" xml:space="preserve">
<circle style="fill:#B5F1F4;" cx="256" cy="256" r="256"/>
<path style="fill:#84DBFF;" d="M511.929,261.613L393.082,142.765L280.274,246.846L88.342,366.87l144.341,144.063
	c7.682,0.693,15.455,1.067,23.316,1.067C395.509,512,508.942,400.405,511.929,261.613z"/>
<path style="fill:#324A5E;" d="M398.222,319.785H113.778V152.71c0-6.744,5.466-12.212,12.212-12.212h260.022
	c6.744,0,12.21,5.467,12.21,12.212V319.785z"/>
<path style="fill:#2B3B4E;" d="M398.222,152.709c0-6.744-5.466-12.21-12.21-12.21H255.428v179.286h142.795V152.709z"/>
<rect x="132.741" y="159.461" style="fill:#E6F3FF;" width="246.519" height="158.599"/>
<rect x="255.431" y="159.461" style="fill:#CFDBE6;" width="123.833" height="158.599"/>
<path style="fill:#3D596B;" d="M416.609,369.778H95.389c-5.554,0-10.057-4.503-10.057-10.056v-36.776
	c0-5.554,4.503-10.056,10.057-10.056h321.221c5.554,0,10.056,4.503,10.056,10.056v36.776
	C426.667,365.275,422.164,369.778,416.609,369.778z"/>
<path style="fill:#324A5E;" d="M416.609,312.889H255.426v56.889h161.183c5.554,0,10.056-4.503,10.056-10.056v-36.776
	C426.667,317.392,422.164,312.889,416.609,312.889z"/>
<circle style="fill:#FFFFFF;" cx="256" cy="195.663" r="91.367"/>
<path style="fill:#F4E3C3;" d="M256,104.296c-0.193,0-0.381,0.014-0.574,0.014v182.705c0.193,0.002,0.381,0.016,0.574,0.016
	c50.46,0,91.367-40.907,91.367-91.367S306.46,104.296,256,104.296z"/>
<path style="fill:#FD8469;" d="M256,97.401c-54.182,0-98.263,44.08-98.263,98.263s44.08,98.263,98.263,98.263
	s98.263-44.08,98.263-98.263S310.182,97.401,256,97.401z M315.637,188.768c-0.383-9.492-1.536-18.584-3.389-27.088
	c14.189,6.997,24.164,16.512,27.229,27.088H315.637z M301.828,188.768h-38.933v-38.933c11.923,0.555,23.233,2.517,33.345,5.587
	C299.311,165.535,301.273,176.845,301.828,188.768z M262.896,136.027v-23.842c10.576,3.065,20.09,13.038,27.088,27.229
	C281.479,137.563,272.387,136.409,262.896,136.027z M249.104,112.185v23.84c-9.492,0.383-18.584,1.538-27.088,3.389
	C229.014,125.225,238.528,115.252,249.104,112.185z M249.104,149.835v38.933h-38.933c0.555-11.923,2.517-23.233,5.587-33.346
	C225.871,152.352,237.182,150.39,249.104,149.835z M196.363,188.768h-23.84c3.065-10.576,13.038-20.09,27.229-27.088
	C197.899,170.184,196.746,179.276,196.363,188.768z M196.363,202.559c0.383,9.492,1.536,18.582,3.387,27.086
	c-14.189-6.997-24.162-16.51-27.229-27.086L196.363,202.559L196.363,202.559z M210.172,202.559h38.933v38.931
	c-11.923-0.555-23.235-2.517-33.346-5.587C212.689,225.792,210.727,214.48,210.172,202.559z M249.104,255.298v23.842
	c-10.576-3.067-20.092-13.04-27.089-27.231C230.521,253.762,239.613,254.916,249.104,255.298z M262.896,279.142V255.3
	c9.492-0.383,18.584-1.536,27.089-3.387C282.988,266.102,273.472,276.075,262.896,279.142z M262.896,241.49v-38.931h38.933
	c-0.553,11.921-2.517,23.233-5.587,33.344C286.13,238.973,274.818,240.935,262.896,241.49z M315.637,202.559h23.84
	c-3.067,10.576-13.04,20.09-27.229,27.086C314.101,221.141,315.254,212.051,315.637,202.559z M330.821,156.522
	c-6.711-4.768-14.638-8.875-23.549-12.131c-3.256-8.911-7.363-16.837-12.131-23.549C310.35,128.831,322.832,141.314,330.821,156.522
	z M216.859,120.842c-4.768,6.711-8.875,14.638-12.131,23.549c-8.911,3.256-16.837,7.363-23.549,12.131
	C189.168,141.314,201.65,128.831,216.859,120.842z M181.179,234.803c6.711,4.768,14.638,8.875,23.549,12.131
	c3.256,8.911,7.363,16.839,12.131,23.55C201.65,262.496,189.168,250.011,181.179,234.803z M295.141,270.484
	c4.768-6.711,8.875-14.639,12.131-23.55c8.911-3.256,16.837-7.363,23.549-12.131C322.832,250.011,310.35,262.496,295.141,270.484z"
	/>
<path style="fill:#FC6F58;" d="M256,97.401c-0.193,0-0.381,0.014-0.574,0.014V293.91c0.193,0,0.381,0.014,0.574,0.014
	c54.182,0,98.263-44.08,98.263-98.263S310.182,97.401,256,97.401z M330.821,156.522c-6.711-4.768-14.638-8.875-23.549-12.131
	c-3.256-8.911-7.363-16.837-12.131-23.549C310.35,128.831,322.832,141.314,330.821,156.522z M339.478,188.768h-23.84
	c-0.383-9.492-1.536-18.584-3.389-27.088C326.439,168.677,336.412,178.192,339.478,188.768z M262.896,112.185
	c10.576,3.065,20.09,13.038,27.088,27.229c-8.506-1.851-17.596-3.005-27.088-3.389V112.185z M262.896,149.835
	c11.923,0.555,23.233,2.517,33.345,5.587c3.07,10.111,5.032,21.423,5.587,33.346h-38.933V149.835z M262.896,202.559h38.933
	c-0.553,11.921-2.517,23.233-5.587,33.344c-10.112,3.07-21.423,5.032-33.345,5.587V202.559z M262.896,279.142V255.3
	c9.492-0.383,18.584-1.536,27.089-3.387C282.988,266.102,273.472,276.075,262.896,279.142z M295.141,270.484
	c4.768-6.711,8.875-14.639,12.131-23.55c8.911-3.256,16.837-7.363,23.549-12.131C322.832,250.011,310.35,262.496,295.141,270.484z
	 M312.249,229.645c1.852-8.504,3.005-17.594,3.387-27.086h23.84C336.412,213.135,326.439,222.649,312.249,229.645z"/>
<g>
</g>
<g>
</g>
<g>
</g>
<g>
</g>
<g>
</g>
<g>
</g>
<g>
</g>
<g>
</g>
<g>
</g>
<g>
</g>
<g>
</g>
<g>
</g>
<g>
</g>
<g>
</g>
<g>
</g>
</svg>
