<?xml version="1.0" encoding="iso-8859-1"?>
<!-- Generator: Adobe Illustrator 19.0.0, SVG Export Plug-In . SVG Version: 6.00 Build 0)  -->
<svg version="1.1" id="Layer_1" xmlns="http://www.w3.org/2000/svg" xmlns:xlink="http://www.w3.org/1999/xlink" x="0px" y="0px"
	 viewBox="0 0 512 512" style="enable-background:new 0 0 512 512;" xml:space="preserve">
<circle style="fill:#84DBFF;" cx="256" cy="256" r="256"/>
<path style="fill:#31BAFD;" d="M511.807,265.504L360.081,113.778l-60.409,69.818L117.226,382.707L246.319,511.8
	c3.215,0.119,6.439,0.2,9.681,0.2C394.202,512,506.804,402.482,511.807,265.504z"/>
<rect x="117.226" y="209.23" style="fill:#324A5E;" width="277.549" height="173.459"/>
<rect x="256.293" y="209.23" style="fill:#2B3B4E;" width="138.481" height="173.459"/>
<polygon style="fill:#FFD300;" points="117.226,209.239 256,313.32 394.774,209.239 256,105.158 "/>
<polygon style="fill:#F4A200;" points="256.288,105.374 256.288,313.104 394.774,209.239 "/>
<polygon style="fill:#FFFFFF;" points="151.919,113.778 151.919,235.26 256,313.32 360.081,235.26 360.081,113.778 "/>
<polygon style="fill:#E6F3FF;" points="360.081,113.778 256.288,113.778 256.288,313.104 360.081,235.26 "/>
<path style="fill:#FC6F58;" d="M324.954,224.97v-27.582h-15.529c-1.303-5.061-3.315-9.833-5.908-14.222l10.993-10.993
	l-19.504-19.504l-10.993,10.993c-4.389-2.593-9.163-4.606-14.224-5.91v-15.529h-27.582v15.529
	c-5.061,1.302-9.833,3.315-14.224,5.908l-10.993-10.993l-19.504,19.504l10.993,10.993c-2.593,4.389-4.606,9.161-5.908,14.222H187.04
	v27.582h15.529c1.303,5.061,3.315,9.835,5.91,14.226l-10.993,10.993l19.504,19.504l10.993-10.993
	c4.389,2.593,9.163,4.606,14.222,5.908v15.529h27.583v-15.529c5.061-1.303,9.835-3.315,14.224-5.91l10.992,10.992l19.504-19.504
	l-10.993-10.993c2.593-4.389,4.606-9.163,5.908-14.224h15.532V224.97z M259.586,238.533c-18.042,2.274-33.216-12.9-30.942-30.942
	c1.55-12.293,11.476-22.221,23.769-23.769c18.042-2.274,33.214,12.898,30.942,30.941
	C281.807,227.057,271.879,236.985,259.586,238.533z"/>
<path style="fill:#F1543F;" d="M324.954,224.97v-27.582h-15.529c-1.303-5.061-3.315-9.833-5.908-14.222l10.993-10.993
	l-19.504-19.504l-10.993,10.993c-4.389-2.593-9.163-4.606-14.224-5.908v-15.531h-13.503v41.386
	c16.275,0.167,29.177,14.422,27.069,31.156c-1.55,12.293-11.476,22.221-23.769,23.771c-1.112,0.14-2.212,0.212-3.298,0.224v41.375
	h13.503v-15.529c5.061-1.303,9.835-3.315,14.224-5.908l10.992,10.992l19.504-19.504l-10.993-10.993
	c2.593-4.389,4.606-9.163,5.908-14.222L324.954,224.97L324.954,224.97z"/>
<g>
</g>
<g>
</g>
<g>
</g>
<g>
</g>
<g>
</g>
<g>
</g>
<g>
</g>
<g>
</g>
<g>
</g>
<g>
</g>
<g>
</g>
<g>
</g>
<g>
</g>
<g>
</g>
<g>
</g>
</svg>
