<?xml version="1.0" encoding="iso-8859-1"?>
<!-- Generator: Adobe Illustrator 19.0.0, SVG Export Plug-In . SVG Version: 6.00 Build 0)  -->
<svg version="1.1" id="Layer_1" xmlns="http://www.w3.org/2000/svg" xmlns:xlink="http://www.w3.org/1999/xlink" x="0px" y="0px"
	 viewBox="0 0 512 512" style="enable-background:new 0 0 512 512;" xml:space="preserve">
<circle style="fill:#E6F3FF;" cx="256" cy="256" r="256"/>
<path style="fill:#CFDBE6;" d="M262.804,511.909c132.039-3.446,239.176-106.87,248.522-237.361L329.445,91.907L165.064,249.678
	l-30.758,31.761l98.485,98.485l-33.68,68.291L262.804,511.909z"/>
<polygon style="fill:#324A5E;" points="312.889,448.215 256,419.771 199.111,448.215 199.111,277.549 312.889,277.549 "/>
<polygon style="fill:#2B3B4E;" points="255.426,277.549 255.426,420.059 256,419.771 312.889,448.215 312.889,277.549 "/>
<path style="fill:#FC6F58;" d="M115.502,211.178c0-11.998,14.35-21.951,17.308-33.015c3.06-11.448-4.301-27.226,1.498-37.248
	c5.884-10.168,23.281-11.643,31.534-19.896c8.252-8.252,9.728-25.65,19.896-31.534c10.025-5.799,25.8,1.562,37.248-1.498
	C234.051,85.03,244.003,70.68,256,70.68c11.998,0,21.951,14.35,33.015,17.308c11.448,3.06,27.226-4.301,37.248,1.498
	c10.168,5.884,11.643,23.281,19.896,31.534c8.252,8.252,25.65,9.728,31.534,19.896c5.799,10.025-1.562,25.8,1.498,37.248
	c2.958,11.066,17.308,21.016,17.308,33.015c0,11.998-14.35,21.95-17.308,33.014c-3.06,11.448,4.301,27.226-1.498,37.248
	c-5.884,10.168-23.281,11.643-31.534,19.896c-8.252,8.252-9.728,25.65-19.896,31.534c-10.025,5.799-25.8-1.562-37.248,1.498
	c-11.066,2.958-21.018,17.308-33.015,17.308c-11.998,0-21.951-14.35-33.015-17.308c-11.448-3.06-27.226,4.301-37.248-1.498
	c-10.168-5.884-11.643-23.281-19.896-31.534c-8.252-8.252-25.65-9.728-31.534-19.896c-5.799-10.025,1.562-25.8-1.498-37.248
	C129.851,233.127,115.502,223.175,115.502,211.178z"/>
<path style="fill:#F1543F;" d="M379.19,244.193c2.958-11.066,17.308-21.016,17.308-33.015c0-11.997-14.35-21.949-17.308-33.015
	c-3.06-11.448,4.303-27.224-1.498-37.248c-5.884-10.168-23.281-11.643-31.534-19.896c-8.252-8.252-9.728-25.65-19.896-31.534
	c-10.025-5.799-25.8,1.562-37.248-1.498C277.951,85.03,267.998,70.68,256,70.68c-0.193,0-0.381,0.034-0.574,0.041v280.914
	c0.193,0.007,0.381,0.041,0.574,0.041c11.997,0,21.949-14.35,33.015-17.308c11.448-3.06,27.226,4.303,37.248-1.496
	c10.168-5.884,11.643-23.281,19.896-31.534c8.252-8.252,25.65-9.728,31.534-19.896C383.491,271.419,376.13,255.641,379.19,244.193z"
	/>
<circle style="fill:#FFD15D;" cx="256" cy="211.178" r="94.206"/>
<path style="fill:#F9B54C;" d="M256,116.972c-0.193,0-0.381,0.014-0.574,0.016v188.385c0.193,0.002,0.381,0.016,0.574,0.016
	c52.029,0,94.206-42.179,94.206-94.206S308.029,116.972,256,116.972z"/>
<g>
</g>
<g>
</g>
<g>
</g>
<g>
</g>
<g>
</g>
<g>
</g>
<g>
</g>
<g>
</g>
<g>
</g>
<g>
</g>
<g>
</g>
<g>
</g>
<g>
</g>
<g>
</g>
<g>
</g>
</svg>
