<?xml version="1.0" encoding="iso-8859-1"?>
<!-- Generator: Adobe Illustrator 19.0.0, SVG Export Plug-In . SVG Version: 6.00 Build 0)  -->
<svg version="1.1" id="Layer_1" xmlns="http://www.w3.org/2000/svg" xmlns:xlink="http://www.w3.org/1999/xlink" x="0px" y="0px"
	 viewBox="0 0 512 512" style="enable-background:new 0 0 512 512;" xml:space="preserve">
<circle style="fill:#F4E3C3;" cx="256" cy="256" r="256"/>
<path style="fill:#FED8B2;" d="M509.65,290.704L337.303,118.356l-95.094,159.48L173.54,392.259l117.364,117.364
	C404.427,494.142,494.258,404.254,509.65,290.704z"/>
<path style="fill:#324A5E;" d="M326.68,398.222H185.32c-8.092,0-14.653-6.561-14.653-14.653V128.431
	c0-8.092,6.561-14.653,14.653-14.653h141.36c8.092,0,14.653,6.561,14.653,14.653v255.138
	C341.333,391.663,334.774,398.222,326.68,398.222z"/>
<path style="fill:#2B3B4E;" d="M326.68,113.778h-71.256v284.444h71.256c8.092,0,14.653-6.561,14.653-14.653V128.431
	C341.333,120.337,334.774,113.778,326.68,113.778z"/>
<rect x="178.424" y="128.431" style="fill:#3C5566;" width="155.152" height="227.556"/>
<rect x="255.431" y="128.431" style="fill:#324A5E;" width="78.145" height="227.556"/>
<circle style="fill:#3C5566;" cx="256" cy="376.673" r="11.205"/>
<path style="fill:#324A5E;" d="M256,365.468c-0.195,0-0.383,0.019-0.574,0.029v22.352c0.191,0.01,0.381,0.029,0.574,0.029
	c6.189,0,11.205-5.017,11.205-11.205S262.189,365.468,256,365.468z"/>
<path style="fill:#FD8469;" d="M189.506,235.992L189.506,235.992c-6.12,0-11.081-4.961-11.081-11.081v-96.48h22.164v96.48
	C200.587,231.031,195.625,235.992,189.506,235.992z"/>
<path style="fill:#FFD15D;" d="M211.67,235.992L211.67,235.992c-6.12,0-11.081-4.961-11.081-11.081v-96.48h22.164v96.48
	C222.751,231.031,217.79,235.992,211.67,235.992z"/>
<path style="fill:#FD8469;" d="M233.834,235.992L233.834,235.992c-6.12,0-11.081-4.961-11.081-11.081v-96.48h22.164v96.48
	C244.917,231.031,239.956,235.992,233.834,235.992z"/>
<path style="fill:#FFD15D;" d="M255.998,235.992L255.998,235.992c-6.12,0-11.081-4.961-11.081-11.081v-96.48h22.164v96.48
	C267.081,231.031,262.118,235.992,255.998,235.992z"/>
<path style="fill:#F9B54C;" d="M255.426,128.431v107.532c0.191,0.01,0.379,0.029,0.574,0.029l0,0c6.12,0,11.081-4.961,11.081-11.081
	v-96.48H255.426z"/>
<g>
	<path style="fill:#FC6F58;" d="M278.164,235.992L278.164,235.992c-6.12,0-11.081-4.961-11.081-11.081v-96.48h22.164v96.48
		C289.246,231.031,284.284,235.992,278.164,235.992z"/>
	<path style="fill:#FC6F58;" d="M322.493,235.992L322.493,235.992c-6.12,0-11.081-4.961-11.081-11.081v-96.48h22.164v96.48
		C333.576,231.031,328.613,235.992,322.493,235.992z"/>
</g>
<path style="fill:#F9B54C;" d="M300.329,235.992L300.329,235.992c-6.12,0-11.081-4.961-11.081-11.081v-96.48h22.164v96.48
	C311.41,231.031,306.448,235.992,300.329,235.992z"/>
<g>
</g>
<g>
</g>
<g>
</g>
<g>
</g>
<g>
</g>
<g>
</g>
<g>
</g>
<g>
</g>
<g>
</g>
<g>
</g>
<g>
</g>
<g>
</g>
<g>
</g>
<g>
</g>
<g>
</g>
</svg>
