<?xml version="1.0" encoding="iso-8859-1"?>
<!-- Generator: Adobe Illustrator 19.0.0, SVG Export Plug-In . SVG Version: 6.00 Build 0)  -->
<svg version="1.1" id="Layer_1" xmlns="http://www.w3.org/2000/svg" xmlns:xlink="http://www.w3.org/1999/xlink" x="0px" y="0px"
	 viewBox="0 0 512 512" style="enable-background:new 0 0 512 512;" xml:space="preserve">
<circle style="fill:#E15050;" cx="256" cy="256" r="256"/>
<path style="fill:#D24146;" d="M512,256c0-0.39-0.014-0.777-0.016-1.167L408.354,151.202l-14.445,5.358l-45.508-45.509
	l-64.821,66.469l0,0L105.829,377.247l134.246,134.246C245.343,511.817,250.649,512,256,512C397.384,512,512,397.384,512,256z"/>
<path style="fill:#FFD15D;" d="M422.357,221.986v-36.978h-20.82c-1.746-6.785-4.444-13.183-7.921-19.068l14.738-14.738
	l-26.146-26.148l-14.738,14.738c-5.884-3.477-12.283-6.175-19.068-7.921v-20.818h-36.978v20.82
	c-6.785,1.746-13.184,4.444-19.068,7.921l-14.738-14.738l-26.148,26.148l14.738,14.738c-3.477,5.884-6.175,12.283-7.921,19.066
	h-20.82v36.978h20.82c1.746,6.785,4.444,13.186,7.921,19.07l-14.738,14.738l26.148,26.148l14.738-14.738
	c5.884,3.477,12.283,6.175,19.068,7.921v20.82h36.978v-20.82c6.785-1.746,13.184-4.444,19.068-7.921l14.738,14.736l26.148-26.148
	l-14.738-14.738c3.477-5.884,6.175-12.283,7.921-19.068H422.357z M334.719,240.171c-24.188,3.048-44.53-17.293-41.482-41.482
	c2.077-16.481,15.386-29.789,31.866-31.866c24.188-3.048,44.53,17.292,41.482,41.481
	C364.51,224.785,351.201,238.094,334.719,240.171z"/>
<path style="fill:#F9B54C;" d="M422.357,221.986v-36.978h-20.82c-1.746-6.785-4.444-13.183-7.921-19.068l14.738-14.738
	l-26.146-26.146l-14.738,14.738c-5.885-3.477-12.283-6.175-19.068-7.921v-20.821h-17.986v55.486
	c21.764,0.293,38.991,19.373,36.171,41.767c-2.077,16.482-15.386,29.791-31.866,31.868c-1.45,0.183-2.886,0.276-4.303,0.295v55.475
	h17.984v-20.82c6.785-1.746,13.184-4.444,19.068-7.921l14.738,14.736l26.148-26.146l-14.738-14.738
	c3.477-5.885,6.175-12.283,7.921-19.068h20.818V221.986z"/>
<rect x="115.46" y="196.456" style="fill:#B5F1F4;" width="223.229" height="173.615"/>
<rect x="226.987" y="196.456" style="fill:#84DBFF;" width="111.7" height="173.615"/>
<path style="fill:#E6F3FF;" d="M338.682,382.093H115.46c-6.64,0-12.026-5.384-12.026-12.026V196.451
	c0-6.64,5.384-12.026,12.026-12.026h223.222c6.641,0,12.026,5.384,12.026,12.026v173.618
	C350.708,376.708,345.322,382.093,338.682,382.093z M127.485,358.043h199.171V208.477H127.485V358.043z"/>
<path style="fill:#CFDBE6;" d="M338.682,184.425h-111.7v24.05h99.674v149.566h-99.674v24.05h111.7
	c6.64,0,12.026-5.384,12.026-12.026V196.451C350.708,189.809,345.322,184.425,338.682,184.425z"/>
<polygon style="fill:#38B29A;" points="202.643,307.686 277.052,233.279 326.656,282.883 326.656,358.043 202.643,357.292 "/>
<polygon style="fill:#2C9984;" points="127.485,307.686 177.842,258.081 301.854,357.292 127.485,357.292 "/>
<circle style="fill:#F9B54C;" cx="204.697" cy="237.054" r="21.044"/>
<g>
</g>
<g>
</g>
<g>
</g>
<g>
</g>
<g>
</g>
<g>
</g>
<g>
</g>
<g>
</g>
<g>
</g>
<g>
</g>
<g>
</g>
<g>
</g>
<g>
</g>
<g>
</g>
<g>
</g>
</svg>
