<?xml version="1.0" encoding="iso-8859-1"?>
<!-- Generator: Adobe Illustrator 19.0.0, SVG Export Plug-In . SVG Version: 6.00 Build 0)  -->
<svg version="1.1" id="Layer_1" xmlns="http://www.w3.org/2000/svg" xmlns:xlink="http://www.w3.org/1999/xlink" x="0px" y="0px"
	 viewBox="0 0 512 512" style="enable-background:new 0 0 512 512;" xml:space="preserve">
<circle style="fill:#E6F3FF;" cx="256" cy="256" r="256"/>
<path style="fill:#CFDBE6;" d="M507.106,305.993L355.692,154.579L223.641,305.123l-61.697,57.489l143.56,144.587
	C407.014,487.309,487.021,407.435,507.106,305.993z"/>
<circle style="fill:#324A5E;" cx="256" cy="256" r="142.222"/>
<path style="fill:#2B3B4E;" d="M256,113.778c-0.193,0-0.381,0.014-0.574,0.014v284.415c0.193,0,0.381,0.014,0.574,0.014
	c78.546,0,142.222-63.676,142.222-142.222S334.546,113.778,256,113.778z"/>
<path style="fill:#FFD15D;" d="M256.288,113.785c-0.097,0-0.191-0.007-0.288-0.007c-51.445,0-96.504,27.317-121.478,68.234
	l121.766,73.952L256.288,113.785L256.288,113.785z"/>
<path style="fill:#4CDBC4;" d="M134.522,182.012c-13.157,21.557-20.744,46.885-20.744,73.988c0,52.381,28.338,98.116,70.499,122.796
	l72.011-122.832L134.522,182.012z"/>
<path style="fill:#FD8469;" d="M256.288,255.964l-121.766-73.952c-13.157,21.557-20.744,46.885-20.744,73.988L256.288,255.964z"/>
<g>
</g>
<g>
</g>
<g>
</g>
<g>
</g>
<g>
</g>
<g>
</g>
<g>
</g>
<g>
</g>
<g>
</g>
<g>
</g>
<g>
</g>
<g>
</g>
<g>
</g>
<g>
</g>
<g>
</g>
</svg>
