<?xml version="1.0" encoding="iso-8859-1"?>
<!-- Generator: Adobe Illustrator 19.0.0, SVG Export Plug-In . SVG Version: 6.00 Build 0)  -->
<svg version="1.1" id="Layer_1" xmlns="http://www.w3.org/2000/svg" xmlns:xlink="http://www.w3.org/1999/xlink" x="0px" y="0px"
	 viewBox="0 0 512 512" style="enable-background:new 0 0 512 512;" xml:space="preserve">
<circle style="fill:#324A5E;" cx="256" cy="256" r="256"/>
<path style="fill:#2B3B4E;" d="M437.019,437.019c47.459-47.459,72.371-108.915,74.771-171.079L391.901,146.051L233.589,263.47
	L118.843,364.749l147.563,147.025C328.411,509.268,389.679,484.359,437.019,437.019z"/>
<path style="fill:#E6F3FF;" d="M381.128,369.778H130.874c-9.442,0-17.094-7.654-17.094-17.096V159.318
	c0-9.442,7.654-17.094,17.094-17.094h250.254c9.442,0,17.094,7.654,17.094,17.094v193.365
	C398.222,362.124,390.568,369.778,381.128,369.778z"/>
<path style="fill:#CFDBE6;" d="M381.128,142.222H255.426v227.556h125.702c9.442,0,17.096-7.654,17.096-17.096V159.318
	C398.222,149.876,390.568,142.222,381.128,142.222z"/>
<path style="fill:#B5F1F4;" d="M398.222,159.318c0-9.442-7.654-17.096-17.096-17.096H130.874c-9.442,0-17.096,7.654-17.096,17.096
	v7.901h284.444V159.318z"/>
<path style="fill:#84DBFF;" d="M398.222,159.318c0-9.442-7.654-17.096-17.096-17.096H255.424v24.997h142.798V159.318z"/>
<path style="fill:#B5F1F4;" d="M113.778,350.815v1.867c0,9.442,7.654,17.096,17.096,17.096h250.254
	c9.442,0,17.096-7.654,17.096-17.096v-1.867H113.778z"/>
<path style="fill:#84DBFF;" d="M255.426,350.815v18.963h125.702c9.442,0,17.096-7.654,17.096-17.096v-1.867H255.426z"/>
<g>
	<circle style="fill:#00A49A;" cx="136.826" cy="156.444" r="6.034"/>
	<circle style="fill:#00A49A;" cx="161.185" cy="156.444" r="6.034"/>
	<circle style="fill:#00A49A;" cx="185.527" cy="156.444" r="6.034"/>
</g>
<path style="fill:#F9B54C;" d="M256,183.596c-39.988,0-72.404,32.416-72.404,72.404s32.416,72.404,72.404,72.404
	s72.404-32.416,72.404-72.404S295.988,183.596,256,183.596z M256,291.34c-19.518,0-35.34-15.822-35.34-35.34
	s15.822-35.34,35.34-35.34s35.34,15.822,35.34,35.34S275.516,291.34,256,291.34z"/>
<path style="fill:#FC6F58;" d="M220.66,256c0-13.471,7.54-25.176,18.629-31.139l-17.575-32.64
	c-22.692,12.224-38.117,36.199-38.117,63.781c0,12.136,3.001,23.568,8.278,33.614l32.692-17.513
	C222.086,267.269,220.66,261.806,220.66,256z"/>
<path style="fill:#66B31B;" d="M224.566,272.101l-32.692,17.513c11.964,22.776,35.697,38.379,63.121,38.755v-37.064
	C241.711,290.93,230.281,283.234,224.566,272.101z"/>
<g>
</g>
<g>
</g>
<g>
</g>
<g>
</g>
<g>
</g>
<g>
</g>
<g>
</g>
<g>
</g>
<g>
</g>
<g>
</g>
<g>
</g>
<g>
</g>
<g>
</g>
<g>
</g>
<g>
</g>
</svg>
