<?xml version="1.0" encoding="iso-8859-1"?>
<!-- Generator: Adobe Illustrator 19.0.0, SVG Export Plug-In . SVG Version: 6.00 Build 0)  -->
<svg version="1.1" id="Layer_1" xmlns="http://www.w3.org/2000/svg" xmlns:xlink="http://www.w3.org/1999/xlink" x="0px" y="0px"
	 viewBox="0 0 512 512" style="enable-background:new 0 0 512 512;" xml:space="preserve">
<circle style="fill:#CFDBE6;" cx="256" cy="256" r="256"/>
<path style="fill:#B8C9D9;" d="M288.801,509.916c114.178-14.603,204.821-104.426,220.706-218.196L336.16,118.372L175.114,275.961
	l-1.541,1.577l80.272,80.27l-19.39,97.759L288.801,509.916z"/>
<path style="fill:#FC6F58;" d="M256,465.455L256,465.455c-15.71,0-28.444-12.734-28.444-28.444V294.788h56.889V437.01
	C284.444,452.72,271.71,465.455,256,465.455z"/>
<path style="fill:#F1543F;" d="M255.426,294.788v170.637c0.193,0.003,0.381,0.029,0.574,0.029c15.71,0,28.444-12.734,28.444-28.444
	V294.788H255.426z"/>
<circle style="fill:#324A5E;" cx="256" cy="199.111" r="113.778"/>
<path style="fill:#2B3B4E;" d="M256,85.333c-0.193,0-0.381,0.014-0.574,0.014v227.526c0.193,0,0.381,0.014,0.574,0.014
	c62.838,0,113.778-50.94,113.778-113.778S318.838,85.333,256,85.333z"/>
<circle style="fill:#B5F1F4;" cx="256" cy="199.111" r="85.333"/>
<path style="fill:#84DBFF;" d="M256,113.778c-0.193,0-0.381,0.014-0.574,0.014v170.637c0.193,0,0.381,0.014,0.574,0.014
	c47.128,0,85.333-38.205,85.333-85.333S303.128,113.778,256,113.778z"/>
<rect x="227.556" y="326.68" style="fill:#FD8469;" width="56.889" height="96.539"/>
<g>
	<rect x="255.431" y="326.68" style="fill:#FC6F58;" width="29.018" height="96.539"/>
	<path style="fill:#FC6F58;" d="M324.956,212.902V185.32h-15.529c-1.303-5.061-3.315-9.833-5.908-14.222l10.993-10.993
		L295.009,140.6l-10.993,10.993c-4.389-2.593-9.163-4.606-14.224-5.91v-15.529h-27.582v15.529
		c-5.061,1.302-9.833,3.315-14.224,5.908l-10.993-10.993l-19.504,19.504l10.993,10.993c-2.593,4.389-4.606,9.161-5.908,14.222
		h-15.531v27.582h15.529c1.303,5.061,3.315,9.835,5.91,14.226l-10.993,10.993l19.504,19.504l10.993-10.993
		c4.389,2.593,9.163,4.606,14.222,5.908v15.529h27.582v-15.529c5.061-1.303,9.835-3.315,14.224-5.91l10.992,10.992l19.504-19.504
		l-10.993-10.993c2.593-4.389,4.606-9.163,5.908-14.224h15.532V212.902z M259.586,226.468c-18.042,2.274-33.216-12.9-30.942-30.942
		c1.55-12.293,11.476-22.221,23.769-23.769c18.042-2.274,33.214,12.898,30.942,30.941
		C281.807,214.99,271.881,224.918,259.586,226.468z"/>
</g>
<path style="fill:#F1543F;" d="M324.956,212.902V185.32h-15.529c-1.303-5.061-3.315-9.833-5.908-14.222l10.993-10.993
	l-19.504-19.503l-10.993,10.993c-4.389-2.593-9.163-4.606-14.224-5.91v-15.531h-14.365v41.388
	c16.68-0.338,30.075,14.126,27.931,31.154c-1.55,12.293-11.476,22.221-23.769,23.771c-1.408,0.178-2.794,0.236-4.16,0.209v41.391
	h14.365v-15.529c5.061-1.303,9.835-3.315,14.224-5.91l10.992,10.992l19.504-19.504l-10.993-10.992
	c2.593-4.389,4.606-9.163,5.908-14.222H324.956z"/>
<g>
</g>
<g>
</g>
<g>
</g>
<g>
</g>
<g>
</g>
<g>
</g>
<g>
</g>
<g>
</g>
<g>
</g>
<g>
</g>
<g>
</g>
<g>
</g>
<g>
</g>
<g>
</g>
<g>
</g>
</svg>
