<?xml version="1.0" encoding="iso-8859-1"?>
<!-- Generator: Adobe Illustrator 19.0.0, SVG Export Plug-In . SVG Version: 6.00 Build 0)  -->
<svg version="1.1" id="Layer_1" xmlns="http://www.w3.org/2000/svg" xmlns:xlink="http://www.w3.org/1999/xlink" x="0px" y="0px"
	 viewBox="0 0 512 512" style="enable-background:new 0 0 512 512;" xml:space="preserve">
<circle style="fill:#FD8469;" cx="256" cy="256" r="256"/>
<path style="fill:#FC6F58;" d="M506.551,308.738L391.327,168.364l-18.394,6.758l-47.03-47.03l-14.45-4.544h-27.87l-19.968,19.968
	v79.031l-30.249,45.871l-23.335-8.24v-47.849l-16.484-16.484l-23.742,2.048l-16.655,16.655v131.61l-39.372,59.516l103.4,103.4
	c12.66,1.926,25.624,2.927,38.821,2.927C379.306,512,482.238,424.819,506.551,308.738z"/>
<rect x="206.748" y="168.357" style="fill:#324A5E;" width="184.579" height="237.313"/>
<rect x="298.529" y="168.357" style="fill:#2B3B4E;" width="92.803" height="237.313"/>
<path style="fill:#E6F3FF;" d="M334.196,197.749c-3.531,0-6.392-2.862-6.392-6.392v-31.606c0-15.86-12.905-28.765-28.765-28.765
	s-28.765,12.905-28.765,28.765v31.604c0,3.531-2.862,6.392-6.392,6.392c-3.531,0-6.392-2.862-6.392-6.392v-31.604
	c0-22.911,18.639-41.55,41.55-41.55c22.911,0,41.55,18.639,41.55,41.55v31.604C340.589,194.888,337.727,197.749,334.196,197.749z"/>
<path style="fill:#CFDBE6;" d="M299.041,118.203c-0.172,0-0.343,0.01-0.515,0.014v12.798c0.174-0.003,0.341-0.026,0.515-0.026
	c15.86,0,28.765,12.905,28.765,28.765v31.604c0,3.531,2.862,6.392,6.392,6.392c3.531,0,6.392-2.862,6.392-6.392v-31.608
	C340.589,136.84,321.951,118.203,299.041,118.203z"/>
<rect x="113.778" y="228.228" style="fill:#FFD15D;" width="138.016" height="177.442"/>
<rect x="182.441" y="228.228" style="fill:#F9B54C;" width="69.335" height="177.442"/>
<path style="fill:#E6F3FF;" d="M209.07,250.206c-2.639,0-4.779-2.139-4.779-4.779v-23.631c0-11.859-9.649-21.507-21.507-21.507
	c-11.859,0-21.507,9.649-21.507,21.507v23.631c0,2.639-2.139,4.779-4.779,4.779s-4.779-2.139-4.779-4.779v-23.631
	c0-17.13,13.936-31.066,31.067-31.066s31.066,13.936,31.066,31.066v23.631C213.849,248.067,211.709,250.206,209.07,250.206z"/>
<path style="fill:#CFDBE6;" d="M182.782,190.729c-0.112,0-0.222,0.016-0.334,0.017v9.559c0.112-0.002,0.221-0.017,0.334-0.017
	c11.859,0,21.507,9.649,21.507,21.507v23.631c0,2.639,2.139,4.779,4.779,4.779c2.639,0,4.779-2.139,4.779-4.779v-23.631
	C213.849,204.666,199.913,190.729,182.782,190.729z"/>
<g>
</g>
<g>
</g>
<g>
</g>
<g>
</g>
<g>
</g>
<g>
</g>
<g>
</g>
<g>
</g>
<g>
</g>
<g>
</g>
<g>
</g>
<g>
</g>
<g>
</g>
<g>
</g>
<g>
</g>
</svg>
