<?xml version="1.0" encoding="iso-8859-1"?>
<!-- Generator: Adobe Illustrator 19.0.0, SVG Export Plug-In . SVG Version: 6.00 Build 0)  -->
<svg version="1.1" id="Layer_1" xmlns="http://www.w3.org/2000/svg" xmlns:xlink="http://www.w3.org/1999/xlink" x="0px" y="0px"
	 viewBox="0 0 512 512" style="enable-background:new 0 0 512 512;" xml:space="preserve">
<circle style="fill:#FFD15D;" cx="256" cy="256" r="256"/>
<path style="fill:#F9B54C;" d="M509.65,290.704L337.303,118.356L197.339,339.901l-22.614,53.688L291.15,509.587
	C404.558,494.011,494.27,404.171,509.65,290.704z"/>
<path style="fill:#324A5E;" d="M326.68,398.222H185.32c-8.092,0-14.653-6.561-14.653-14.653V128.431
	c0-8.092,6.561-14.653,14.653-14.653h141.36c8.092,0,14.653,6.561,14.653,14.653v255.138
	C341.333,391.663,334.774,398.222,326.68,398.222z"/>
<path style="fill:#2B3B4E;" d="M326.68,113.778h-70.392v284.444h70.392c8.092,0,14.653-6.561,14.653-14.653V128.431
	C341.333,120.337,334.774,113.778,326.68,113.778z"/>
<rect x="178.424" y="128.431" style="fill:#E6F3FF;" width="155.152" height="227.556"/>
<rect x="256.293" y="128.431" style="fill:#CFDBE6;" width="77.288" height="227.556"/>
<circle style="fill:#3D596B;" cx="256" cy="376.673" r="11.205"/>
<g>
	<path style="fill:#324A5E;" d="M267.205,376.673c0-6.091-4.863-11.036-10.918-11.192v22.381
		C262.342,387.71,267.205,382.764,267.205,376.673z"/>
	<path style="fill:#324A5E;" d="M310.415,154.29H201.583c-2.381,0-4.31,1.929-4.31,4.31v70.68c0,2.381,1.929,4.31,4.31,4.31h108.832
		c2.381,0,4.31-1.929,4.31-4.31v-70.68C314.725,156.219,312.796,154.29,310.415,154.29z M205.895,167.234l42.244,26.705
		l-42.244,26.705L205.895,167.234L205.895,167.234z M214.773,162.909h82.453L256,188.969L214.773,162.909z M256,198.909
		l41.227,26.06h-82.453L256,198.909z M263.861,193.939l42.244-26.705v53.408L263.861,193.939z"/>
</g>
<path style="fill:#2B3B4E;" d="M310.415,154.29h-54.127v8.62h40.939l-40.939,25.879v10.304l40.939,25.879h-40.939v8.62h54.127
	c2.381,0,4.31-1.929,4.31-4.31v-70.682C314.725,156.219,312.796,154.29,310.415,154.29z M306.105,220.644l-42.244-26.705
	l42.244-26.705V220.644z"/>
<rect x="199.111" y="252.983" style="fill:#FD8469;" width="113.778" height="6.896"/>
<g>
	<rect x="199.111" y="274.963" style="fill:#B8C9D9;" width="113.778" height="6.896"/>
	<rect x="199.111" y="296.943" style="fill:#B8C9D9;" width="113.778" height="6.896"/>
</g>
<rect x="256.293" y="252.983" style="fill:#FC6F58;" width="56.601" height="6.896"/>
<g>
	<rect x="256.293" y="274.963" style="fill:#A0B3C1;" width="56.601" height="6.896"/>
	<rect x="256.293" y="296.943" style="fill:#A0B3C1;" width="56.601" height="6.896"/>
</g>
<g>
</g>
<g>
</g>
<g>
</g>
<g>
</g>
<g>
</g>
<g>
</g>
<g>
</g>
<g>
</g>
<g>
</g>
<g>
</g>
<g>
</g>
<g>
</g>
<g>
</g>
<g>
</g>
<g>
</g>
</svg>
