<?xml version="1.0" encoding="iso-8859-1"?>
<!-- Generator: Adobe Illustrator 19.0.0, SVG Export Plug-In . SVG Version: 6.00 Build 0)  -->
<svg version="1.1" id="Layer_1" xmlns="http://www.w3.org/2000/svg" xmlns:xlink="http://www.w3.org/1999/xlink" x="0px" y="0px"
	 viewBox="0 0 512 512" style="enable-background:new 0 0 512 512;" xml:space="preserve">
<circle style="fill:#FC6F58;" cx="256" cy="256" r="256"/>
<path style="fill:#F1543F;" d="M508.973,295.452L327.082,113.561L181.539,309.112l-64.633,53.941l148.749,148.749
	C389.267,507.214,490.479,415.004,508.973,295.452z"/>
<path style="fill:#324A5E;" d="M113.778,354.023v-141.36c0-8.092,6.561-14.653,14.653-14.653h255.138
	c8.092,0,14.653,6.561,14.653,14.653v141.36c0,8.092-6.561,14.653-14.653,14.653H128.431
	C120.337,368.676,113.778,362.117,113.778,354.023z"/>
<path style="fill:#2B3B4E;" d="M383.569,198.01H256v170.667h127.569c8.092,0,14.653-6.559,14.653-14.653v-141.36
	C398.222,204.571,391.661,198.01,383.569,198.01z"/>
<rect x="156.013" y="205.765" style="fill:#3C5566;" width="227.556" height="155.152"/>
<rect x="256" y="205.765" style="fill:#324A5E;" width="127.569" height="155.152"/>
<circle style="fill:#435E70;" cx="135.327" cy="283.341" r="11.205"/>
<path style="fill:#FFD15D;" d="M350.663,159.104c0-37.278-40.293-67.498-89.998-67.498s-89.998,30.22-89.998,67.498
	c0,28.257,23.161,52.445,56.013,62.504c-1.226,18.575-13.059,33.29-13.059,33.29c25.41-5.258,40.117-16.498,48.606-28.324
	C311.208,225.947,350.663,195.991,350.663,159.104z"/>
<path style="fill:#F9B54C;" d="M260.665,91.607c-1.565,0-3.12,0.031-4.665,0.09v142.191c2.37-2.381,4.444-4.83,6.225-7.313
	c48.981-0.628,88.438-30.584,88.438-67.468C350.663,121.827,310.37,91.607,260.665,91.607z"/>
<g>
</g>
<g>
</g>
<g>
</g>
<g>
</g>
<g>
</g>
<g>
</g>
<g>
</g>
<g>
</g>
<g>
</g>
<g>
</g>
<g>
</g>
<g>
</g>
<g>
</g>
<g>
</g>
<g>
</g>
</svg>
