<?xml version="1.0" encoding="iso-8859-1"?>
<!-- Generator: Adobe Illustrator 19.0.0, SVG Export Plug-In . SVG Version: 6.00 Build 0)  -->
<svg version="1.1" id="Layer_1" xmlns="http://www.w3.org/2000/svg" xmlns:xlink="http://www.w3.org/1999/xlink" x="0px" y="0px"
	 viewBox="0 0 512 512" style="enable-background:new 0 0 512 512;" xml:space="preserve">
<circle style="fill:#FFD15D;" cx="256" cy="256" r="256"/>
<path style="fill:#FFC61B;" d="M290.904,509.621c113.507-15.477,203.33-105.343,218.74-218.872L394.712,175.818l-85.271,48.53
	L116.652,335.37L290.904,509.621z"/>
<path style="fill:#324A5E;" d="M113.778,326.68V185.32c0-8.092,6.561-14.653,14.653-14.653h255.138
	c8.092,0,14.653,6.561,14.653,14.653v141.36c0,8.092-6.561,14.653-14.653,14.653H128.431
	C120.337,341.333,113.778,334.772,113.778,326.68z"/>
<path style="fill:#2B3B4E;" d="M113.778,255.426v71.254c0,8.092,6.559,14.653,14.653,14.653h255.138
	c8.092,0,14.653-6.561,14.653-14.653v-71.254L113.778,255.426L113.778,255.426z"/>
<rect x="156.013" y="178.424" style="fill:#3C5566;" width="227.556" height="155.152"/>
<rect x="156.013" y="255.431" style="fill:#324A5E;" width="227.556" height="78.145"/>
<circle style="fill:#3C5566;" cx="135.327" cy="256" r="11.205"/>
<path style="fill:#324A5E;" d="M124.151,255.426c-0.01,0.191-0.029,0.379-0.029,0.574c0,6.189,5.017,11.205,11.205,11.205
	s11.205-5.017,11.205-11.205c0-0.195-0.019-0.383-0.029-0.574H124.151z"/>
<circle style="fill:#FC6F58;" cx="269.791" cy="256" r="56.889"/>
<path style="fill:#F1543F;" d="M212.916,255.426c-0.002,0.191-0.014,0.383-0.014,0.574c0,31.418,25.471,56.889,56.889,56.889
	S326.68,287.418,326.68,256c0-0.193-0.012-0.383-0.016-0.574H212.916z"/>
<polygon style="fill:#E6F3FF;" points="248.573,224.347 304.8,256.81 248.573,289.273 "/>
<polygon style="fill:#CFDBE6;" points="248.573,255.426 248.573,289.273 304.8,256.81 302.402,255.426 "/>
<g>
</g>
<g>
</g>
<g>
</g>
<g>
</g>
<g>
</g>
<g>
</g>
<g>
</g>
<g>
</g>
<g>
</g>
<g>
</g>
<g>
</g>
<g>
</g>
<g>
</g>
<g>
</g>
<g>
</g>
</svg>
