<?xml version="1.0" encoding="iso-8859-1"?>
<!-- Generator: Adobe Illustrator 19.0.0, SVG Export Plug-In . SVG Version: 6.00 Build 0)  -->
<svg version="1.1" id="Layer_1" xmlns="http://www.w3.org/2000/svg" xmlns:xlink="http://www.w3.org/1999/xlink" x="0px" y="0px"
	 viewBox="0 0 512 512" style="enable-background:new 0 0 512 512;" xml:space="preserve">
<circle style="fill:#F4E3C3;" cx="256" cy="256" r="256"/>
<path style="fill:#FED8B2;" d="M290.904,509.621c113.507-15.477,203.33-105.343,218.74-218.871L336.155,117.264l-28.551,49.654
	l-72.406-72.406l-24.305,31.334l76.398,76.4l-85.078,69.499l-50.207,45.196l57.182,56.939l-34.164,20.087L290.904,509.621z"/>
<path style="fill:#324A5E;" d="M326.68,398.222H185.32c-8.092,0-14.653-6.561-14.653-14.653V128.431
	c0-8.092,6.561-14.653,14.653-14.653h141.36c8.092,0,14.653,6.561,14.653,14.653v255.138
	C341.333,391.663,334.774,398.222,326.68,398.222z"/>
<path style="fill:#2B3B4E;" d="M326.68,113.778h-71.254v284.444h71.254c8.092,0,14.653-6.561,14.653-14.653V128.431
	C341.333,120.337,334.774,113.778,326.68,113.778z"/>
<rect x="178.424" y="128.431" style="fill:#3C5566;" width="155.152" height="227.556"/>
<rect x="255.431" y="128.431" style="fill:#324A5E;" width="78.145" height="227.556"/>
<circle style="fill:#3C5566;" cx="256" cy="376.673" r="11.205"/>
<path style="fill:#324A5E;" d="M256,365.468c-0.193,0-0.383,0.019-0.574,0.029v22.352c0.191,0.01,0.381,0.029,0.574,0.029
	c6.189,0,11.205-5.017,11.205-11.205S262.189,365.468,256,365.468z"/>
<circle style="fill:#F9B54C;" cx="331.852" cy="285.306" r="51.717"/>
<path style="fill:#D89030;" d="M383.569,285.306c0-28.465-23-51.555-51.429-51.71v103.421
	C360.569,336.862,383.569,313.772,383.569,285.306z"/>
<circle style="fill:#FFD15D;" cx="331.852" cy="285.306" r="35.34"/>
<g>
	<path style="fill:#F9B54C;" d="M367.192,285.306c0-19.42-15.669-35.169-35.052-35.326v70.651
		C351.523,320.476,367.192,304.726,367.192,285.306z"/>
	<circle style="fill:#F9B54C;" cx="216.35" cy="114.64" r="27.582"/>
</g>
<path style="fill:#D89030;" d="M216.35,87.057c-0.193,0-0.381,0.024-0.574,0.029v55.106c0.193,0.003,0.381,0.029,0.574,0.029
	c15.234,0,27.582-12.35,27.582-27.582C243.933,99.407,231.584,87.057,216.35,87.057z"/>
<circle style="fill:#FFD15D;" cx="216.35" cy="114.64" r="18.847"/>
<g>
	<path style="fill:#F9B54C;" d="M216.35,95.792c-0.193,0-0.381,0.022-0.574,0.029v37.638c0.193,0.005,0.381,0.029,0.574,0.029
		c10.409,0,18.847-8.439,18.847-18.847S226.759,95.792,216.35,95.792z"/>
	<circle style="fill:#F9B54C;" cx="178.424" cy="292.202" r="36.202"/>
</g>
<path style="fill:#D89030;" d="M178.424,256c-0.193,0-0.381,0.026-0.574,0.029v72.345c0.193,0.003,0.381,0.029,0.574,0.029
	c19.994,0,36.202-16.208,36.202-36.202C214.626,272.208,198.418,256,178.424,256z"/>
<circle style="fill:#FFD15D;" cx="178.424" cy="292.202" r="24.738"/>
<g>
	<path style="fill:#F9B54C;" d="M178.424,267.464c-0.193,0-0.381,0.024-0.574,0.029v49.417c0.193,0.005,0.381,0.029,0.574,0.029
		c13.662,0,24.738-11.076,24.738-24.738S192.086,267.464,178.424,267.464z"/>
	<circle style="fill:#F9B54C;" cx="255.138" cy="209.455" r="27.582"/>
</g>
<path style="fill:#D89030;" d="M255.138,181.872c-0.193,0-0.381,0.024-0.574,0.029v55.106c0.193,0.003,0.381,0.029,0.574,0.029
	c15.234,0,27.582-12.35,27.582-27.582C282.721,194.222,270.372,181.872,255.138,181.872z"/>
<circle style="fill:#FFD15D;" cx="255.138" cy="209.455" r="18.847"/>
<path style="fill:#F9B54C;" d="M255.138,190.607c-0.193,0-0.381,0.022-0.574,0.029v37.638c0.193,0.005,0.381,0.029,0.574,0.029
	c10.409,0,18.847-8.439,18.847-18.847C273.986,199.047,265.547,190.607,255.138,190.607z"/>
<g>
</g>
<g>
</g>
<g>
</g>
<g>
</g>
<g>
</g>
<g>
</g>
<g>
</g>
<g>
</g>
<g>
</g>
<g>
</g>
<g>
</g>
<g>
</g>
<g>
</g>
<g>
</g>
<g>
</g>
</svg>
