<?xml version="1.0" encoding="iso-8859-1"?>
<!-- Generator: Adobe Illustrator 19.0.0, SVG Export Plug-In . SVG Version: 6.00 Build 0)  -->
<svg version="1.1" id="Layer_1" xmlns="http://www.w3.org/2000/svg" xmlns:xlink="http://www.w3.org/1999/xlink" x="0px" y="0px"
	 viewBox="0 0 512 512" style="enable-background:new 0 0 512 512;" xml:space="preserve">
<circle style="fill:#CFDBE6;" cx="256" cy="256" r="256"/>
<path style="fill:#B8C9D9;" d="M512,256c0-12.888-0.964-25.55-2.801-37.926l-86.842-86.842l-53.884,30.946l-278.83,218.59
	l128.429,128.431C230.448,511.036,243.11,512,256,512C397.384,512,512,397.384,512,256z"/>
<polygon style="fill:#324A5E;" points="422.357,131.231 89.643,131.232 89.643,380.769 368.316,380.768 422.357,326.727 "/>
<polygon style="fill:#2B3B4E;" points="255.426,131.232 255.426,380.768 368.316,380.768 422.357,326.727 422.357,131.232 "/>
<polygon style="fill:#CFDBE6;" points="341.333,261.172 254.435,261.172 167.798,203.414 173.535,194.808 257.565,250.828 
	341.333,250.828 "/>
<rect x="208.16" y="225.234" transform="matrix(-0.3161 -0.9487 0.9487 -0.3161 24.4118 558.0171)" style="fill:#E6F3FF;" width="10.341" height="89.951"/>
<g>
	<circle style="fill:#FD8469;" cx="170.667" cy="199.111" r="18.963"/>
	<circle style="fill:#FD8469;" cx="170.667" cy="284.444" r="18.963"/>
</g>
<circle style="fill:#FC6F58;" cx="341.333" cy="256" r="18.963"/>
<polygon style="fill:#E6F3FF;" points="261.172,256 250.828,256 250.828,193.939 341.333,193.939 341.333,204.283 261.172,204.283 
	"/>
<polygon style="fill:#CFDBE6;" points="255.426,193.939 255.426,256 261.172,256 261.172,204.283 341.333,204.283 341.333,193.939 
	"/>
<rect x="227.556" y="227.556" style="fill:#FFD15D;" width="56.889" height="56.889"/>
<rect x="255.431" y="227.556" style="fill:#F9B54C;" width="29.018" height="56.889"/>
<circle style="fill:#FC6F58;" cx="341.333" cy="199.111" r="18.963"/>
<polygon style="fill:#3E5768;" points="368.316,380.768 422.357,326.727 368.316,326.727 "/>
<g>
</g>
<g>
</g>
<g>
</g>
<g>
</g>
<g>
</g>
<g>
</g>
<g>
</g>
<g>
</g>
<g>
</g>
<g>
</g>
<g>
</g>
<g>
</g>
<g>
</g>
<g>
</g>
<g>
</g>
</svg>
