<?xml version="1.0" encoding="iso-8859-1"?>
<!-- Generator: Adobe Illustrator 19.0.0, SVG Export Plug-In . SVG Version: 6.00 Build 0)  -->
<svg version="1.1" id="Layer_1" xmlns="http://www.w3.org/2000/svg" xmlns:xlink="http://www.w3.org/1999/xlink" x="0px" y="0px"
	 viewBox="0 0 512 512" style="enable-background:new 0 0 512 512;" xml:space="preserve">
<circle style="fill:#E6F3FF;" cx="256" cy="256" r="256"/>
<path style="fill:#CFDBE6;" d="M512,256c0-10.23-0.619-20.314-1.786-30.23l-83.547-83.547l-93.613,75.447L85.333,369.778
	L225.77,510.214C235.685,511.381,245.77,512,256,512C397.384,512,512,397.384,512,256z"/>
<rect x="85.333" y="142.222" style="fill:#3C5566;" width="341.333" height="227.556"/>
<g>
	<rect x="255.431" y="142.222" style="fill:#324A5E;" width="171.236" height="227.556"/>
	<rect x="85.333" y="326.249" style="fill:#324A5E;" width="341.333" height="28.444"/>
</g>
<rect x="255.431" y="326.249" style="fill:#2B3B4E;" width="171.236" height="28.444"/>
<rect x="121.966" y="326.249" style="fill:#FFD15D;" width="12.067" height="28.444"/>
<circle style="fill:#FC6F58;" cx="256" cy="243.933" r="56.889"/>
<path style="fill:#F1543F;" d="M256,187.044c-0.193,0-0.383,0.012-0.574,0.014v113.748c0.191,0.002,0.381,0.014,0.574,0.014
	c31.418,0,56.889-25.471,56.889-56.889S287.418,187.044,256,187.044z"/>
<polygon style="fill:#E6F3FF;" points="234.782,212.28 291.009,244.743 234.782,277.206 "/>
<polygon style="fill:#CFDBE6;" points="290.423,245.083 234.782,245.083 234.782,277.206 "/>
<g>
</g>
<g>
</g>
<g>
</g>
<g>
</g>
<g>
</g>
<g>
</g>
<g>
</g>
<g>
</g>
<g>
</g>
<g>
</g>
<g>
</g>
<g>
</g>
<g>
</g>
<g>
</g>
<g>
</g>
</svg>
