<?xml version="1.0" encoding="iso-8859-1"?>
<!-- Generator: Adobe Illustrator 19.0.0, SVG Export Plug-In . SVG Version: 6.00 Build 0)  -->
<svg version="1.1" id="Layer_1" xmlns="http://www.w3.org/2000/svg" xmlns:xlink="http://www.w3.org/1999/xlink" x="0px" y="0px"
	 viewBox="0 0 512 512" style="enable-background:new 0 0 512 512;" xml:space="preserve">
<circle style="fill:#324A5E;" cx="256" cy="256" r="256"/>
<path style="fill:#2B3B4E;" d="M284.208,510.445c118.844-13.029,213.207-107.391,226.237-226.235L369.118,142.882l-5.906,9.478
	l-87.973-87.974l-23.276,20.947l0,0l-19.803,17.822l0.493,0.493l-36.416,25.931l-61.773,61.774l-64.764,66.851l-4.194,18.182
	l86.214,86.214l-8.84,6.518L284.208,510.445z"/>
<polygon style="fill:#CFDBE6;" points="357.076,155.912 356.648,155.351 256.047,78.874 255.426,79.332 255.426,92.181 
	255.953,91.793 349.268,162.732 420.249,256.105 352.509,351.494 257.105,424.498 255.426,423.25 255.426,436.139 257.195,437.455 
	359.417,359.233 360.039,358.755 433.085,255.895 "/>
<g>
	<polygon style="fill:#E6F3FF;" points="159.984,352.28 88.638,257.705 159.127,163.168 255.426,92.181 255.426,79.332 
		152.371,155.298 151.752,155.755 75.709,257.743 152.173,359.102 152.619,359.693 255.426,436.139 255.426,423.25 	"/>
	<rect x="250.828" y="91.367" style="fill:#E6F3FF;" width="10.343" height="340.471"/>
</g>
<g>
	<rect x="255.431" y="91.367" style="fill:#CFDBE6;" width="5.746" height="340.471"/>
	<rect x="255.431" y="256.431" style="fill:#CFDBE6;" width="170.805" height="10.343"/>
</g>
<g>
	<rect x="85.764" y="256.431" style="fill:#E6F3FF;" width="169.667" height="10.343"/>
	<polygon style="fill:#E6F3FF;" points="154.498,152.783 147.185,160.096 255.426,268.34 255.426,253.712 	"/>
</g>
<polygon style="fill:#CFDBE6;" points="364.815,363.105 255.426,253.712 255.426,268.34 357.502,370.417 "/>
<polygon style="fill:#E6F3FF;" points="147.184,363.101 154.496,370.414 255.426,269.484 255.426,254.857 "/>
<polygon style="fill:#CFDBE6;" points="357.504,152.779 255.426,254.857 255.426,269.484 364.816,160.092 "/>
<g>
	<circle style="fill:#FD8469;" cx="256" cy="256" r="68.956"/>
	<path style="fill:#FD8469;" d="M187.044,256c0,37.891,30.565,68.632,68.382,68.942V187.059
		C217.609,187.368,187.044,218.109,187.044,256z"/>
</g>
<path style="fill:#FC6F58;" d="M256,187.044c-0.193,0-0.383,0.014-0.574,0.014v137.883c0.191,0.002,0.381,0.014,0.574,0.014
	c38.083,0,68.956-30.873,68.956-68.956S294.083,187.044,256,187.044z"/>
<circle style="fill:#FFD15D;" cx="256" cy="85.333" r="28.444"/>
<path style="fill:#F9B54C;" d="M256,56.889c-0.193,0-0.381,0.026-0.574,0.029v56.83c0.193,0.003,0.381,0.029,0.574,0.029
	c15.71,0,28.444-12.734,28.444-28.444S271.71,56.889,256,56.889z"/>
<g>
	<path style="fill:#FFD15D;" d="M227.556,85.333c0,15.515,12.429,28.107,27.87,28.415v-56.83
		C239.985,57.227,227.556,69.818,227.556,85.333z"/>
	<circle style="fill:#FFD15D;" cx="256" cy="426.667" r="28.444"/>
</g>
<path style="fill:#F9B54C;" d="M256,398.222c-0.193,0-0.381,0.026-0.574,0.029v56.83c0.193,0.003,0.381,0.029,0.574,0.029
	c15.71,0,28.444-12.734,28.444-28.444S271.71,398.222,256,398.222z"/>
<path style="fill:#FFD15D;" d="M227.556,426.667c0,15.515,12.429,28.107,27.87,28.415v-56.83
	C239.985,398.56,227.556,411.152,227.556,426.667z"/>
<circle style="fill:#F9B54C;" cx="426.667" cy="256" r="28.444"/>
<circle style="fill:#FFD15D;" cx="85.333" cy="256" r="28.444"/>
<circle style="fill:#F9CAA0;" cx="352.952" cy="159.048" r="22.854"/>
<circle style="fill:#FED8B2;" cx="159.048" cy="352.952" r="22.854"/>
<circle style="fill:#F9CAA0;" cx="352.952" cy="352.952" r="22.854"/>
<circle style="fill:#FED8B2;" cx="159.03" cy="159.048" r="22.854"/>
<g>
</g>
<g>
</g>
<g>
</g>
<g>
</g>
<g>
</g>
<g>
</g>
<g>
</g>
<g>
</g>
<g>
</g>
<g>
</g>
<g>
</g>
<g>
</g>
<g>
</g>
<g>
</g>
<g>
</g>
</svg>
