<?xml version="1.0" encoding="iso-8859-1"?>
<!-- Generator: Adobe Illustrator 19.0.0, SVG Export Plug-In . SVG Version: 6.00 Build 0)  -->
<svg version="1.1" id="Layer_1" xmlns="http://www.w3.org/2000/svg" xmlns:xlink="http://www.w3.org/1999/xlink" x="0px" y="0px"
	 viewBox="0 0 297 297" style="enable-background:new 0 0 297 297;" xml:space="preserve">
<g>
	<g>
		<g>
			<g>
				<circle style="fill:#662621;" cx="148.5" cy="148.5" r="148.5"/>
			</g>
		</g>
	</g>
	<path style="fill:#561E1B;" d="M191.407,66.678L72.1,226.56l70.306,70.306c2.022,0.082,4.052,0.134,6.094,0.134
		c74.504,0,136.667-54.833,147.021-127.473L191.407,66.678z"/>
	<g>
		<path style="fill:#C63C22;" d="M207.375,106.981c0-32.516-26.359-58.875-58.875-58.875s-58.875,26.359-58.875,58.875v98.125
			h117.75V106.981z"/>
	</g>
	<g>
		<path style="fill:#A02818;" d="M207.375,106.981c0-32.516-26.359-58.875-58.875-58.875c-0.112,0-0.221,0.008-0.333,0.008v156.992
			h59.208V106.981z"/>
	</g>
	<g>
		<path style="fill:#F86E51;" d="M89.625,106.981v98.125h39.25v-98.125c0-17.27,7.445-32.791,19.292-43.557v-15.31
			C115.805,48.295,89.625,74.577,89.625,106.981z"/>
		<path style="fill:#C63C22;" d="M148.5,48.106c-0.112,0-0.221,0.008-0.333,0.008v15.309c5.736-5.213,12.499-9.317,19.958-11.954
			C161.985,49.299,155.383,48.106,148.5,48.106z"/>
	</g>
	<g>
		<path style="fill:#D0D5D9;" d="M77.533,228.894h141.934c4.16,0,7.533-3.373,7.533-7.533v-24.184c0-4.16-3.373-7.533-7.533-7.533
			H77.533c-4.16,0-7.533,3.373-7.533,7.533v24.184C70,225.521,73.373,228.894,77.533,228.894z"/>
	</g>
	<g>
		<path style="fill:#929DA5;" d="M219.467,189.644h-71.3v39.25h71.3c4.16,0,7.533-3.373,7.533-7.533v-24.184
			C227,193.017,223.627,189.644,219.467,189.644z"/>
	</g>
</g>
<g>
</g>
<g>
</g>
<g>
</g>
<g>
</g>
<g>
</g>
<g>
</g>
<g>
</g>
<g>
</g>
<g>
</g>
<g>
</g>
<g>
</g>
<g>
</g>
<g>
</g>
<g>
</g>
<g>
</g>
</svg>
