<?xml version="1.0" encoding="iso-8859-1"?>
<!-- Generator: Adobe Illustrator 19.0.0, SVG Export Plug-In . SVG Version: 6.00 Build 0)  -->
<svg version="1.1" id="Layer_1" xmlns="http://www.w3.org/2000/svg" xmlns:xlink="http://www.w3.org/1999/xlink" x="0px" y="0px"
	 viewBox="0 0 297 297" style="enable-background:new 0 0 297 297;" xml:space="preserve">
<g>
	<g>
		<g>
			<g>
				<circle style="fill:#32373B;" cx="148.5" cy="148.5" r="148.5"/>
			</g>
		</g>
	</g>
	<path style="fill:#262626;" d="M294.914,123.623l-56.488-56.549L132,138.6c0.688,15.22,4.076,51.231-10.5,56.9
		c-12.077,5.251-25.257,5.537-38.816,4.916l-14.987,12.552l83.991,83.992C232.23,295.262,297,229.448,297,148.5
		C297,140.022,296.279,131.713,294.914,123.623z"/>
	<g>
		<path style="fill:#C0C0B8;" d="M120.583,202.5H82.5c-2.485,0-4.5-2.015-4.5-4.5s2.015-4.5,4.5-4.5h38.083
			c3.814,0,6.917-3.103,6.917-6.916V148.5c0-2.485,2.015-4.5,4.5-4.5s4.5,2.015,4.5,4.5v38.084
			C136.5,195.36,129.359,202.5,120.583,202.5z"/>
	</g>
	<g>
		<path style="fill:#FFFFFF;" d="M143,158h-22c-3.037,0-5.5-2.462-5.5-5.5v-22c0-3.037,2.462-5.5,5.5-5.5h22
			c3.037,0,5.5,2.462,5.5,5.5v22C148.5,155.538,146.038,158,143,158z"/>
	</g>
	<g>
		<path style="fill:#B8C9F1;" d="M93.5,214.5h-22c-3.037,0-5.5-2.462-5.5-5.5v-22c0-3.037,2.462-5.5,5.5-5.5h22
			c3.037,0,5.5,2.462,5.5,5.5v22C99,212.038,96.538,214.5,93.5,214.5z"/>
	</g>
	<g>
		<path style="fill:#B8C9F1;" d="M214.225,120.45h23.65c3.493,0,6.325-2.832,6.325-6.325v-23.65c0-3.493-2.832-6.325-6.325-6.325
			h-23.65c-3.493,0-6.325,2.832-6.325,6.325v23.65C207.9,117.618,210.732,120.45,214.225,120.45z"/>
	</g>
	<g>
		<path style="fill:#D0D5D9;" d="M212.209,138.6H96.341c-7.644,0-13.841-6.197-13.841-13.841V79.841
			C82.5,72.197,88.697,66,96.341,66h115.867c7.644,0,13.841,6.197,13.841,13.841v44.917C226.05,132.403,219.853,138.6,212.209,138.6
			z"/>
	</g>
	<g>
		<path style="fill:#A9B0B5;" d="M212.208,66h-59.375v72.6h59.375c7.644,0,13.841-6.197,13.841-13.841V79.841
			C226.05,72.197,219.853,66,212.208,66z"/>
	</g>
	<g>
		<path style="fill:#FFFFFF;" d="M238.35,71.85l-29.446,29.446c-0.643,0.643-1.514,1.004-2.423,1.004H85.927
			c-1.893,0-3.427-1.534-3.427-3.427V69.427c0-1.893,1.534-3.427,3.427-3.427h150C238.98,66,240.509,69.691,238.35,71.85z"/>
	</g>
	<g>
		<path style="fill:#D0D5D9;" d="M235.927,66h-83.093v36.3h53.647c0.909,0,1.78-0.361,2.423-1.004L238.35,71.85
			C240.509,69.691,238.98,66,235.927,66z"/>
	</g>
</g>
<g>
</g>
<g>
</g>
<g>
</g>
<g>
</g>
<g>
</g>
<g>
</g>
<g>
</g>
<g>
</g>
<g>
</g>
<g>
</g>
<g>
</g>
<g>
</g>
<g>
</g>
<g>
</g>
<g>
</g>
</svg>
