<?xml version="1.0" encoding="iso-8859-1"?>
<!-- Generator: Adobe Illustrator 19.0.0, SVG Export Plug-In . SVG Version: 6.00 Build 0)  -->
<svg version="1.1" id="Layer_1" xmlns="http://www.w3.org/2000/svg" xmlns:xlink="http://www.w3.org/1999/xlink" x="0px" y="0px"
	 viewBox="0 0 297 297" style="enable-background:new 0 0 297 297;" xml:space="preserve">
<g>
	<g>
		<g>
			<g>
				<circle style="fill:#82D9C8;" cx="148.5" cy="148.5" r="148.5"/>
			</g>
		</g>
	</g>
	<path style="fill:#5DAF9F;" d="M294.047,118.903l-49.109-49.067L52.574,194.676l102.183,102.183
		C233.868,293.579,297,228.417,297,148.5C297,138.365,295.981,128.468,294.047,118.903z"/>
	<g>
		<rect x="123.75" y="181.5" style="fill:#2B2B2B;" width="49.5" height="49.5"/>
	</g>
	<g>
		<rect x="148.5" y="181.5" width="24.75" height="49.5"/>
	</g>
	<g>
		<path style="fill:#32373B;" d="M60.333,198h176.333c5.983,0,10.833-4.85,10.833-10.833V76.834C247.5,70.85,242.65,66,236.667,66
			H60.333C54.35,66,49.5,70.85,49.5,76.834v110.333C49.5,193.15,54.35,198,60.333,198z"/>
	</g>
	<g>
		<path style="fill:#292D30;" d="M236.667,66H148.5v132h88.166c5.983,0,10.833-4.85,10.833-10.833V76.833
			C247.5,70.85,242.65,66,236.667,66z"/>
	</g>
	<g>
		<rect x="66.5" y="82.5" style="fill:#FFFFFF;" width="164.5" height="99"/>
	</g>
	<g>
		<rect x="148.5" y="82.5" style="fill:#E3E5E4;" width="82.5" height="99"/>
	</g>
	<g>
		<path style="fill:#8A9093;" d="M165.545,129.955V112.91c0-9.414-7.632-17.045-17.045-17.045s-17.045,7.632-17.045,17.045v17.045
			l5.682-5.682v-11.364c0-6.276,5.088-11.364,11.364-11.364s11.364,5.088,11.364,11.364v11.364L165.545,129.955z"/>
	</g>
	<g>
		<path style="fill:#747A7C;" d="M148.5,95.864v5.682c6.276,0,11.363,5.088,11.363,11.364v11.364l5.682,5.682v-17.045
			C165.545,103.495,157.914,95.864,148.5,95.864z"/>
	</g>
	<g>
		<path style="fill:#32373B;" d="M132.591,168.136h31.818c3.64,0,6.591-2.951,6.591-6.591v-31.818c0-3.64-2.951-6.591-6.591-6.591
			h-31.818c-3.64,0-6.591,2.951-6.591,6.591v31.818C126,165.186,128.951,168.136,132.591,168.136z"/>
	</g>
	<g>
		<path style="fill:#292D30;" d="M164.409,123.136H148.5v45h15.909c3.64,0,6.591-2.951,6.591-6.591v-31.818
			C171,126.087,168.049,123.136,164.409,123.136z"/>
	</g>
	<g>
		<path style="fill:#FFFFFF;" d="M152.932,142.866c0-2.448-1.984-4.432-4.432-4.432s-4.432,1.984-4.432,4.432
			c0,1.399,0.65,2.644,1.662,3.457v3.745c0,1.53,1.24,2.77,2.77,2.77s2.77-1.24,2.77-2.77v-3.745
			C152.282,145.511,152.932,144.265,152.932,142.866z"/>
	</g>
	<g>
		<path style="fill:#E3E5E4;" d="M148.5,138.435v14.403c1.53,0,2.77-1.24,2.77-2.77v-3.745c1.012-0.812,1.662-2.058,1.662-3.457
			C152.932,140.419,150.948,138.435,148.5,138.435z"/>
	</g>
	<g>
		<path style="fill:#32373B;" d="M119.25,234.25h58.5c4.556,0,8.25-3.694,8.25-8.25l0,0c0-4.556-3.694-8.25-8.25-8.25h-58.5
			c-4.556,0-8.25,3.694-8.25,8.25l0,0C111,230.556,114.694,234.25,119.25,234.25z"/>
	</g>
	<g>
		<path style="fill:#292D30;" d="M177.75,217.75H148.5v16.5h29.25c4.556,0,8.25-3.694,8.25-8.25S182.306,217.75,177.75,217.75z"/>
	</g>
</g>
<g>
</g>
<g>
</g>
<g>
</g>
<g>
</g>
<g>
</g>
<g>
</g>
<g>
</g>
<g>
</g>
<g>
</g>
<g>
</g>
<g>
</g>
<g>
</g>
<g>
</g>
<g>
</g>
<g>
</g>
</svg>
