<?xml version="1.0" encoding="iso-8859-1"?>
<!-- Generator: Adobe Illustrator 19.0.0, SVG Export Plug-In . SVG Version: 6.00 Build 0)  -->
<svg version="1.1" id="Layer_1" xmlns="http://www.w3.org/2000/svg" xmlns:xlink="http://www.w3.org/1999/xlink" x="0px" y="0px"
	 viewBox="0 0 297 297" style="enable-background:new 0 0 297 297;" xml:space="preserve">
<g>
	<g>
		<g>
			<g>
				<g>
					<g>
						<g>
							<circle style="fill:#C63C22;" cx="148.5" cy="148.5" r="148.5"/>
						</g>
					</g>
				</g>
			</g>
		</g>
		<g>
			<g>
				<g>
					<g>
						<g>
							<circle style="fill:#C63C22;" cx="148.5" cy="148.5" r="148.5"/>
						</g>
					</g>
				</g>
			</g>
		</g>
	</g>
	<path style="fill:#A02818;" d="M229.231,115.398l-162.52,65.046l113.136,113.23c56.853-12.218,101.612-56.978,113.828-113.833
		L229.231,115.398z"/>
	<g>
		<path style="fill:#FFFFFF;" d="M148.5,82.5c-46.073,0-85.841,26.98-104.378,66c18.538,39.02,58.305,66,104.378,66
			s85.841-26.98,104.378-66C234.341,109.48,194.573,82.5,148.5,82.5z"/>
	</g>
	<g>
		<path style="fill:#E3E5E4;" d="M148.5,82.5c-0.112,0-0.222,0.006-0.333,0.006v131.988c0.111,0,0.221,0.006,0.333,0.006
			c46.073,0,85.841-26.98,104.378-66C234.341,109.48,194.573,82.5,148.5,82.5z"/>
	</g>
	<g>
		<circle style="fill:#99ABD5;" cx="148.5" cy="148.5" r="49.5"/>
	</g>
	<g>
		<path style="fill:#8495B7;" d="M148.5,99c-0.112,0-0.221,0.008-0.333,0.008v98.983c0.112,0.001,0.221,0.008,0.333,0.008
			c27.338,0,49.5-22.162,49.5-49.5C198,121.162,175.838,99,148.5,99z"/>
	</g>
	<g>
		<circle style="fill:#32373B;" cx="148.5" cy="148.5" r="16.5"/>
	</g>
	<g>
		<path style="fill:#292D30;" d="M148.5,132c-0.112,0-0.221,0.015-0.333,0.017v32.966c0.112,0.002,0.221,0.017,0.333,0.017
			c9.113,0,16.5-7.387,16.5-16.5S157.613,132,148.5,132z"/>
	</g>
</g>
<g>
</g>
<g>
</g>
<g>
</g>
<g>
</g>
<g>
</g>
<g>
</g>
<g>
</g>
<g>
</g>
<g>
</g>
<g>
</g>
<g>
</g>
<g>
</g>
<g>
</g>
<g>
</g>
<g>
</g>
</svg>
