<?xml version="1.0" encoding="iso-8859-1"?>
<!-- Generator: Adobe Illustrator 19.0.0, SVG Export Plug-In . SVG Version: 6.00 Build 0)  -->
<svg version="1.1" id="Layer_1" xmlns="http://www.w3.org/2000/svg" xmlns:xlink="http://www.w3.org/1999/xlink" x="0px" y="0px"
	 viewBox="0 0 297 297" style="enable-background:new 0 0 297 297;" xml:space="preserve">
<g>
	<g>
		<g>
			<g>
				<g>
					<circle style="fill:#5E4534;" cx="148.5" cy="148.5" r="148.5"/>
				</g>
			</g>
		</g>
	</g>
	<path style="fill:#473122;" d="M194.536,76.203L86.236,243.62l53.089,53.089c3.036,0.185,6.093,0.29,9.175,0.29
		c72.583,0,132.994-52.078,145.93-120.904L194.536,76.203z"/>
	<g>
		<path style="fill:#FFFFFF;" d="M167.834,49.5H95.5c-7.18,0-13,5.82-13,13v172c0,7.18,5.82,13,13,13h106c7.18,0,13-5.82,13-13
			V96.166L167.834,49.5z"/>
	</g>
	<g>
		<path style="fill:#E3E5E4;" d="M167.834,49.5h-19v198H201.5c7.18,0,13-5.82,13-13V96.166L167.834,49.5z"/>
	</g>
	<g>
		<path style="fill:#79302A;" d="M148.5,135c-0.768,0-1.535-0.293-2.121-0.879l-16.5-16.5c-1.172-1.171-1.172-3.071,0-4.242
			c1.172-1.172,3.07-1.172,4.242,0l14.379,14.379l14.379-14.379c1.172-1.172,3.07-1.172,4.242,0c1.172,1.171,1.172,3.071,0,4.242
			l-16.5,16.5C150.035,134.707,149.268,135,148.5,135z"/>
	</g>
	<g>
		<circle style="fill:#662621;" cx="148.5" cy="132" r="13.5"/>
	</g>
	<g>
		<path style="fill:#561E1C;" d="M162,132c0-7.343-5.866-13.304-13.166-13.483v26.966C156.134,145.304,162,139.343,162,132z"/>
	</g>
	<g>
		<path style="fill:#F0C082;" d="M167.834,83.166c0,7.18,5.82,13,13,13H214.5L167.834,49.5V83.166z"/>
	</g>
	<path style="fill:#79302A;" d="M183.275,179.7c-0.567-0.756-1.456-1.2-2.4-1.2h-9.792c1.388-4.122,2.167-8.688,2.167-13.5
		s-0.779-9.378-2.167-13.5h9.792c0.944,0,1.833-0.444,2.4-1.2l9-12c0.994-1.325,0.726-3.206-0.601-4.2
		c-1.322-0.991-3.204-0.726-4.2,0.601l-8.1,10.8h-10.912c-4.504-8.184-11.767-13.5-19.963-13.5s-15.459,5.316-19.963,13.5h-10.912
		l-8.1-10.8c-0.995-1.326-2.876-1.592-4.2-0.601c-1.326,0.994-1.595,2.875-0.601,4.2l9,12c0.567,0.756,1.456,1.2,2.4,1.2h9.792
		c-1.388,4.122-2.167,8.688-2.167,13.5s0.779,9.378,2.167,13.5h-9.792c-0.944,0-1.833,0.444-2.4,1.2l-9,12
		c-0.994,1.325-0.726,3.206,0.601,4.2c0.539,0.404,1.171,0.6,1.798,0.6c0.912,0,1.813-0.414,2.402-1.2l8.1-10.8h10.912
		c4.504,8.184,11.767,13.5,19.963,13.5s15.459-5.316,19.963-13.5h10.912l8.1,10.8c0.59,0.786,1.49,1.2,2.402,1.2
		c0.627,0,1.259-0.195,1.798-0.6c1.326-0.994,1.595-2.875,0.601-4.2L183.275,179.7z"/>
	<path style="fill:#662621;" d="M183.275,179.7c-0.567-0.756-1.456-1.2-2.4-1.2h-9.792c1.388-4.122,2.167-8.688,2.167-13.5
		s-0.779-9.378-2.167-13.5h9.792c0.944,0,1.833-0.444,2.4-1.2l9-12c0.994-1.325,0.726-3.206-0.601-4.2
		c-1.322-0.991-3.204-0.726-4.2,0.601l-8.1,10.8h-10.912c-4.443-8.072-11.571-13.344-19.63-13.487v65.973
		c8.059-0.143,15.187-5.415,19.63-13.487h10.912l8.1,10.8c0.59,0.786,1.49,1.2,2.402,1.2c0.627,0,1.259-0.195,1.798-0.6
		c1.326-0.994,1.595-2.875,0.601-4.2L183.275,179.7z"/>
</g>
<g>
</g>
<g>
</g>
<g>
</g>
<g>
</g>
<g>
</g>
<g>
</g>
<g>
</g>
<g>
</g>
<g>
</g>
<g>
</g>
<g>
</g>
<g>
</g>
<g>
</g>
<g>
</g>
<g>
</g>
</svg>
