<?xml version="1.0" encoding="iso-8859-1"?>
<!-- Generator: Adobe Illustrator 19.0.0, SVG Export Plug-In . SVG Version: 6.00 Build 0)  -->
<svg version="1.1" id="Layer_1" xmlns="http://www.w3.org/2000/svg" xmlns:xlink="http://www.w3.org/1999/xlink" x="0px" y="0px"
	 viewBox="0 0 297 297" style="enable-background:new 0 0 297 297;" xml:space="preserve">
<g>
	<g>
		<g>
			<g>
				<g>
					<circle style="fill:#5E4534;" cx="148.5" cy="148.5" r="148.5"/>
				</g>
			</g>
		</g>
	</g>
	<path style="fill:#473122;" d="M198.462,80.129L86.115,243.491l53.219,53.219c3.033,0.185,6.087,0.29,9.166,0.29
		c72.583,0,132.994-52.078,145.93-120.904L198.462,80.129z"/>
	<g>
		<path style="fill:#FFFFFF;" d="M167.834,49.5H95.5c-7.18,0-13,5.82-13,13v172c0,7.18,5.82,13,13,13h106c7.18,0,13-5.82,13-13
			V96.166L167.834,49.5z"/>
	</g>
	<g>
		<path style="fill:#E3E5E4;" d="M167.834,49.5H148.5v198h53c7.18,0,13-5.82,13-13V96.166L167.834,49.5z"/>
	</g>
	<g>
		<path style="fill:#F0C082;" d="M167.834,83.166c0,7.18,5.82,13,13,13H214.5L167.834,49.5V83.166z"/>
	</g>
	<g>
		<path style="fill:#8A9093;" d="M173.5,158.5v-25c0-13.807-11.193-25-25-25s-25,11.193-25,25v25l8.333-8.333V133.5
			c0-9.205,7.462-16.667,16.667-16.667s16.667,7.462,16.667,16.667v16.667L173.5,158.5z"/>
	</g>
	<g>
		<path style="fill:#747A7C;" d="M148.5,108.5v8.333c9.204,0,16.666,7.462,16.666,16.667v16.667l8.333,8.333v-25
			C173.5,119.693,162.307,108.5,148.5,108.5z"/>
	</g>
	<g>
		<path style="fill:#32373B;" d="M125.166,214.5h46.667c5.339,0,9.667-4.328,9.667-9.667v-46.667c0-5.339-4.328-9.667-9.667-9.667
			h-46.667c-5.339,0-9.666,4.328-9.666,9.667v46.667C115.5,210.172,119.828,214.5,125.166,214.5z"/>
	</g>
	<g>
		<path style="fill:#292D30;" d="M171.833,148.5H148.5v66h23.333c5.339,0,9.667-4.328,9.667-9.667v-46.667
			C181.5,152.828,177.172,148.5,171.833,148.5z"/>
	</g>
	<g>
		<path style="fill:#FFFFFF;" d="M155,177.438c0-3.59-2.91-6.5-6.5-6.5s-6.5,2.91-6.5,6.5c0,2.052,0.953,3.878,2.437,5.07V188
			c0,2.244,1.819,4.063,4.063,4.063s4.062-1.819,4.062-4.063v-5.493C154.047,181.316,155,179.489,155,177.438z"/>
	</g>
	<g>
		<path style="fill:#E3E5E4;" d="M148.5,170.938v21.125c2.243,0,4.062-1.819,4.062-4.062v-5.493c1.485-1.191,2.438-3.018,2.438-5.07
			C155,173.848,152.09,170.938,148.5,170.938z"/>
	</g>
</g>
<g>
</g>
<g>
</g>
<g>
</g>
<g>
</g>
<g>
</g>
<g>
</g>
<g>
</g>
<g>
</g>
<g>
</g>
<g>
</g>
<g>
</g>
<g>
</g>
<g>
</g>
<g>
</g>
<g>
</g>
</svg>
