<?xml version="1.0" encoding="iso-8859-1"?>
<!-- Generator: Adobe Illustrator 19.0.0, SVG Export Plug-In . SVG Version: 6.00 Build 0)  -->
<svg version="1.1" id="Layer_1" xmlns="http://www.w3.org/2000/svg" xmlns:xlink="http://www.w3.org/1999/xlink" x="0px" y="0px"
	 viewBox="0 0 297 297" style="enable-background:new 0 0 297 297;" xml:space="preserve">
<g>
	<g>
		<g>
			<g>
				<g>
					<g>
						<circle style="fill:#C0C0B8;" cx="148.5" cy="148.5" r="148.5"/>
					</g>
				</g>
			</g>
		</g>
	</g>
	<path style="fill:#898879;" d="M292.259,111.146l-26.275-26.301L30.325,211.902l80.185,80.185c12.127,3.2,24.857,4.912,37.99,4.912
		c82.014,0,148.5-66.486,148.5-148.5C297,135.598,295.352,123.081,292.259,111.146z"/>
	<g>
		<g>
			<path style="fill:#5E4534;" d="M92.711,115H35.583c-3.636,0-6.583-2.948-6.583-6.584V89.584C29,85.948,31.948,83,35.583,83H92.71
				c3.636,0,6.584,2.948,6.584,6.584v18.833C99.294,112.052,96.347,115,92.711,115z"/>
		</g>
		<g>
			<path style="fill:#5E4534;" d="M177.064,115h-57.127c-3.636,0-6.583-2.948-6.583-6.584V89.584c0-3.636,2.948-6.584,6.583-6.584
				h57.127c3.636,0,6.584,2.948,6.584,6.584v18.833C183.647,112.052,180.7,115,177.064,115z"/>
		</g>
		<g>
			<path style="fill:#4C382A;" d="M261.417,115H204.29c-3.636,0-6.583-2.948-6.583-6.584V89.584c0-3.636,2.948-6.584,6.583-6.584
				h57.127c3.636,0,6.583,2.948,6.583,6.584v18.833C268,112.052,265.052,115,261.417,115z"/>
		</g>
	</g>
	<g>
		<g>
			<path style="fill:#5E4534;" d="M92.711,214.5H35.583c-3.636,0-6.583-2.948-6.583-6.583v-18.833c0-3.636,2.948-6.583,6.583-6.583
				H92.71c3.636,0,6.584,2.948,6.584,6.583v18.833C99.294,211.552,96.347,214.5,92.711,214.5z"/>
		</g>
		<g>
			<path style="fill:#5E4534;" d="M177.064,214.5h-57.127c-3.636,0-6.583-2.948-6.583-6.583v-18.833
				c0-3.636,2.948-6.583,6.583-6.583h57.127c3.636,0,6.584,2.948,6.584,6.583v18.833C183.647,211.552,180.7,214.5,177.064,214.5z"/>
		</g>
		<g>
			<path style="fill:#4C382A;" d="M177.063,83h-28.896v32h28.896c3.636,0,6.583-2.948,6.583-6.583V89.583
				C183.647,85.948,180.699,83,177.063,83z"/>
		</g>
		<g>
			<path style="fill:#4C382A;" d="M177.063,182.5h-28.896v32h28.896c3.636,0,6.583-2.948,6.583-6.583v-18.833
				C183.647,185.448,180.699,182.5,177.063,182.5z"/>
		</g>
		<g>
			<path style="fill:#4C382A;" d="M261.417,214.5H204.29c-3.636,0-6.583-2.948-6.583-6.583v-18.833c0-3.636,2.948-6.583,6.583-6.583
				h57.127c3.636,0,6.583,2.948,6.583,6.583v18.833C268,211.552,265.052,214.5,261.417,214.5z"/>
		</g>
	</g>
	<g>
		<g>
			<path style="fill:#5E4534;" d="M138.211,164H81.084c-3.636,0-6.584-2.948-6.584-6.583v-18.833c0-3.636,2.948-6.583,6.584-6.583
				h57.127c3.636,0,6.583,2.948,6.583,6.583v18.833C144.794,161.052,141.847,164,138.211,164z"/>
		</g>
		<g>
			<path style="fill:#4C382A;" d="M222.564,164h-57.127c-3.636,0-6.584-2.948-6.584-6.583v-18.833c0-3.636,2.948-6.583,6.584-6.583
				h57.127c3.636,0,6.584,2.948,6.584,6.583v18.833C229.147,161.052,226.2,164,222.564,164z"/>
		</g>
		<g>
			<path style="fill:#4C382A;" d="M264,164h-14.211c-3.636,0-6.583-2.948-6.583-6.583v-18.833c0-3.636,2.948-6.583,6.583-6.583H264
				c3.636,0,6.583,2.948,6.583,6.583v18.833C270.583,161.052,267.636,164,264,164z"/>
		</g>
		<g>
			<path style="fill:#5E4534;" d="M53.794,164H39.583c-3.636,0-6.583-2.948-6.583-6.583v-18.833c0-3.636,2.948-6.583,6.583-6.583
				h14.211c3.636,0,6.583,2.948,6.583,6.583v18.833C60.378,161.052,57.43,164,53.794,164z"/>
		</g>
	</g>
</g>
<g>
</g>
<g>
</g>
<g>
</g>
<g>
</g>
<g>
</g>
<g>
</g>
<g>
</g>
<g>
</g>
<g>
</g>
<g>
</g>
<g>
</g>
<g>
</g>
<g>
</g>
<g>
</g>
<g>
</g>
</svg>
