<?xml version="1.0" encoding="iso-8859-1"?>
<!-- Generator: Adobe Illustrator 19.0.0, SVG Export Plug-In . SVG Version: 6.00 Build 0)  -->
<svg version="1.1" id="Layer_1" xmlns="http://www.w3.org/2000/svg" xmlns:xlink="http://www.w3.org/1999/xlink" x="0px" y="0px"
	 viewBox="0 0 297.001 297.001" style="enable-background:new 0 0 297.001 297.001;" xml:space="preserve">
<g>
	<g>
		<g>
			<g>
				<circle style="fill:#2D5036;" cx="148.5" cy="148.5" r="148.5"/>
			</g>
		</g>
	</g>
	<path style="fill:#1D3522;" d="M244.009,107.442L52.919,225.01l69.746,69.746c8.391,1.472,17.023,2.245,25.835,2.245
		c78.141,0,142.185-60.355,148.06-136.99L244.009,107.442z"/>
	<g>
		<path style="fill:#E3E5E4;" d="M121.227,102.625V91.238c0-8.774-7.112-15.886-15.886-15.886H64.386
			c-8.774,0-15.886,7.112-15.886,15.886v122.774c0,8.774,7.112,15.886,15.886,15.886h168.228c8.774,0,15.886-7.112,15.886-15.886
			v-95.501c0-8.774-7.112-15.886-15.886-15.886C232.614,102.625,121.227,102.625,121.227,102.625z"/>
	</g>
	<g>
		<path style="fill:#C8CCCA;" d="M232.614,102.625h-83.78v127.273h83.78c8.774,0,15.886-7.112,15.886-15.886v-95.501
			C248.5,109.737,241.388,102.625,232.614,102.625z"/>
	</g>
	<path style="fill:#86C867;" d="M185.5,163.065h-6.881c-2.271-12.415-12.079-22.222-24.494-24.494V132c0-3.037-2.463-5.5-5.5-5.5
		s-5.5,2.463-5.5,5.5v6.572c-12.415,2.272-22.222,12.079-24.494,24.494H111.5c-3.037,0-5.5,2.463-5.5,5.5s2.463,5.5,5.5,5.5h7.131
		c2.271,12.415,12.079,22.222,24.494,24.494v6.572c0,3.037,2.463,5.5,5.5,5.5s5.5-2.463,5.5-5.5v-6.572
		c12.415-2.272,22.222-12.079,24.494-24.494h6.881c3.037,0,5.5-2.463,5.5-5.5S188.537,163.065,185.5,163.065z M154.125,186.231
		v-2.628c0-3.037-2.463-5.5-5.5-5.5s-5.5,2.463-5.5,5.5v2.628c-5.785-1.805-10.36-6.38-12.165-12.165h2.493
		c3.037,0,5.5-2.463,5.5-5.5s-2.463-5.5-5.5-5.5h-2.493c1.805-5.785,6.38-10.36,12.165-12.165v2.628c0,3.037,2.463,5.5,5.5,5.5
		s5.5-2.463,5.5-5.5V150.9c5.785,1.805,10.36,6.38,12.165,12.165h-2.318c-3.037,0-5.5,2.463-5.5,5.5s2.463,5.5,5.5,5.5h2.318
		C164.485,179.851,159.91,184.426,154.125,186.231z"/>
	<path style="fill:#6AAC4B;" d="M185.5,163.065h-6.881c-2.271-12.415-12.079-22.222-24.494-24.494V132
		c0-2.967-2.352-5.379-5.291-5.489v32.507c2.94-0.111,5.291-2.523,5.291-5.489V150.9c5.785,1.805,10.36,6.38,12.165,12.165h-2.318
		c-3.037,0-5.5,2.463-5.5,5.5s2.463,5.5,5.5,5.5h2.318c-1.805,5.785-6.38,10.36-12.165,12.165v-2.628
		c0-2.967-2.352-5.379-5.291-5.489v32.507c2.94-0.111,5.291-2.523,5.291-5.489v-6.572c12.415-2.272,22.222-12.079,24.494-24.494
		h6.881c3.037,0,5.5-2.463,5.5-5.5S188.537,163.065,185.5,163.065z"/>
</g>
<g>
</g>
<g>
</g>
<g>
</g>
<g>
</g>
<g>
</g>
<g>
</g>
<g>
</g>
<g>
</g>
<g>
</g>
<g>
</g>
<g>
</g>
<g>
</g>
<g>
</g>
<g>
</g>
<g>
</g>
</svg>
