<?xml version="1.0" encoding="iso-8859-1"?>
<!-- Generator: Adobe Illustrator 19.0.0, SVG Export Plug-In . SVG Version: 6.00 Build 0)  -->
<svg version="1.1" id="Layer_1" xmlns="http://www.w3.org/2000/svg" xmlns:xlink="http://www.w3.org/1999/xlink" x="0px" y="0px"
	 viewBox="0 0 297 297" style="enable-background:new 0 0 297 297;" xml:space="preserve">
<g>
	<g>
		<g>
			<g>
				<g>
					<g>
						<circle style="fill:#F9B65F;" cx="148.5" cy="148.5" r="148.5"/>
					</g>
				</g>
			</g>
		</g>
	</g>
	<path style="fill:#D18F3F;" d="M191.305,61.83c-20.874,8.798-48.604-4.656-70.805,3.67c-0.34,0.105-0.669,0.22-0.994,0.338
		L108.418,77.84c-1.364,4.94-0.826,10.368,1.082,14.66c7,14,18,28,35,28c-1,8,2,15,2,23c1,29-2,59,2,88c-12,0-26-4-36,3
		c-1.848,1.232-3.696,2.258-5.544,3.169l58.376,58.376c68.193-7.695,122.393-61.565,130.587-129.606L191.305,61.83z"/>
	<path style="fill:#79302A;" d="M163.333,49.833h-29.666C112.346,49.833,95,67.179,95,88.5s17.346,38.667,38.667,38.667h5.833V172.5
		H113c-4.971,0-9,4.029-9,9s4.029,9,9,9h26.5v6.75H126c-4.971,0-9,4.029-9,9s4.029,9,9,9h13.5V222H113c-4.971,0-9,4.029-9,9
		s4.029,9,9,9h27.866c1.589,2.549,4.409,4.25,7.634,4.25c4.971,0,9-4.029,9-9V127.167h5.833c21.321,0,38.667-17.346,38.667-38.667
		S184.654,49.833,163.333,49.833z M163.333,109.167h-29.666C122.271,109.167,113,99.896,113,88.5s9.271-20.667,20.667-20.667h29.666
		C174.729,67.833,184,77.104,184,88.5S174.729,109.167,163.333,109.167z"/>
	<path style="fill:#68231F;" d="M163.333,49.833h-15.166v18h15.166C174.729,67.833,184,77.104,184,88.5s-9.271,20.667-20.667,20.667
		h-15.166v135.061c0.112,0.004,0.22,0.022,0.333,0.022c4.971,0,9-4.029,9-9V127.167h5.833c21.321,0,38.667-17.346,38.667-38.667
		S184.654,49.833,163.333,49.833z"/>
</g>
<g>
</g>
<g>
</g>
<g>
</g>
<g>
</g>
<g>
</g>
<g>
</g>
<g>
</g>
<g>
</g>
<g>
</g>
<g>
</g>
<g>
</g>
<g>
</g>
<g>
</g>
<g>
</g>
<g>
</g>
</svg>
