<?xml version="1.0" encoding="iso-8859-1"?>
<!-- Generator: Adobe Illustrator 19.0.0, SVG Export Plug-In . SVG Version: 6.00 Build 0)  -->
<svg version="1.1" id="Layer_1" xmlns="http://www.w3.org/2000/svg" xmlns:xlink="http://www.w3.org/1999/xlink" x="0px" y="0px"
	 viewBox="0 0 297 297" style="enable-background:new 0 0 297 297;" xml:space="preserve">
<g>
	<g>
		<g>
			<g>
				<circle style="fill:#16A085;" cx="148.5" cy="148.5" r="148.5"/>
			</g>
		</g>
	</g>
	<path style="fill:#0C7762;" d="M294.084,119.101l-50.67-50.67L41.944,205.59l90.549,90.549c5.259,0.564,10.598,0.861,16.007,0.861
		c82.014,0,148.5-66.486,148.5-148.5C297,138.434,295.993,128.604,294.084,119.101z"/>
	<g>
		<path style="fill:#32373B;" d="M60.333,198h176.333c5.983,0,10.833-4.85,10.833-10.833V76.834C247.5,70.85,242.65,66,236.667,66
			H60.333C54.35,66,49.5,70.85,49.5,76.834v110.333C49.5,193.15,54.35,198,60.333,198z"/>
	</g>
	<g>
		<path style="fill:#32373B;" d="M236.667,66h-88.5v132h88.5c5.983,0,10.833-4.85,10.833-10.833V76.833
			C247.5,70.85,242.65,66,236.667,66z"/>
	</g>
	<g>
		<rect x="66" y="82.5" style="fill:#D0D5D9;" width="165" height="99"/>
	</g>
	<g>
		<rect x="148.167" y="82.5" style="fill:#B6BCC1;" width="82.833" height="99"/>
	</g>
	<g>
		<path style="fill:#2B2B2B;" d="M63.417,214.5h170.167c16.799,0,30.417-13.618,30.417-30.417V181.5H33v2.583
			C33,200.882,46.618,214.5,63.417,214.5z"/>
	</g>
	<g>
		<path style="fill:#2B2B2B;" d="M148.167,181.5v33h85.417c16.799,0,30.417-13.618,30.417-30.417V181.5H148.167z"/>
	</g>
	<g>
		<path style="fill:#FFFFFF;" d="M148.5,102.644c-20.493,0-38.181,12-46.426,29.356c8.245,17.355,25.933,29.356,46.426,29.356
			s38.181-12,46.426-29.356C186.681,114.645,168.993,102.644,148.5,102.644z"/>
	</g>
	<g>
		<path style="fill:#E3E5E4;" d="M148.5,102.644c-0.112,0-0.222,0.005-0.333,0.006v58.699c0.111,0.001,0.221,0.006,0.333,0.006
			c20.493,0,38.181-12,46.426-29.356C186.681,114.644,168.993,102.644,148.5,102.644z"/>
	</g>
	<g>
		<circle style="fill:#99ABD5;" cx="148.5" cy="132" r="22.017"/>
	</g>
	<g>
		<path style="fill:#8495B7;" d="M148.5,109.983c-0.112,0-0.222,0.007-0.333,0.008v44.017c0.111,0.002,0.221,0.008,0.333,0.008
			c12.16,0,22.017-9.857,22.017-22.017S160.66,109.983,148.5,109.983z"/>
	</g>
	<g>
		<circle style="fill:#32373B;" cx="148.5" cy="132" r="7.339"/>
	</g>
	<g>
		<path style="fill:#292D30;" d="M148.5,124.661c-0.112,0-0.222,0.012-0.333,0.017v14.644c0.111,0.005,0.221,0.017,0.333,0.017
			c4.053,0,7.339-3.286,7.339-7.339C155.839,127.947,152.553,124.661,148.5,124.661z"/>
	</g>
</g>
<g>
</g>
<g>
</g>
<g>
</g>
<g>
</g>
<g>
</g>
<g>
</g>
<g>
</g>
<g>
</g>
<g>
</g>
<g>
</g>
<g>
</g>
<g>
</g>
<g>
</g>
<g>
</g>
<g>
</g>
</svg>
