<?xml version="1.0" encoding="iso-8859-1"?>
<!-- Generator: Adobe Illustrator 19.0.0, SVG Export Plug-In . SVG Version: 6.00 Build 0)  -->
<svg version="1.1" id="Layer_1" xmlns="http://www.w3.org/2000/svg" xmlns:xlink="http://www.w3.org/1999/xlink" x="0px" y="0px"
	 viewBox="0 0 297 297" style="enable-background:new 0 0 297 297;" xml:space="preserve">
<g>
	<g>
		<g>
			<g>
				<g>
					<g>
						<circle style="fill:#345065;" cx="148.5" cy="148.5" r="148.5"/>
					</g>
				</g>
			</g>
		</g>
	</g>
	<path style="fill:#213947;" d="M296.96,145.316l-72.558-72.558l-152.89,150.41l73.78,73.791c1.067,0.022,2.136,0.041,3.208,0.041
		c82.014,0,148.5-66.486,148.5-148.5C297,147.436,296.982,146.375,296.96,145.316z"/>
	<g>
		<path style="fill:#F86E51;" d="M148.5,41.25c-59.233,0-107.25,48.018-107.25,107.25S89.267,255.75,148.5,255.75
			s107.25-48.018,107.25-107.25S207.733,41.25,148.5,41.25z M148.5,198c-27.338,0-49.5-22.162-49.5-49.5S121.162,99,148.5,99
			s49.5,22.162,49.5,49.5S175.838,198,148.5,198z"/>
	</g>
	<g>
		<path style="fill:#D85944;" d="M148.5,41.25c-0.111,0-0.222,0.004-0.333,0.004v57.754c0.112,0,0.221-0.008,0.333-0.008
			c27.338,0,49.5,22.162,49.5,49.5S175.838,198,148.5,198c-0.112,0-0.221-0.008-0.333-0.008v57.754c0.111,0,0.222,0.004,0.333,0.004
			c59.233,0,107.25-48.018,107.25-107.25S207.733,41.25,148.5,41.25z"/>
	</g>
	<g>
		<g>
			<path style="fill:#E3E5E4;" d="M39.25,160.5h59c6.627,0,12-5.373,12-12l0,0c0-6.627-5.373-12-12-12h-59c-6.627,0-12,5.373-12,12
				l0,0C27.25,155.127,32.623,160.5,39.25,160.5z"/>
		</g>
		<g>
			<path style="fill:#E3E5E4;" d="M198.75,160.5h59c6.627,0,12-5.373,12-12l0,0c0-6.627-5.373-12-12-12h-59c-6.627,0-12,5.373-12,12
				l0,0C186.75,155.127,192.123,160.5,198.75,160.5z"/>
		</g>
	</g>
	<g>
		<g>
			<path style="fill:#ECF0F1;" d="M136.5,39.25v58.999c0,6.627,5.373,12,12,12l0,0c6.627,0,12-5.373,12-12V39.25
				c0-6.627-5.373-12-12-12l0,0C141.873,27.25,136.5,32.623,136.5,39.25z"/>
		</g>
		<g>
			<path style="fill:#ECF0F1;" d="M136.499,198.749v58.999c0,6.627,5.373,12,12,12l0,0c6.627,0,12-5.373,12-12v-58.999
				c0-6.627-5.373-12-12-12l0,0C141.872,186.749,136.499,192.121,136.499,198.749z"/>
		</g>
	</g>
	<g>
		<g>
			<path style="fill:#E3E5E4;" d="M148.5,27.25c-0.113,0-0.221,0.014-0.333,0.017v82.966c0.112,0.003,0.22,0.017,0.333,0.017
				c6.627,0,12-5.373,12-12v-59C160.5,32.623,155.127,27.25,148.5,27.25z"/>
		</g>
		<g>
			<path style="fill:#E3E5E4;" d="M148.499,186.749c-0.112,0-0.221,0.014-0.332,0.017v82.966c0.111,0.003,0.22,0.017,0.332,0.017
				l0,0c6.627,0,12-5.373,12-12V198.75C160.499,192.121,155.126,186.749,148.499,186.749z"/>
		</g>
	</g>
</g>
<g>
</g>
<g>
</g>
<g>
</g>
<g>
</g>
<g>
</g>
<g>
</g>
<g>
</g>
<g>
</g>
<g>
</g>
<g>
</g>
<g>
</g>
<g>
</g>
<g>
</g>
<g>
</g>
<g>
</g>
</svg>
