<?xml version="1.0" encoding="iso-8859-1"?>
<!-- Generator: Adobe Illustrator 19.0.0, SVG Export Plug-In . SVG Version: 6.00 Build 0)  -->
<svg version="1.1" id="Layer_1" xmlns="http://www.w3.org/2000/svg" xmlns:xlink="http://www.w3.org/1999/xlink" x="0px" y="0px"
	 viewBox="0 0 297 297" style="enable-background:new 0 0 297 297;" xml:space="preserve">
<g>
	<g>
		<g>
			<g>
				<g>
					<g>
						<circle style="fill:#5E345E;" cx="148.5" cy="148.5" r="148.5"/>
					</g>
				</g>
			</g>
		</g>
	</g>
	<path style="fill:#391B3A;" d="M177.34,71.546L54.267,192.977L157.98,296.69c64.734-4.08,118.208-49.625,134.157-110.384
		L177.34,71.546z"/>
	<g>
		<circle style="fill:#FFFFFF;" cx="66" cy="82.5" r="16.5"/>
	</g>
	<g>
		<circle style="fill:#FFFFFF;" cx="115.5" cy="82.5" r="16.5"/>
	</g>
	<g>
		<circle style="fill:#FFFFFF;" cx="165" cy="82.5" r="16.5"/>
	</g>
	<g>
		<circle style="fill:#FFFFFF;" cx="66" cy="132" r="16.5"/>
	</g>
	<g>
		<circle style="fill:#FFFFFF;" cx="115.5" cy="132" r="16.5"/>
	</g>
	<g>
		<circle style="fill:#FFFFFF;" cx="165" cy="132" r="16.5"/>
	</g>
	<g>
		<circle style="fill:#FFFFFF;" cx="66" cy="181.5" r="16.5"/>
	</g>
	<g>
		<circle style="fill:#FFFFFF;" cx="115.5" cy="181.5" r="16.5"/>
	</g>
	<g>
		<circle style="fill:#FFFFFF;" cx="165" cy="181.5" r="16.5"/>
	</g>
	<g>
		<path style="fill:#F9B65F;" d="M183.501,132.197V92.929c0-5.76-4.669-10.429-10.429-10.429l0,0
			c-5.76,0-10.429,4.669-10.429,10.429v60.576c0,0-15.977-4.366-13.969,15.965s24.849,49.697,24.849,49.697v37.273h49.697v-37.273
			c0,0,31.28-45.834,18.28-71.167c-3.505-6.831-15.667-6.833-18.28-3.379c0,0-8.387-13.455-22.553-5.788
			C200.667,138.833,193,128.167,183.501,132.197z"/>
	</g>
</g>
<g>
</g>
<g>
</g>
<g>
</g>
<g>
</g>
<g>
</g>
<g>
</g>
<g>
</g>
<g>
</g>
<g>
</g>
<g>
</g>
<g>
</g>
<g>
</g>
<g>
</g>
<g>
</g>
<g>
</g>
</svg>
