<?xml version="1.0" encoding="iso-8859-1"?>
<!-- Generator: Adobe Illustrator 19.0.0, SVG Export Plug-In . SVG Version: 6.00 Build 0)  -->
<svg version="1.1" id="Layer_1" xmlns="http://www.w3.org/2000/svg" xmlns:xlink="http://www.w3.org/1999/xlink" x="0px" y="0px"
	 viewBox="0 0 297 297" style="enable-background:new 0 0 297 297;" xml:space="preserve">
<g>
	<g>
		<g>
			<g>
				<g>
					<g>
						<circle style="fill:#82D9C8;" cx="148.5" cy="148.5" r="148.5"/>
					</g>
				</g>
			</g>
		</g>
	</g>
	<path style="fill:#5DAF9F;" d="M181.5,40.25l-69.625,207.514l48.741,48.741c74.021-5.978,132.706-66.234,136.212-140.927
		L181.5,40.25z"/>
	<g>
		<rect x="115.5" y="40.25" style="fill:#FFFFFF;" width="66" height="49.5"/>
	</g>
	<g>
		<rect x="115.5" y="40.25" style="fill:#FFFFFF;" width="32" height="49.5"/>
		<rect x="147.5" y="40.25" style="fill:#E3E5E4;" width="34" height="49.5"/>
	</g>
	<g>
		<path style="fill:#394C81;" d="M148.5,264L148.5,264c27.338,0,49.5-22.162,49.5-49.5V95.334c0-7.088-5.746-12.834-12.833-12.834
			h-73.333C104.746,82.5,99,88.246,99,95.334V214.5C99,241.838,121.162,264,148.5,264z"/>
	</g>
	<g>
		<path style="fill:#2C3F6B;" d="M185.167,82.5H147.5v181.475c0.334,0.007,0.664,0.025,1,0.025l0,0c27.338,0,49.5-22.162,49.5-49.5
			V95.333C198,88.246,192.254,82.5,185.167,82.5z"/>
		<path style="fill:#394C81;" d="M111.833,82.5C104.746,82.5,99,88.246,99,95.333V214.5c0,27.003,21.625,48.94,48.5,49.475V82.5
			H111.833z"/>
	</g>
	<g>
		<g>
			<rect x="129" y="51" style="fill:#32373B;" width="11" height="22"/>
		</g>
		<g>
			<rect x="157" y="51" style="fill:#212528;" width="11" height="22"/>
		</g>
	</g>
	<g>
		<path style="fill:#FFFFFF;" d="M170.073,158.646v-21.573c0-11.914-9.659-21.573-21.573-21.573s-21.573,9.659-21.573,21.573v21.573
			l7.191-7.191v-14.382c0-7.943,6.439-14.382,14.382-14.382c7.943,0,14.382,6.439,14.382,14.382v14.382L170.073,158.646z"/>
	</g>
	<g>
		<path style="fill:#FFFFFF;" d="M126.927,137.073v21.573l7.191-7.191v-14.382c0-7.605,5.908-13.816,13.382-14.331v-7.191
			C136.053,116.076,126.927,125.496,126.927,137.073z"/>
		<path style="fill:#E3E5E4;" d="M148.5,115.5c-0.338,0-0.666,0.035-1,0.051v7.191c0.332-0.023,0.662-0.051,1-0.051
			c7.943,0,14.382,6.439,14.382,14.382v14.382l7.191,7.191v-21.573C170.073,125.158,160.414,115.5,148.5,115.5z"/>
	</g>
	<g>
		<path style="fill:#99ABD5;" d="M128.365,206.969h40.27c4.607,0,8.341-3.735,8.341-8.341v-40.27c0-4.607-3.735-8.341-8.341-8.341
			h-40.27c-4.607,0-8.341,3.735-8.341,8.341v40.27C120.024,203.234,123.758,206.969,128.365,206.969z"/>
	</g>
	<g>
		<path style="fill:#99ABD5;" d="M128.365,150.017c-4.607,0-8.341,3.734-8.341,8.341v40.27c0,4.607,3.735,8.341,8.341,8.341H147.5
			v-56.952L128.365,150.017L128.365,150.017z"/>
		<path style="fill:#8297BF;" d="M168.635,150.017H147.5v56.952h21.135c4.607,0,8.341-3.735,8.341-8.341v-40.27
			C176.976,153.751,173.242,150.017,168.635,150.017z"/>
	</g>
	<path style="fill:#32373B;" d="M148.5,169.378c-0.342,0-0.675,0.036-1,0.094c-2.62,0.472-4.609,2.759-4.609,5.515
		c0,1.77,0.822,3.347,2.103,4.375v4.74c0,1.586,1.06,2.911,2.506,3.343c0.319,0.095,0.65,0.162,1,0.162
		c1.936,0,3.506-1.569,3.506-3.506v-4.74c1.281-1.028,2.103-2.604,2.103-4.375C154.109,171.889,151.598,169.378,148.5,169.378z"/>
	<path style="fill:#212528;" d="M148.5,169.378c-0.342,0-0.675,0.036-1,0.094v17.973c0.319,0.095,0.65,0.162,1,0.162
		c1.936,0,3.506-1.569,3.506-3.506v-4.74c1.281-1.028,2.103-2.604,2.103-4.375C154.109,171.889,151.598,169.378,148.5,169.378z"/>
</g>
<g>
</g>
<g>
</g>
<g>
</g>
<g>
</g>
<g>
</g>
<g>
</g>
<g>
</g>
<g>
</g>
<g>
</g>
<g>
</g>
<g>
</g>
<g>
</g>
<g>
</g>
<g>
</g>
<g>
</g>
</svg>
