<?xml version="1.0" encoding="iso-8859-1"?>
<!-- Generator: Adobe Illustrator 19.0.0, SVG Export Plug-In . SVG Version: 6.00 Build 0)  -->
<svg version="1.1" id="Layer_1" xmlns="http://www.w3.org/2000/svg" xmlns:xlink="http://www.w3.org/1999/xlink" x="0px" y="0px"
	 viewBox="0 0 297 297" style="enable-background:new 0 0 297 297;" xml:space="preserve">
<g>
	<g>
		<g>
			<g>
				<circle style="fill:#32373B;" cx="148.5" cy="148.5" r="148.5"/>
			</g>
		</g>
	</g>
	<path style="fill:#262626;" d="M296.306,134.14L221.5,59.333L94.317,214.584l80.15,80.15C244.1,282.453,297,221.656,297,148.5
		C297,143.655,296.76,138.866,296.306,134.14z"/>
	<g>
		<path style="fill:#ECF0F1;" d="M194.011,222.146L148.5,255.5l-45.511-33.354C85.684,209.464,75.5,189.56,75.5,168.423V59.333
			l73-17.833l73,17.833v109.089C221.5,189.56,211.316,209.464,194.011,222.146z"/>
	</g>
	<g>
		<path style="fill:#E3E5E4;" d="M148.5,41.5l-1,0.244v213.023l1,0.733l45.511-33.354c17.305-12.682,27.489-32.586,27.489-53.724
			V59.333L148.5,41.5z"/>
	</g>
	<g>
		<path style="fill:#9ADAD9;" d="M189.647,216.64L148.5,247.5l-41.147-30.86C91.708,204.906,82.5,186.49,82.5,166.933V66l66-16.5
			l66,16.5v100.933C214.5,186.49,205.292,204.906,189.647,216.64z"/>
	</g>
	<g>
		<path style="fill:#17AB93;" d="M82.5,140.5v26.433c0,19.557,9.208,37.973,24.853,49.707l40.814,30.61V140.5H82.5z"/>
	</g>
	<g>
		<polygon style="fill:#17AB93;" points="214.5,66 148.5,49.5 148.167,49.583 148.167,140.5 214.5,140.5 		"/>
	</g>
</g>
<g>
</g>
<g>
</g>
<g>
</g>
<g>
</g>
<g>
</g>
<g>
</g>
<g>
</g>
<g>
</g>
<g>
</g>
<g>
</g>
<g>
</g>
<g>
</g>
<g>
</g>
<g>
</g>
<g>
</g>
</svg>
