<?xml version="1.0" encoding="iso-8859-1"?>
<!-- Generator: Adobe Illustrator 19.0.0, SVG Export Plug-In . SVG Version: 6.00 Build 0)  -->
<svg version="1.1" id="Layer_1" xmlns="http://www.w3.org/2000/svg" xmlns:xlink="http://www.w3.org/1999/xlink" x="0px" y="0px"
	 viewBox="0 0 297 297" style="enable-background:new 0 0 297 297;" xml:space="preserve">
<g>
	<g>
		<g>
			<g>
				<circle style="fill:#D0D5D9;" cx="148.5" cy="148.5" r="148.5"/>
			</g>
		</g>
	</g>
	<path style="fill:#929DA5;" d="M296.731,139.655l-93.426-93.412l-109.45,195.6l55.151,55.151C230.787,296.72,297,230.345,297,148.5
		C297,145.529,296.903,142.582,296.731,139.655z"/>
	<g>
		<path style="fill:#32373B;" d="M91,53.156v181.688c0,5.642,4.574,10.217,10.217,10.217h94.567c5.642,0,10.217-4.574,10.217-10.217
			V53.156c0-5.642-4.574-10.217-10.217-10.217h-94.567C95.574,42.939,91,47.513,91,53.156z"/>
	</g>
	<g>
		<path style="fill:#292D30;" d="M206,53.156c0-5.642-4.574-10.217-10.217-10.217H147.5V245.06h48.283
			c5.642,0,10.217-4.574,10.217-10.217V53.156z"/>
	</g>
	<g>
		<rect x="105.375" y="56.951" style="fill:#FFFFFF;" width="86.25" height="159.069"/>
	</g>
	<g>
		<rect x="147.5" y="56.951" style="fill:#E3E5E4;" width="44.125" height="159.069"/>
	</g>
	<g>
		<circle cx="148.5" cy="229.96" r="7.551"/>
	</g>
	<g>
		<path style="fill:#8A9093;" d="M170.073,137.86v-21.573c0-11.914-9.659-21.573-21.573-21.573s-21.573,9.658-21.573,21.573v21.573
			l7.191-7.191v-14.382c0-7.943,6.439-14.382,14.382-14.382c7.943,0,14.382,6.439,14.382,14.382v14.382L170.073,137.86z"/>
	</g>
	<g>
		<path style="fill:#747A7C;" d="M148.5,94.714c-0.338,0-0.666,0.035-1,0.05v7.191c0.332-0.023,0.662-0.05,1-0.05
			c7.943,0,14.382,6.439,14.382,14.382v14.382l7.191,7.191v-21.573C170.073,104.373,160.414,94.714,148.5,94.714z"/>
	</g>
	<g>
		<path style="fill:#32373B;" d="M128.365,186.183h40.27c4.607,0,8.341-3.735,8.341-8.341v-40.27c0-4.607-3.735-8.341-8.341-8.341
			h-40.27c-4.607,0-8.341,3.735-8.341,8.341v40.27C120.024,182.449,123.758,186.183,128.365,186.183z"/>
	</g>
	<g>
		<path style="fill:#292D30;" d="M168.635,129.231H147.5v56.952h21.135c4.607,0,8.341-3.735,8.341-8.341v-40.27
			C176.976,132.965,173.242,129.231,168.635,129.231z"/>
	</g>
	<g>
		<path style="fill:#FFFFFF;" d="M154.109,154.201c0-3.098-2.511-5.609-5.609-5.609s-5.609,2.511-5.609,5.609
			c0,1.77,0.822,3.347,2.103,4.375v4.74c0,1.936,1.57,3.506,3.506,3.506s3.506-1.57,3.506-3.506v-4.74
			C153.287,157.548,154.109,155.972,154.109,154.201z"/>
	</g>
	<g>
		<path style="fill:#E3E5E4;" d="M148.5,148.593c-0.342,0-0.675,0.035-1,0.094v17.973c0.319,0.095,0.65,0.162,1,0.162
			c1.936,0,3.506-1.57,3.506-3.506v-4.74c1.281-1.028,2.103-2.604,2.103-4.375C154.109,151.104,151.598,148.593,148.5,148.593z"/>
	</g>
</g>
<g>
</g>
<g>
</g>
<g>
</g>
<g>
</g>
<g>
</g>
<g>
</g>
<g>
</g>
<g>
</g>
<g>
</g>
<g>
</g>
<g>
</g>
<g>
</g>
<g>
</g>
<g>
</g>
<g>
</g>
</svg>
