<?xml version="1.0" encoding="iso-8859-1"?>
<!-- Generator: Adobe Illustrator 19.0.0, SVG Export Plug-In . SVG Version: 6.00 Build 0)  -->
<svg version="1.1" id="Layer_1" xmlns="http://www.w3.org/2000/svg" xmlns:xlink="http://www.w3.org/1999/xlink" x="0px" y="0px"
	 viewBox="0 0 297 297" style="enable-background:new 0 0 297 297;" xml:space="preserve">
<g>
	<g>
		<g>
			<g>
				<circle style="fill:#345F41;" cx="148.5" cy="148.5" r="148.5"/>
			</g>
		</g>
	</g>
	<path style="fill:#1D3522;" d="M226.908,112.421L70.317,226.483l70.309,70.309c2.608,0.136,5.232,0.208,7.874,0.208
		c71.454,0,131.112-50.469,145.294-117.702L226.908,112.421z"/>
	<g>
		<path style="fill:#FFFFFF;" d="M215.954,231H81.046C72.736,231,66,224.264,66,215.954v-93.223c0-4.571,2.078-8.893,5.647-11.749
			l67.454-53.964c5.495-4.396,13.303-4.396,18.798,0l67.454,53.964c3.569,2.855,5.647,7.178,5.647,11.749v93.223
			C231,224.264,224.264,231,215.954,231z"/>
	</g>
	<g>
		<path style="fill:#E3E5E4;" d="M225.353,110.983l-67.454-53.964c-2.656-2.124-5.852-3.212-9.065-3.283V231h67.121
			c8.309,0,15.046-6.736,15.046-15.046v-93.223C231,118.161,228.922,113.838,225.353,110.983z"/>
	</g>
	<g>
		<path style="fill:#79302A;" d="M148.5,118.5c-0.768,0-1.535-0.293-2.121-0.879l-16.5-16.5c-1.172-1.171-1.172-3.071,0-4.242
			c1.172-1.172,3.07-1.172,4.242,0l14.379,14.379l14.379-14.379c1.172-1.172,3.07-1.172,4.242,0c1.172,1.171,1.172,3.071,0,4.242
			l-16.5,16.5C150.035,118.207,149.268,118.5,148.5,118.5z"/>
	</g>
	<g>
		<circle style="fill:#662621;" cx="148.5" cy="115.5" r="13.5"/>
	</g>
	<g>
		<path style="fill:#561E1C;" d="M162,115.5c0-7.343-5.866-13.304-13.166-13.483v26.966C156.134,128.804,162,122.843,162,115.5z"/>
	</g>
	<path style="fill:#79302A;" d="M183.275,163.2c-0.567-0.756-1.456-1.2-2.4-1.2h-9.792c1.388-4.122,2.167-8.688,2.167-13.5
		s-0.779-9.378-2.167-13.5h9.792c0.944,0,1.833-0.444,2.4-1.2l9-12c0.994-1.325,0.726-3.206-0.601-4.2
		c-1.323-0.992-3.204-0.725-4.2,0.601l-8.1,10.8h-10.912c-4.504-8.184-11.767-13.5-19.963-13.5s-15.459,5.316-19.963,13.5h-10.912
		l-8.1-10.8c-0.995-1.325-2.876-1.593-4.2-0.601c-1.326,0.994-1.595,2.875-0.601,4.2l9,12c0.567,0.756,1.456,1.2,2.4,1.2h9.792
		c-1.388,4.122-2.167,8.688-2.167,13.5s0.779,9.378,2.167,13.5h-9.792c-0.944,0-1.833,0.444-2.4,1.2l-9,12
		c-0.994,1.325-0.726,3.206,0.601,4.2c0.539,0.404,1.171,0.6,1.798,0.6c0.912,0,1.813-0.414,2.402-1.2l8.1-10.8h10.912
		c4.504,8.184,11.767,13.5,19.963,13.5s15.459-5.316,19.963-13.5h10.912l8.1,10.8c0.59,0.786,1.49,1.2,2.402,1.2
		c0.627,0,1.259-0.195,1.798-0.6c1.326-0.994,1.595-2.875,0.601-4.2L183.275,163.2z"/>
	<path style="fill:#662621;" d="M183.275,163.2c-0.567-0.756-1.456-1.2-2.4-1.2h-9.792c1.388-4.122,2.167-8.688,2.167-13.5
		s-0.779-9.378-2.167-13.5h9.792c0.944,0,1.833-0.444,2.4-1.2l9-12c0.994-1.325,0.726-3.206-0.601-4.2
		c-1.323-0.992-3.204-0.725-4.2,0.601l-8.1,10.8h-10.912c-4.443-8.072-11.571-13.344-19.63-13.487v65.973
		c8.059-0.143,15.187-5.415,19.63-13.487h10.912l8.1,10.8c0.59,0.786,1.49,1.2,2.402,1.2c0.627,0,1.259-0.195,1.798-0.6
		c1.326-0.994,1.595-2.875,0.601-4.2L183.275,163.2z"/>
	<g>
		<path style="fill:#D0D5D9;" d="M148.5,182.5l-78.158-70.338C67.578,114.96,66,118.751,66,122.731v93.223
			C66,224.264,72.736,231,81.046,231h134.909c8.309,0,15.046-6.736,15.046-15.046v-93.223c0-3.98-1.578-7.771-4.342-10.57
			L148.5,182.5z"/>
	</g>
	<g>
		<path style="fill:#B0B4B7;" d="M226.658,112.162L148.834,182.2V231h67.121c8.309,0,15.046-6.736,15.046-15.046v-93.223
			C231,118.751,229.422,114.961,226.658,112.162z"/>
	</g>
</g>
<g>
</g>
<g>
</g>
<g>
</g>
<g>
</g>
<g>
</g>
<g>
</g>
<g>
</g>
<g>
</g>
<g>
</g>
<g>
</g>
<g>
</g>
<g>
</g>
<g>
</g>
<g>
</g>
<g>
</g>
</svg>
