<?xml version="1.0" encoding="iso-8859-1"?>
<!-- Generator: Adobe Illustrator 19.0.0, SVG Export Plug-In . SVG Version: 6.00 Build 0)  -->
<svg version="1.1" id="Layer_1" xmlns="http://www.w3.org/2000/svg" xmlns:xlink="http://www.w3.org/1999/xlink" x="0px" y="0px"
	 viewBox="0 0 297 297" style="enable-background:new 0 0 297 297;" xml:space="preserve">
<g>
	<g>
		<g>
			<g>
				<g>
					<g>
						<circle style="fill:#32373B;" cx="148.5" cy="148.5" r="148.5"/>
					</g>
				</g>
			</g>
		</g>
	</g>
	<path style="fill:#262626;" d="M161.499,40.682L53.246,208.972l87.847,87.843c2.454,0.121,4.923,0.184,7.407,0.184
		c73.32,0,134.223-53.14,146.312-123.005L161.499,40.682z"/>
	<g>
		<path style="fill:#E67E22;" d="M50.426,186.738l82.045-142.107c7.124-12.339,24.933-12.339,32.057,0l82.045,142.107
			c7.124,12.339-1.781,27.762-16.029,27.762H66.455C52.207,214.5,43.302,199.076,50.426,186.738z"/>
	</g>
	<g>
		<path style="fill:#D1691C;" d="M246.574,186.738L164.529,44.631c-3.562-6.169-9.795-9.254-16.028-9.254V214.5h82.045
			C244.793,214.5,253.698,199.076,246.574,186.738z"/>
	</g>
	<g>
		<path style="fill:#FFFFFF;" d="M148.5,157.938L148.5,157.938c4.556,0,8.25-3.694,8.25-8.25v-66c0-4.556-3.694-8.25-8.25-8.25l0,0
			c-4.556,0-8.25,3.694-8.25,8.25v66C140.25,154.245,143.944,157.938,148.5,157.938z"/>
	</g>
	<g>
		<path style="fill:#FFFFFF;" d="M148.5,190.938L148.5,190.938c4.556,0,8.25-3.694,8.25-8.25l0,0c0-4.556-3.694-8.25-8.25-8.25l0,0
			c-4.556,0-8.25,3.694-8.25,8.25l0,0C140.25,187.245,143.944,190.938,148.5,190.938z"/>
	</g>
	<g>
		<path style="fill:#E3E5E4;" d="M148.5,75.438v82.5c4.556,0,8.25-3.694,8.25-8.25v-66C156.75,79.132,153.056,75.438,148.5,75.438z"
			/>
	</g>
	<g>
		<path style="fill:#E3E5E4;" d="M148.5,174.438v16.5c4.556,0,8.25-3.694,8.25-8.25l0,0
			C156.75,178.132,153.056,174.438,148.5,174.438z"/>
	</g>
</g>
<g>
</g>
<g>
</g>
<g>
</g>
<g>
</g>
<g>
</g>
<g>
</g>
<g>
</g>
<g>
</g>
<g>
</g>
<g>
</g>
<g>
</g>
<g>
</g>
<g>
</g>
<g>
</g>
<g>
</g>
</svg>
